<svg xmlns="http://www.w3.org/2000/svg" width="12" height="7" viewBox="0 0 12 7">
    <defs>
        <style>
            .cls-1{fill:#05276c}
        </style>
    </defs>
    <g id="Arrow_-_SEED-20" data-name="Arrow - SEED-20" transform="translate(-11.56 -17.71)">
        <path id="Path_1359" d="M29.512 18.566l.076-.071.036.086c-.031 0-.071 0-.082.035a.148.148 0 0 0 .025.116l.046-.086a.026.026 0 0 1 .025 0l.031.025a.758.758 0 0 1-.046.091l-.031.025a.23.23 0 0 0 0 .05l.051.055-.127-.086.051.081h-.056c.066.106.031.126 0 .1a.873.873 0 0 0 .076.1l-.046.045-.107-.1c0 .045.025.066.066.086v.04c-.061-.061-.076-.066-.092-.03s0 .071-.061.066h-.056a.08.08 0 0 0 0 .035c0 .025.036.05.051.081s-.076-.045-.071 0l-.092-.1-.051.061.087.035-.051.03a.5.5 0 0 1 .056.106.269.269 0 0 1 0 .091l-.133-.106v.04c-.082 0-.082 0 0 .141-.051-.04-.082-.05-.082 0l-.112-.151c-.051 0-.061.04-.041.1h-.071l.071.116h-.036l.046.116a.476.476 0 0 1-.1-.05c-.046-.035-.071-.045-.087-.03s.036.071.031.081-.046 0-.071 0h-.051l.056.045h-.061v.04h-.031l.143.126-.046-.035v.055c-.031-.03-.041-.076-.092-.081a.246.246 0 0 1-.082-.04l.041.035v.1l-.076-.066-.1.071.087.091c.076 0 .031.071.092.1h-.046a.537.537 0 0 0-.178-.192c0 .066.082.1.138.151-.061-.03-.107-.05-.066.025l.046.05h-.041c-.071 0-.071 0 0 .061h-.082l.036.066-.087-.071v-.081a.258.258 0 0 0-.046-.05v.141l-.071-.045c.041.05.092.1.087.136a1.745 1.745 0 0 1-.138-.136.1.1 0 0 1 0-.066v-.045c0-.02-.076 0-.031.066s0 .03 0 .05.107.05.158.106v.066l-.031-.076-.1-.025.087.086v.091l-.138-.071h-.036a.356.356 0 0 0-.071.076c-.015.03 0 0-.036 0l-.031.025.061.05H27.8c.041.05.071.1.041.126L27.8 20.7h-.051l.066.071v.05l-.056-.03c.051.066 0 .086-.092.045a.12.12 0 0 1-.007.107.122.122 0 0 1-.09.06v-.03a.1.1 0 0 0-.031-.035v.091c0 .015 0 .076-.082.05s0 .025 0 .04a.045.045 0 0 0 0 .035l-.031-.03-.076.04.066.055-.092-.05v.045l.061.03a.1.1 0 0 1-.031.045h-.031c-.031 0-.066-.045-.046 0l-.127-.061.061.076c-.046 0-.122.035-.076.136a.364.364 0 0 1 0 .045c0 .025-.056 0-.117-.035l.036.116-.036-.055h-.082v.089h.041l-.071.066-.046-.055.041.045v.04l-.041-.045v.04a.384.384 0 0 1-.092-.045l.056.1-.1-.071.056.086-.051-.04v.1h.071c.041.081-.061 0-.061.061-.219.106-.291.055-.291.106l.082.066h-.082l.036.03v.05h-.041l.036.061h-.046l-.066-.071.031.111c0 .045 0 .055-.071.025h-.02v.04h-.031l.066.086-.092.025-.056.03-.041-.055.031-.03-.066-.05v.05l-.036-.066-.041.091.051.055h-.046L26 22.4c.031.055 0 .066-.056.03v.05H25.8l.056.061-.112.05.031.04-.087.045-.061-.076v.045l-.051.04c.082.055 0 .055.036.081l-.066-.035a.075.075 0 0 0 0 .04l.071.071v.141l-.036-.03h-.046l-.051-.136v.1l-.072.083q-.168-.045-.076.091l-.066-.045-.112-.055.071.086h-.046c0 .03.107.066.087.116h-.041s.031.045 0 .055 0 0-.046 0l.051.055c-.056 0-.087-.061-.117-.1h-.047l.087.086c-.041 0-.041 0-.148-.106l.1.156a.057.057 0 0 1-.025 0 .209.209 0 0 0-.066.05h-.046a.156.156 0 0 1-.025-.05c0-.03 0-.03-.061-.04s0 .03 0 .04a.121.121 0 0 0-.056.066l.087.025a.1.1 0 0 1 0 .03c-.051 0-.031.091-.1.086s-.036.05-.056.076l-.076-.04c0 .03.031.055.031.071s0 0-.031.03l.041.045-.122-.066s.025-.03 0-.05a.226.226 0 0 0-.036-.071l.046-.04v-.025a.555.555 0 0 0-.087.066v.03l.071.025h-.071l.051.04s.036.055 0 .061l-.031-.04a.3.3 0 0 0-.047-.058v.05l-.051-.04c0 .066 0 .066.107.106v.055l-.046-.05c-.051 0-.036.035 0 .076h-.051a.067.067 0 0 1-.041 0 .529.529 0 0 1-.036-.055v.03l.025.01-.036.071.087.05h-.031c-.031 0-.051 0-.087-.05s-.025 0-.041-.035l-.051.035v-.063c-.031 0-.082-.04-.082 0s-.031.045-.046.066v.03h.031c0-.055.082 0 .117 0h.087l.051.111a.189.189 0 0 1 0 .05h-.066l-.051-.035c0 .04.087.071.071.106s-.056.025-.133-.03l.076-.025a.48.48 0 0 0-.087-.055c-.041 0-.036.025 0 .071a.152.152 0 0 0 .041.04c.031.025.051.05.046.066a.051.051 0 0 1-.041.035h-.041l.061.1-.112-.055c-.066 0 .025.182-.107.146.061.066 0 .076.025.116s-.031-.025-.031-.061-.041 0 0 .066-.143-.1-.056.035L23.9 24.5c.031.071-.036 0-.061 0v.066h-.049l.031.035a.574.574 0 0 0-.127.055c-.031 0-.031.081-.082.071a.771.771 0 0 1-.092-.091V24.6a.09.09 0 0 1 0-.05l-.066.03a.061.061 0 0 0-.056-.061V24.5c-.071-.025-.087-.045-.092-.1s-.066-.03-.071-.116h-.056a1.521 1.521 0 0 1-.158-.156c-.031-.035-.051-.071-.082-.1s-.031-.045 0-.04.056 0 .046-.04h-.138a.155.155 0 0 1 0-.04l-.087-.108h.071v.045c.076 0 .076-.035.092-.071a.308.308 0 0 1 .061-.076c.02-.025.1-.055.127-.106s.082-.05.127-.076v-.061c0-.01.046 0 .071 0l-.051-.025c.031 0 .031-.05.092 0l-.056-.035h.036c.061.025.046 0 .056-.04a.5.5 0 0 1 .041-.055s.025-.03.046-.03.036 0 0-.066c.041 0 .071 0 .071-.066s0-.04.041-.055.041-.071.076-.086a.316.316 0 0 0 .112-.086.976.976 0 0 0 .148-.171c0-.035.071-.05.107-.076a.745.745 0 0 1 .051-.061c.02-.02.041 0 0 0s0 0 0-.025l.051.055-.056-.071.076.05a.307.307 0 0 1 .025-.146l.041.025.041-.061c0-.03 0-.03.041-.025l.112-.237.087.05.031-.03.117-.035v-.03a.315.315 0 0 1 .066 0l-.076-.04h.071s0-.076.046-.061c-.031-.035 0-.05 0-.066a1.012 1.012 0 0 0 .071-.081l.066-.061h.1a.191.191 0 0 0 .031-.066.3.3 0 0 0 0-.055v-.03h.112s0-.081.046-.076.036 0 .036-.03 0-.091.071-.066v.045-.056h.046v-.12s.031.025.051.045v-.05h.046l.005-.177.066.035v-.05l.041.05c0-.055 0-.066.076-.03l-.061-.071.066.035c0-.03-.046-.106.031-.061v-.081h.066c-.02 0 0-.061.031-.04s.046 0 .066-.025 0 0 0-.025v-.071a.543.543 0 0 1 .1-.116c.041-.03.071 0 .1-.035a.05.05 0 0 0 .025-.04c0-.066.051-.071.112-.071 0-.045 0-.091.031-.1a.128.128 0 0 0 .076-.03v-.04l.082-.025a.414.414 0 0 1 0-.061l.082-.071.031.061v-.076c.061 0 .046-.045.071-.076s0-.121.107-.1v-.03c0-.03 0-.061.041-.076a.308.308 0 0 1 .1-.03l.076.1v-.086l.117.025-.087-.086V19.8l.041.05-.041-.116a.128.128 0 0 1 .143 0l-.051-.1h.153l-.041-.05.061.035.031-.1.036.035.036-.111.117.071v-.04H27.3c0-.05.076 0 .122.025v-.03l.061.045-.1-.1a.529.529 0 0 1 .036-.055.063.063 0 0 0 .051-.081c-.01-.05 0 0 .036 0l-.036-.071.036-.045.036.071c.076.025 0-.055 0-.086l.107.05v-.137l.061.05v-.07h-.051c0-.035 0-.035.041-.04l.041.076v-.066l-.036-.055.127-.071V18.8l.071.071v-.091l.056.03.046.025a.071.071 0 0 0-.031-.055l-.041-.045.076.055-.071-.071a.155.155 0 0 1 .066 0 .436.436 0 0 1 .087.04c-.036-.04-.056-.071 0-.076s.025-.03.041-.045l.036-.04v-.088l.061.066-.066-.126h.041l.066-.091c.066.04.1.035.133 0l-.036-.04.092-.091a.369.369 0 0 0 0-.071c.056 0 .031-.055.056-.071l.107-.076a.121.121 0 0 0 .031-.04h.112v-.055l.031.035.031-.061h.031a.112.112 0 0 0 .082.076h.031a.09.09 0 0 0 0 .045.391.391 0 0 0 .092.091l.041.045c-.041 0-.046 0 0 .071v-.05c.056.091.122.086.184.131v.035l-.071-.045c.025.025.056.066.071.071a.29.29 0 0 0 .066 0c.02 0 .036.076-.041.1l.056.035.046.05v-.061zm-6 5.971l.056.045c-.007-.025-.018-.056-.053-.046zm.087 0c0 .061 0 .061-.025.05h-.044l.066.061c0-.066.066 0 .087 0zm-.719-.711h-.036l.041.025zm.872.676l-.087-.04h-.041a.726.726 0 0 1-.071-.066.913.913 0 0 0 .041.1.536.536 0 0 0 .051.061l-.041-.05.071.04v-.05c.003-.016.059.003.079.003zm-.235-.3l-.046-.045.046.05zm.1-.141v-.035zm.224.287c-.046-.05-.061-.045-.056 0l-.061.03h.076v.055h.071l-.087-.066zM23.535 24v.03zm.2.116l.087.081-.025.05.087.086-.025-.061h.061c-.092-.1-.173-.171-.184-.151zm.291.121l-.087.025c.051.045.087.035.087-.02zm-.036-.076h-.056V24.1h-.061a1.321 1.321 0 0 0 .112.1h.046zm.031-.04v.035h.036zm0-.045l-.036-.045zm.127.091h-.025v.025zm-.1-.166a.115.115 0 0 0 .051.106c.048.036.028-.024-.054-.107zm.071-.045v.126l.036-.061zm0-.04l-.066-.03v.04zm-.046-.081h.005zm-.082-.141v.035zm.291.04zm.158-.166l.041.061v-.045c0-.015-.036.01-.066 0zm-.076-.071v-.03zm.189.121l-.082-.066zm-.025-.1l-.025.03zm.209 0v.035zm-.367-.61h-.025l.071.081zm.648.328h-.051L25 23.3zm.1-.131l.082.076c-.036-.055-.036-.055-.082-.061zm-.7-.893v.066a.125.125 0 0 0 0-.045zm1.147.025l.041.055zm.071 0h-.066l.066.081zm-.4-.414h-.041c.056.055.051.025.056 0zM25.7 22v.05h.025zm.153.055h-.023v.025h.025c.025 0 .01-.02.005-.035zm-.076-.227v-.061h-.025zm.071.086v-.025l-.025.025zm.286.368l.082.086a.162.162 0 0 0-.076-.1zm.061-.1h-.056l.031.086.046-.081zm-.138-.146a.743.743 0 0 1 0 .091l.122.055c-.056-.071-.082-.111-.117-.156zm-.709-.7l.061.05c-.01-.05-.02-.076-.056-.061zm.821.7v.04zm.112.076h-.046l.071.055zm-.056-.277l-.092.061c.087.035.122.01.1-.071zm.168.182v.035zm-.076-.1zm.087-.146h-.064l-.025-.061v.04l.148.126a.237.237 0 0 1-.031-.045.25.25 0 0 1-.02-.071zm-.564-.571l.036.035zm0-.277h-.051l.031.055zm.087 0l-.051.045h.066zm.887.812l-.1-.045c.071.061.082.066.107.035zm-.107-.192l-.056-.071v.035h.049l-.025.035c.071.066.041.01.046-.01zm-.194-.2v.04zm.076-.126c-.056-.04-.1-.04-.087 0a.551.551 0 0 0 .092.111l-.046-.091zm.245.227l.051.05zm-.163-.393h.029v-.03zm.194.227v-.05h-.025v.05zm.138.086l-.041-.066zm.051 0h-.046l.051.035zm-.75-.837a.03.03 0 0 0 0-.035l-.041-.035zm.76.691l.076.076zm-.229-.247l-.127-.071a1.652 1.652 0 0 0 .1.156zm.4.277h-.1l.051.066.051-.035zm-.632-.842h.031zm.352.262l-.046.04.076.071zm.1-.161l.031.04zm.092 0l-.046-.04.051.071c-.01 0 0-.01-.005-.02zm.286.1zm.27.121l.031.061zm-.051-.131l-.036.025v.03zm-.143-.287l-.036-.045v.03zm.127.061v.025c.036.035.036.035 0-.015zm.219.05l.036.045zM27.8 20.3l-.066-.03.076.061zm-.245-.338zm.342.252h-.056a.573.573 0 0 0 .092.05v.025h.051a.4.4 0 0 0-.087-.055zm0-.1h.005zm.337-.03H28.2v.03h.036zm.046-.03h-.041a.06.06 0 0 1 0 .025h.041zm-.092-.091c-.041 0-.041 0 0 .055zm.133-.121v.045zm.087-.192l.046.055zm-.51-.56zm.112.045h-.061l.036.055zm.7.358h-.04v.025h.036zm-.041-.086a.479.479 0 0 0-.117 0l.071.061c0-.045.051-.05.107 0a.07.07 0 0 0-.041-.086zm.051-.025l.071.076c-.01-.086-.02-.1-.051-.1zm.25-.03v.048H29v-.025zm-.214-.5v-.025zm.184.242l-.025.025v.025h.031a.233.233 0 0 1 .036.035.14.14 0 0 1 0 .045v-.05zm.071-.035l-.046.035.076.055zm.158.151l-.056-.045v.03zm-.592-.973l-.076-.045zm.821.782l.056.066zm-.27-.5l.051-.05-.122-.025zm.036.03zm-.352-.343h-.1l.127.111zm.469.393a.554.554 0 0 1 0 .066.3.3 0 0 1 0 .066l.061.025v-.066l.071.045c-.046-.071-.046-.146-.112-.171zm-.036-.071v-.035zm.148.076h-.066l.087.1z" class="cls-1" data-name="Path 1359" transform="translate(-6.245 -.088)"/>
        <path id="Path_1360" d="M30.62 25.05l.025.046z" class="cls-1" data-name="Path 1360" transform="translate(-9.918 -3.638)"/>
        <path id="Path_1362" d="M33.83 19.34v.041z" class="cls-1" data-name="Path 1362" transform="translate(-11.67 -.799)"/>
        <path id="Path_1363" d="M33.55 19v.025z" class="cls-1" data-name="Path 1363" transform="translate(-11.533 -.632)"/>
        <path id="Path_1365" d="M24.67 30.386v-.036z" class="cls-1" data-name="Path 1365" transform="translate(-6.821 -6.271)"/>
        <path id="Path_1370" d="M34.5 20.41v.025z" class="cls-1" data-name="Path 1370" transform="translate(-11.998 -1.323)"/>
        <path id="Path_1373" d="M33.62 21.58z" class="cls-1" data-name="Path 1373" transform="translate(-11.567 -1.918)"/>
        <path id="Path_1374" d="M32.656 22.536l-.036-.046z" class="cls-1" data-name="Path 1374" transform="translate(-11.077 -2.369)"/>
        <path id="Path_1375" d="M27.745 28.139c.031-.041.036-.046.082 0v.071l-.1-.056z" class="cls-1" data-name="Path 1375" transform="translate(-8.417 -5.153)"/>
        <path id="Path_1376" d="M36.09 20.111l.031-.061h.046c-.001.02-.016.056-.077.061z" class="cls-1" data-name="Path 1376" transform="translate(-12.777 -1.147)"/>
        <path id="Path_1377" d="M35.9 18.946h-.041v.046c-.051-.046-.092-.076-.051-.1z" class="cls-1" data-name="Path 1377" transform="translate(-12.629 -.578)"/>
        <path id="Path_1378" d="M36.32 19.931c-.071-.082 0-.036 0-.071.08.071.015.071 0 .071z" class="cls-1" data-name="Path 1378" transform="translate(-12.874 -1.054)"/>
        <path id="Path_1379" d="M36.426 19.42c.056.061.071.092.031.107l-.031-.061a.388.388 0 0 0-.046-.046s.066.071.046 0z" class="cls-1" data-name="Path 1379" transform="translate(-12.92 -.838)"/>
        <path id="Path_1380" d="M34.106 22.187l-.036-.107.046.107z" class="cls-1" data-name="Path 1380" transform="translate(-11.788 -2.166)"/>
        <path id="Path_1381" d="M27.946 28.317h-.056v-.041c-.001-.01-.011-.005.056.041z" class="cls-1" data-name="Path 1381" transform="translate(-8.498 -5.234)"/>
        <path id="Path_1382" d="M28.166 28.01c-.025 0-.036 0-.071-.036l.071.041z" class="cls-1" data-name="Path 1382" transform="translate(-8.598 -5.08)"/>
        <path id="Path_1383" d="M24.68 31.536v-.046h.041z" class="cls-1" data-name="Path 1383" transform="translate(-6.827 -6.83)"/>
        <path id="Path_1384" d="M35.35 20.759l.071.066z" class="cls-1" data-name="Path 1384" transform="translate(-12.415 -1.506)"/>
        <path id="Path_1385" d="M27.546 28.74l-.036.046.036-.041z" class="cls-1" data-name="Path 1385" transform="translate(-8.3 -5.467)"/>
        <path id="Path_1386" d="M29.12 27.016v-.036h.01z" class="cls-1" data-name="Path 1386" transform="translate(-9.138 -4.594)"/>
        <path id="Path_1387" d="M32.215 20.21l.051.031v.031l-.056-.046z" class="cls-1" data-name="Path 1387" transform="translate(-10.876 -1.225)"/>
        <path id="Path_1388" d="M26.99 28.851v-.041l.031.036h-.041z" class="cls-1" data-name="Path 1388" transform="translate(-8.024 -5.501)"/>
        <path id="Path_1389" d="M27.66 28.24l.066.061c-.056-.001-.056-.001-.066-.061z" class="cls-1" data-name="Path 1389" transform="translate(-8.379 -5.219)"/>
        <path id="Path_1390" d="M34.841 21.45a.153.153 0 0 1 0 .051h-.031v-.051z" class="cls-1" data-name="Path 1390" transform="translate(-12.15 -1.854)"/>
        <path id="Path_1391" d="M29.141 27.14c0 .025 0 .025-.051 0z" class="cls-1" data-name="Path 1391" transform="translate(-9.123 -4.674)"/>
        <path id="Path_1392" d="M34.64 21.69z" class="cls-1" data-name="Path 1392" transform="translate(-12.067 -1.972)"/>
        <path id="Path_1393" d="M35.11 21.08l.046.036-.031.031z" class="cls-1" data-name="Path 1393" transform="translate(-12.297 -1.67)"/>
        <path id="Path_1394" d="M33.046 23.22l-.046.031V23.2h.051z" class="cls-1" data-name="Path 1394" transform="translate(-11.263 -2.721)"/>
        <path id="Path_1395" d="M28.67 27.52v.025z" class="cls-1" data-name="Path 1395" transform="translate(-8.902 -4.862)"/>
        <path id="Path_1396" d="M34.85 17.89h.036a.036.036 0 0 1 0 .031z" class="cls-1" data-name="Path 1396" transform="translate(-12.17 -.088)"/>
        <path id="Path_1397" d="M35.26 18.22v.025z" class="cls-1" data-name="Path 1397" transform="translate(-12.371 -.25)"/>
        <path id="Path_1398" d="M28.48 27.58a.071.071 0 0 1 0 .031z" class="cls-1" data-name="Path 1398" transform="translate(-8.803 -4.892)"/>
        <path id="Path_1399" d="M29.26 26.86l.041.031-.041-.025z" class="cls-1" data-name="Path 1399" transform="translate(-9.211 -4.535)"/>
        <path id="Path_1400" d="M35.366 20.911l-.046-.031.046.036z" class="cls-1" data-name="Path 1400" transform="translate(-12.4 -1.571)"/>
        <path id="Path_1401" d="M30.881 25.45z" class="cls-1" data-name="Path 1401" transform="translate(-10.033 -3.836)"/>
        <path id="Path_1402" d="M33 23.34z" class="cls-1" data-name="Path 1402" transform="translate(-11.263 -2.79)"/>
        <path id="Path_1403" d="M35.481 18.576l-.051-.046.051.041z" class="cls-1" data-name="Path 1403" transform="translate(-12.454 -.402)"/>
        <path id="Path_1405" d="M33.09 23.206h.041l-.031-.036z" class="cls-1" data-name="Path 1405" transform="translate(-11.307 -2.706)"/>
        <path id="Path_1406" d="M34 22.225V22.2l.031.025z" class="cls-1" data-name="Path 1406" transform="translate(-11.753 -2.225)"/>
        <path id="Path_1407" d="M17.876 24.412l.076.071-.087.04c0-.03 0-.076-.036-.086a.412.412 0 0 0-.117.025.065.065 0 0 0 0 .025l.092.045-.025.03-.092-.045a.031.031 0 0 0-.025-.03l-.051-.025-.061.05.087-.126-.082.05.025-.061c-.107.066-.127.035-.107 0l-.1.081-.061-.045.1-.111c-.046 0-.066.03-.087.066h-.035a.075.075 0 0 1 0-.025c.061-.061.066-.076 0-.1s-.066 0-.061-.055v-.025a.07.07 0 0 0 0-.03H17.2a.464.464 0 0 1-.082.055c0-.04.046-.081 0-.071l.1-.091-.061-.05-.041.086-.031-.05a.461.461 0 0 1-.112.055.247.247 0 0 1-.087 0l.107-.136-.046.03c0-.086 0-.081-.138 0 .046-.05.051-.081 0-.081h.025l.092-.05c0-.05-.041-.066-.1-.04v-.076l-.117.076v-.035l-.109.047a.441.441 0 0 1 .046-.1c.041-.045.046-.071.036-.086s-.076.035-.082.025a.318.318 0 0 1 0-.071.185.185 0 0 1 0-.045l-.046.061v-.066l-.036.025V23.5l-.122.141.031-.081H16.4c.031-.03.082-.035.087-.086a.316.316 0 0 1 .041-.086l-.036.045-.092-.033.112-.071-.112-.076-.092.091c0 .071-.076.03-.1.091v-.045a.538.538 0 0 0 .194-.177c-.066 0-.1.081-.153.136.031-.061.051-.106-.031-.066l-.046.045a.11.11 0 0 1 0-.04c0-.071 0-.076-.066 0a.1.1 0 0 0 0-.035v-.045l-.066.035.066-.086h.076l.046-.045h-.138l.041-.066c-.046.035-.092.091-.133.081.046-.045.087-.091.133-.131a.129.129 0 0 1 .071 0h.046c.02 0 0-.071-.066-.025s-.031 0-.051 0-.056.1-.112.156h.015l.025-.1-.087.086h-.1l.082-.066a.13.13 0 0 1 0-.045c0-.05-.041-.055-.071-.076s0 0 0-.03a.091.091 0 0 1-.025-.035.571.571 0 0 0-.051.066l-.025.025v-.106c-.046.035-.1.071-.127.035l.046-.04V22.8l-.071.066h-.051l.031-.055c-.071.045-.087 0-.051-.091a.118.118 0 0 1-.106-.007.116.116 0 0 1-.057-.089h-.02l.036-.025v-.025h-.092c-.015 0-.076 0-.051-.081s-.025 0-.041 0h-.036l.025-.03-.036-.071-.056.061.051-.091h-.051l-.031.066-.041-.03v-.03c0-.005.046-.066 0-.045s.036-.076.056-.126l-.071.055c-.025-.04-.036-.116-.138-.076a.1.1 0 0 1-.046 0c-.025 0-.025-.055.031-.121l-.112.04.056-.03v-.081h-.079a.3.3 0 0 1 0 .04l-.066-.071.056-.05-.046.035-.041.025.046-.04h-.041a.5.5 0 0 1 .046-.1l-.1.061.071-.106-.087.061.046-.055h-.1v.076c-.087.04 0-.061-.066-.061.066-.055.092-.121.066-.141l-.071.076-.112-.353-.036.04h-.051v-.04l-.056.03v-.04l.066-.071-.107.035c-.046 0-.056 0-.031-.071v.035a.3.3 0 0 0 0-.066H14.1V21.2l-.087.066-.025-.086h-.025a.467.467 0 0 1-.025-.05l.051-.045.036.035.046-.066h-.046l.071-.04-.092-.035-.056.05v-.1c-.061.025-.066 0-.031-.055l-.036.03c-.031.025-.046.04-.041 0a1.138 1.138 0 0 0 0-.136l-.066.05-.046-.111-.041.035-.051-.086.082-.061-.046.025-.041-.05c-.056.076-.061 0-.082.03a.226.226 0 0 0 .031-.061v-.025a.077.077 0 0 0-.041 0 .9.9 0 0 1-.071.071h-.1l.031-.035v-.04l.138-.05h-.107a.508.508 0 0 0-.076-.071c.036-.111 0-.136-.092-.081a.474.474 0 0 0 .046-.061.131.131 0 0 1 .046-.091l-.087.076V20.2c-.036 0-.066.106-.122.081l.025-.035-.056.025v-.045l-.051.05c0-.061.061-.086.1-.116v-.05c-.031.03-.061.055-.087.086s0-.04.1-.146l-.153.1v-.025a.207.207 0 0 0-.051-.066v-.049a.082.082 0 0 1 .046-.025c.036 0 .036 0 .046-.061s-.036 0-.041 0a.381.381 0 0 0-.066-.055l-.031.091h-.016c0-.055-.092-.03-.087-.1s-.051-.035-.082-.05l.041-.081s-.051.035-.066.03 0 0-.031-.025l-.051.04.071-.126a.114.114 0 0 0 .051.025c.02 0 .041-.025.071-.04l.041.05v-.025l-.041-.126H12.8a.567.567 0 0 0-.031.071v-.073l-.041.045c0 .03-.056.04-.066 0l.041-.03.056-.04H12.7l.046-.045c-.066 0-.066 0-.107.106l-.056-.025.051-.045c0-.05-.036-.035-.076 0a.214.214 0 0 1 0-.055V19.4l.061-.035-.031.03.056-.071-.071-.035-.056.091v-.03a.11.11 0 0 1 .046-.086.3.3 0 0 0 .041-.04l-.036-.05h.061c0-.03.036-.086 0-.086s-.046-.03-.066-.045h-.031v.035c.056 0 0 .081 0 .116a.083.083 0 0 1-.031.081l-.041.055h-.05a.112.112 0 0 1 .025-.066.206.206 0 0 0 .036-.055c-.041.025-.071.086-.112.071s0-.05.031-.131l.031.076a.333.333 0 0 0 .056-.081c0-.045-.031-.04-.071-.025l-.046.04c0 .03-.046.055-.066.05a.137.137 0 0 1-.036-.04v-.04l-.092.061.051-.116c0-.061-.178.025-.143-.1-.066.061-.082 0-.117 0s.025-.035.061-.035 0-.04-.066 0 .1-.141-.036-.055l.025-.071c-.071.035 0-.03 0-.055h-.168v-.045l-.031.03a.727.727 0 0 0-.056-.126c0-.03-.087-.03-.076-.086l.092-.091h.041a.133.133 0 0 1 .046.025l-.031-.066s.061 0 .066-.055h.051c0-.071.046-.086.1-.091s.031-.066.112-.071v-.055a1.151 1.151 0 0 1 .158-.156c.031-.03.071-.055.1-.086s.051-.03.046 0 0 .055.041.045 0-.061 0-.091V17.8h.041l.112-.086v.071h-.046c0 .071.031.071.071.086a.473.473 0 0 1 .076.066c.041.035.056.1.107.121s.051.086.071.126.046 0 .056.025 0 .045 0 .071l.031-.05s.051.03 0 .1l.041-.055v.025a.058.058 0 0 0 .046.055l.056.04s.031.025.031.045 0 .03.066 0 0 .066.066.071.036.025.056.035a.216.216 0 0 1 .087.081.313.313 0 0 0 .087.111 1.129 1.129 0 0 0 .168.141c.041 0 .056.076.082.111a.341.341 0 0 1 .061.05c.015.02 0 .035.031 0l-.051.055.071-.05-.046.076h.143v.04L14 19.2c.036 0 .036 0 .025.045l.046-.03-.056.086.025.03a.935.935 0 0 1 .036.111h.036a.264.264 0 0 0 0 .061l.041-.071v.071s.076 0 .056.04c.036-.025.056 0 .071 0s.051.045.076.071a.248.248 0 0 1 .061.066v.091l.066.035h.082a.733.733 0 0 1 0 .106c.071 0 .087 0 .076.045s0 .04.031.035.092 0 .071.076h.015v.045h.142s-.025.03-.046.05h.046v.045l.1-.061-.041.061h.051l-.051.04c.061 0 .071 0 .031.071l.076-.061-.036.066c.031 0 .1-.05.061.03h.076v.03c-.031.045-.025.055 0 .035s.056 0 .041.03 0 .045.025.066a.052.052 0 0 0 .025 0h.066a.546.546 0 0 1 .117.1.772.772 0 0 1 .041.1.041.041 0 0 0 .041.025c.061 0 .071.05.066.111.046 0 .1 0 .1.03a.206.206 0 0 0 .036.076h.041l.025.081h.061l.066.076-.056.035h.082c0 .055.046.045.076.066s.122 0 .1.111h.031c.031 0 .061 0 .076.04a.53.53 0 0 1 .031.1.58.58 0 0 0-.1.076h.082l-.036.076.087-.086h.076l-.046.035.117-.04a.124.124 0 0 1 0 .141l.1-.055v.156l.051-.04-.036.055.092.035-.031.03.112.04-.073.111h.047v-.061c.051 0 0 .076-.025.121h.025l-.051.066.107-.091a.209.209 0 0 1 .056.035.063.063 0 0 0 .082.05c.051-.01 0 0 0 .035l.041-.055.051.035-.071.035c-.025.076.056 0 .087 0l-.056.106h.138l-.046.055h.071v-.045c.041 0 .041 0 .046.04l-.076.04h.066l.056-.061.071.126h.076l-.066.071h.092l-.036.061a.206.206 0 0 1-.025.045.341.341 0 0 0 .357.287.29.29 0 0 1 .041-.04l-.056.081.071-.071a.135.135 0 0 1 0 .066.357.357 0 0 1-.046.086c.046-.035.076-.055.076 0s.031.025.046.035a.143.143 0 0 0 .046.035h.092l-.071.061.092-.061v.035l.1.066c-.046.066-.036.106 0 .136l.046-.04.087.091h.066c0 .055.051.03.066.05a.893.893 0 0 0 .082.111l.036.03a.409.409 0 0 0 0 .111h.051l-.031.03.061.035v.03c-.036 0-.071.045-.082.076a.065.065 0 0 1 0 .035l-.005.02a.461.461 0 0 0-.087.086l-.046.04c0-.035 0-.04-.076 0h.056c-.1.05-.087.116-.138.182h-.031l.046-.071c-.025 0-.071.061-.071.076a.1.1 0 0 0 0 .066c-.051.04-.076.035-.1-.045a.619.619 0 0 0-.041.061l-.051.045h.061zm-6.033-5.925l-.046.061s.057-.021.047-.061zm0 .086c-.061 0-.061 0-.056-.025v-.04l-.056.066c.066 0 0 .066 0 .081zm.714-.716v-.04l-.025.035zm-.673.852l.041-.081v-.035c0-.035.036-.045.061-.071l-.092.04a.539.539 0 0 0-.061.05l.051-.04-.041.071h.051s-.02.066-.01.081zm.3-.227l.046-.045-.051.04zm.138.1zm-.286.222c.046-.045.046-.061 0-.055l-.031-.061h-.025v.071h-.05v.071l.061-.081zm.347-.308zm-.117.2c-.031 0-.056.055-.082.081l-.056-.025-.082.091.056-.03v.066c.107-.076.184-.156.163-.166zm-.127.287V18.9c-.061.061-.056.1 0 .1zm.082-.035v-.058h.051v-.06a.82.82 0 0 0-.1.111v.045zm.041.03h-.036v.03zm.046 0l.046-.035zm-.092.121zm.158-.086c-.031-.025-.066 0-.107.05s.051.035.107-.045zm.046.066a.2.2 0 0 0-.127.03l.061.03zm.041 0a.346.346 0 0 0 .025-.066h-.041zm.082-.045v-.04zm.143-.086zm-.041.292zm.184.131l-.066.035v.025h.046s-.009-.022.019-.062zm.082-.061l-.025-.025h.031zm-.122.182l.066-.076-.061.081zm.1 0zm0 .2zm.617-.363a.429.429 0 0 0-.046.071zm-.337.64v-.045l-.061.035zm.138.106l-.076.081c.041-.035.041-.035.051-.081zm.892-.706h-.066a.113.113 0 0 0 .041 0zm-.03 1.131l-.056.045zm0 .071l.025-.061-.087.061zm.418-.4v-.045c-.056.061-.025.055 0 .061zm-.178.464zm-.056.156v-.025.034s.005.02.005.015zm.224-.076h.061v-.03zm-.082.066h.025zm-.372.287l-.092.081a.179.179 0 0 0 .1-.066zm.1.061v-.061l-.087.035.082.04zm.15-.129h-.092l-.056.121zm.7-.7l-.056.061c.056.02.082-.01.066-.045zm-.719.822zm-.071.116v-.05l-.056.076zm.28-.055l-.061-.091c-.031.081-.005.116.076.091zm-.184.166zm.092-.081v-.038zm.153.091v-.069l.056-.03h-.036l-.127.146a.143.143 0 0 1 .046-.035zm.581-.56l-.031.035zm.28 0v-.05l-.056.03zm0 .081l-.046-.045v.076zm-.826.877l.051-.1c-.056.071-.061.081-.036.1zm.194-.1l.046-.066h-.036v.04l-.036-.025c-.031.081.036.05.036.055zm.209-.192zm.122.076c.046-.061.046-.1 0-.091a.569.569 0 0 0-.107.1l.092-.05zm-.229.242l-.051.045zm.4-.161zm-.229.192h.051v-.03h-.051zm-.087.136l.056-.066zm0 .05v-.05l-.031.05zm.841-.736a.031.031 0 0 0 .036 0l.036-.045zm-.7.751l-.071.081zm.265-.242l.071-.126-.158.106zm-.28.4v-.1l-.066.045.036.055zm.852-.63v.03zm-.265.348l-.046-.04-.071.071zm.158.1l-.041.025zm0 .091l.031-.045-.071.05zm-.1.287l-.025-.025zm-.122.267l-.061.035zm.133-.055v-.04l-.031.03zm.291-.136l.056-.03h-.031zm-.061.126l-.025-.025c-.031.055-.031.055.02.025zm-.051.212l-.046.03zm.112-.055l.036-.061-.061.076zm.337-.237zm-.255.338v-.061l-.056.1v-.025.045a.385.385 0 0 0 .051-.055zm.1 0v-.035.04zm.036.333v-.04h-.03v.035zm.031.04v-.035c0-.01 0 0-.031 0v.04zm.133-.086c0-.04 0-.04-.051 0zm.127.131zm.194.086l-.061.045zm.561-.5V22.8zm-.041.111v-.061l-.056.03zm-.367.686v-.04h-.025v.03zm.092-.035a.858.858 0 0 0 0-.121l-.06.071c.041 0 .046.045 0 .106s.056-.01.056-.04zm.025.05l-.076.066c.056-.005.071-.02.071-.045zm.025.247l-.046-.03v.038c0 .01 0 0 .025 0l.015.005zm.51-.212h.025zm-.245.182l-.031-.025v.025a.038.038 0 0 1-.036.035.093.093 0 0 1-.051 0h.046zm.036.071l-.051-.02-.051.076zm-.153.156l.046-.055h-.034zm.979-.59l.051-.071-.046.071zm-.785.817l-.066.061zm.51-.267l.051.05.025-.121zm-.031.035v.071zm.347-.348v-.1l-.112.126zm-.4.464h-.068a.361.361 0 0 1-.061 0l-.031.055h.066l-.041.071c.041-.04.122-.045.143-.106zm.071-.04h.036v-.03h-.041zm-.071.151v-.066l-.1.081z" class="cls-1" data-name="Path 1407" transform="translate(-.024)"/>
        <path id="Path_1410" d="M23.761 28.85l-.041.025z" class="cls-1" data-name="Path 1410" transform="translate(-6.328 -5.536)"/>
        <path id="Path_1412" d="M13.16 20.316v-.036z" class="cls-1" data-name="Path 1412" transform="translate(-.784 -1.259)"/>
        <path id="Path_1414" d="M12.19 19.781v-.031z" class="cls-1" data-name="Path 1414" transform="translate(-.309 -1)"/>
        <path id="Path_1415" d="M22.34 29.605v-.025a.056.056 0 0 1 0 .025z" class="cls-1" data-name="Path 1415" transform="translate(-5.609 -5.894)"/>
        <path id="Path_1416" d="M15.975 23.27a.046.046 0 0 1 0 .025h-.025s.025-.02.025-.025z" class="cls-1" data-name="Path 1416" transform="translate(-2.151 -2.756)"/>
        <path id="Path_1418" d="M22.705 29.51z" class="cls-1" data-name="Path 1418" transform="translate(-5.786 -5.859)"/>
        <path id="Path_1419" d="M12.47 19.585v-.025z" class="cls-1" data-name="Path 1419" transform="translate(-.446 -.907)"/>
        <path id="Path_1422" d="M20.55 27.681l.046-.031z" class="cls-1" data-name="Path 1422" transform="translate(-4.678 -4.926)"/>
        <path id="Path_1423" d="M14.926 22.755c.041.031.041.036 0 .076h-.076l.056-.1z" class="cls-1" data-name="Path 1423" transform="translate(-1.612 -2.488)"/>
        <path id="Path_1424" d="M23 31.1l.061.031v.046C23 31.182 23 31.166 23 31.1z" class="cls-1" data-name="Path 1424" transform="translate(-5.954 -6.639)"/>
        <path id="Path_1425" d="M24.056 30.9v-.036h-.046c.041-.046.076-.087.1-.051l-.066.076z" class="cls-1" data-name="Path 1425" transform="translate(-6.481 -6.493)"/>
        <path id="Path_1426" d="M23.13 31.334c.082-.071.036.025.071 0-.071.082-.056.016-.071 0z" class="cls-1" data-name="Path 1426" transform="translate(-6.022 -6.74)"/>
        <path id="Path_1427" d="M23.617 31.441c-.061.056-.092.071-.107.036l.056-.031.046-.046s-.071.066.005.041z" class="cls-1" data-name="Path 1427" transform="translate(-6.221 -6.786)"/>
        <path id="Path_1428" d="M20.85 29.126l.107-.036v.025l-.107.046z" class="cls-1" data-name="Path 1428" transform="translate(-4.836 -5.654)"/>
        <path id="Path_1429" d="M14.78 22.941v-.061h.041s.005.005-.041.061z" class="cls-1" data-name="Path 1429" transform="translate(-1.578 -2.562)"/>
        <path id="Path_1430" d="M15.07 23.2c0-.025 0-.036.036-.071l-.046.071z" class="cls-1" data-name="Path 1430" transform="translate(-1.715 -2.686)"/>
        <path id="Path_1431" d="M11.56 19.7h.04c.005 0 0 0 0 .041z" class="cls-1" data-name="Path 1431" transform="translate(0 -.975)"/>
        <path id="Path_1432" d="M22.306 30.37v.03l-.066.066z" class="cls-1" data-name="Path 1432" transform="translate(-5.558 -6.281)"/>
        <path id="Path_1433" d="M14.356 22.561l-.046-.031.036.036z" class="cls-1" data-name="Path 1433" transform="translate(-1.348 -2.389)"/>
        <path id="Path_1434" d="M16.09 24.14h.036v.051-.031z" class="cls-1" data-name="Path 1434" transform="translate(-2.22 -3.187)"/>
        <path id="Path_1435" d="M22.871 27.24l-.036.051h-.025l.041-.051z" class="cls-1" data-name="Path 1435" transform="translate(-5.855 -4.723)"/>
        <path id="Path_1436" d="M14.25 22.05h.05l-.036.031v-.041z" class="cls-1" data-name="Path 1436" transform="translate(-1.318 -2.146)"/>
        <path id="Path_1437" d="M14.831 22.68l-.061.061c.01-.051.01-.051.061-.061z" class="cls-1" data-name="Path 1437" transform="translate(-1.573 -2.463)"/>
        <path id="Path_1438" d="M21.641 29.861h-.051v-.031h.051z" class="cls-1" data-name="Path 1438" transform="translate(-5.22 -6.016)"/>
        <path id="Path_1439" d="M15.982 24.156c-.025 0-.025 0 0-.056z" class="cls-1" data-name="Path 1439" transform="translate(-2.157 -3.167)"/>
        <path id="Path_1440" d="M21.45 29.655v.036-.041z" class="cls-1" data-name="Path 1440" transform="translate(-5.146 -5.928)"/>
        <path id="Path_1441" d="M22 30.13l-.036.046-.031-.031z" class="cls-1" data-name="Path 1441" transform="translate(-5.397 -6.163)"/>
        <path id="Path_1442" d="M19.871 28.081l-.031-.031h.051v.05z" class="cls-1" data-name="Path 1442" transform="translate(-4.309 -5.125)"/>
        <path id="Path_1444" d="M25.215 29.87v.036c0 .005 0 0-.025 0z" class="cls-1" data-name="Path 1444" transform="translate(-7.086 -6.036)"/>
        <path id="Path_1445" d="M24.9 30.245h-.03v-.025h.03z" class="cls-1" data-name="Path 1445" transform="translate(-6.926 -6.207)"/>
        <path id="Path_1447" d="M16.251 24.28l-.031.041.025-.041z" class="cls-1" data-name="Path 1447" transform="translate(-2.284 -3.256)"/>
        <path id="Path_1448" d="M22.2 30.381l.031-.051-.036.051z" class="cls-1" data-name="Path 1448" transform="translate(-5.532 -6.261)"/>
        <path id="Path_1449" d="M17.68 25.9v-.04z" class="cls-1" data-name="Path 1449" transform="translate(-3.184 -4.039)"/>
        <path id="Path_1450" d="M19.8 28v.036z" class="cls-1" data-name="Path 1450" transform="translate(-4.287 -5.1)"/>
        <path id="Path_1451" d="M24.52 30.5l.046-.051-.041.056z" class="cls-1" data-name="Path 1451" transform="translate(-6.744 -6.32)"/>
        <path id="Path_1452" d="M20.28 28.575v-.025z" class="cls-1" data-name="Path 1452" transform="translate(-4.537 -5.372)"/>
        <path id="Path_1453" d="M19.9 28.11v.041l.041-.036z" class="cls-1" data-name="Path 1453" transform="translate(-4.34 -5.154)"/>
        <path id="Path_1454" d="M20.88 28.971l.031-.031-.025.036z" class="cls-1" data-name="Path 1454" transform="translate(-4.85 -5.58)"/>
    </g>
</svg>
