<svg xmlns="http://www.w3.org/2000/svg" width="20" height="31.707" viewBox="0 0 20 31.707">
    <defs>
        <style>
            .cls-1{fill:#05276c}
        </style>
    </defs>
    <g id="question_mark-24" data-name="question mark-24" transform="translate(-14.05 -8.78)">
        <path id="Path_4810" d="M21.827 32.68l-.31.186.114-.186c-.186 0-.217-.128-.228-.245l-.114.167v-.079c0-.049.124-.1 0-.137s0-.059 0-.1a.736.736 0 0 1 .072-.245l-.124-.177.155-.128c-.1 0-.062-.108-.083-.177s.062-.137.114-.2c-.124-.049-.134-.069-.072-.137-.114-.088 0-.137 0-.206s-.114-.069-.093-.157a1.872 1.872 0 0 0 .072-.422.208.208 0 0 1 .165-.216l-.165-.069a1.238 1.238 0 0 0-.052-.442l-.041-.108c.114-.079.093-.177.093-.275V29h-.093c.165-.088.083-.167.062-.255a.973.973 0 0 1 0-.245v-.412c0-.157 0-.236-.093-.245a.424.424 0 0 1-.083-.157h.165l.052-.275h.06a2.456 2.456 0 0 0 .1.442l.072-.049.072.128a.5.5 0 0 0 0-.108.568.568 0 0 0 0-.108.574.574 0 0 0-.383-.491c-.155-.01-.052 0-.083-.059v.157a2.912 2.912 0 0 0 .083-.432v-.285l.093-.442-.124-.324a1.391 1.391 0 0 0 .083-.245.277.277 0 0 0-.1-.294v-.108a2.044 2.044 0 0 1 .238.049c.2 0 .352.049.486.049h.517a.711.711 0 0 1 .228.059v-.08l.424.118c0-.128.1-.137.4-.079a.729.729 0 0 0 .321 0c.269-.088.321-.088.4.108.124-.128.1-.177.238-.157a1.411 1.411 0 0 0 .29 0c.093 0 0 0 .062-.049a.194.194 0 0 1 .238 0c.083.059.124 0 .186.049l.093.1.165-.059h-.393c-.134 0 0-.049.2-.059h.238v-.118a2.7 2.7 0 0 0 .486 0q-.2.049-.414.079v.226c.145 0 .155-.137.217-.2l.165.079v-.1l.083.088c.072-.049 0-.137-.083-.285l.238-.137v.167c.186 0 .186 0 .186-.088h-.1c0-.069-.093-.137 0-.137s.114-.059.176-.059a.5.5 0 0 1 .176.069c.062-.167.186-.226.4-.108l-.1-.059h.126l.248-.079v-.088.255l.072-.059v-.049c0-.236 0-.226.093-.363l.165.059v-.108h.1c.021 0 .052-.069.093-.079a.347.347 0 0 0 .145-.128 2.828 2.828 0 0 0 .455-.3c0-.186 0-.236.176-.2v-.177l.083.1v-.177l.165.186-.083-.108h.062L28.8 23.3l.124-.1a.773.773 0 0 1 .134-.079s.124 0 .114-.059a.219.219 0 0 1 .176-.206v-.079c0-.01.093 0 .124-.059a.419.419 0 0 0 .052-.128l.165.108h.072v.069h.072c0-.088-.1-.147-.259-.167s0-.049.176 0l-.093-.079.155-.226.093.088-.114-.147c.062 0 .134 0 .093-.1s0-.118.165-.128v.167s.134.088.124 0l-.1-.108h.083a.753.753 0 0 1 .052-.334l-.124-.088.155-.059-.052-.157.134-.059.114.069-.062-.137h-.083l.093-.079V21.1h.093c-.083 0-.083-.059-.052-.1l.124-.167c0-.059.114-.059.2 0a1.323 1.323 0 0 0 .238.128c0-.118-.248-.137-.248-.265s-.134-.167-.238-.265a.523.523 0 0 0 .186 0 .657.657 0 0 0 .238-.108c.062-.069.124-.059.207 0l.052-.147c-.052 0-.093.059-.145.059a.861.861 0 0 1-.228 0l-.062.128a.63.63 0 0 1-.093-.157h.062a.748.748 0 0 1 .155-.079l.207-.069-.4-.1h.2v-.275l.228.108c0-.059.217-.079.083-.186v-.059l-.279-.059-.1-.118h.083a.532.532 0 0 0-.072-.186h.052v-.049c0-.049-.093-.108 0-.167h-.114a.513.513 0 0 0 0-.177h.1l-.2-.079.145-.049.269.275v-.128h.052v-.285l-.176-.049h.1l-.248-.118.114-.3h.155c-.114-.049.083-.059 0-.1a.6.6 0 0 1-.186 0 .082.082 0 0 1-.062-.049c.083-.157-.062-.069-.124-.059h-.145v-.304h-.207a1.216 1.216 0 0 1 0-.2c0-.039.072-.118 0-.177l-.114-.049.1-.049h-.155l.259-.108v-.1l-.114.137-.145-.108h-.093v-.118h.134c-.124 0-.238-.059-.186-.177h.155c0-.128-.114 0-.165 0s.186-.137 0-.186v.09a.742.742 0 0 1-.124-.128.214.214 0 0 0-.052-.167H29.8l.145-.108-.2-.049.1-.059v-.108h-.124v-.069h-.083V15.6l-.228-.177.052-.167-.124.079.052-.177c-.145 0-.186-.118-.093-.294l-.165.108.052-.324H29.1a1.807 1.807 0 0 0 0-.236h-.176s.052 0 .052.069a.233.233 0 0 1 0 .088 1.849 1.849 0 0 1-.217-.177v-.147c0-.059-.186.147-.176 0h-.072a1.36 1.36 0 0 0 0-.206l-.083.157v-.137h.1l-.165.059.155-.167-.259.079.1-.059h-.079l-.124-.147c0-.108 0-.147-.217-.137l.269-.088v-.049h-.186c-.062 0-.083.1-.124.157 0-.118-.093-.186-.238-.147s-.062-.1-.1-.147l-.052.1.062-.137h-.114l.1-.1a.764.764 0 0 0 0-.137c-.124 0 0-.1 0-.177h-.124v.118l-.072-.059-.155.216-.1-.088c.052-.059.072-.108 0-.157l-.093.118c0-.118 0-.206-.083-.226h-.062c0 .118-.134.118-.165.216l.083-.216-.145.167c-.052-.069-.093-.137-.155-.206l-.093.108v-.236c-.176.118-.259 0-.372 0l-.072.118V12.7l-.207.088.072-.128-.1.108v-.108l-.062.128c-.1 0-.093-.255-.238-.226l.052.1h-.093l-.134-.294h-.052l.062.167H25l.062.137h.321v-.137h-.155v-.088l-.176-.5v-.088c-.052.059-.083.186-.155 0l-.134.088h-.093v.069a.96.96 0 0 0-.145-.069h-.29l-.093-.128v.118l-.217.108v-.1s-.083 0 0 .079l-.134.059h-.1v-.123c-.062 0-.062.245-.155 0l-.114.167v.128h-.248v-.1.145c-.083 0-.2-.137-.269 0l-.145-.157v-.206h-.083l-.124.285h-.062c-.062 0-.052.069-.093.118h-.052v.088c0-.1-.093-.2-.145-.334l-.083.167c-.093-.265-.165 0-.259-.079v.157c.062 0 .124 0 .093-.1l.114.079v.108c.072 0 .1-.157.207 0a.45.45 0 0 1-.362.108v.01a2.309 2.309 0 0 1-.083-.285l-.279.118.114.147v.118a1.679 1.679 0 0 0-.1-.186.146.146 0 0 0-.083-.049l-.186-.069.176.236a.4.4 0 0 1-.248.128c-.072 0-.176 0-.124.147s-.062 0-.093 0a1.089 1.089 0 0 0-.176 0l.093.157h-.2v.049c0 .079 0 .088-.114 0 0 .088 0 .147-.114.108s-.052 0-.083 0l.083.1h-.145v.069l-.269.157v.069l-.114-.049v.108h-.072c0 .128 0 .128-.134 0 0 .137-.1.206-.186.167s0 .088-.052.128a3.5 3.5 0 0 1-.238.3.147.147 0 0 0-.1.049l-.083-.2-.114.1-.114-.079.052.088h-.093v.13h.259v.059h-.248l.259.069h-.124c0 .1 0 .128-.165.069l.1.186-.134-.069v.118h-.1l.093.118h-.093l-.124.1.083.069h-.186l.062.137h-.145v.059a.836.836 0 0 1-.1.137s-.062.088 0 .118 0 .118-.134.108h.052l-.124.265c-.093 0-.186.118-.176.167s.062.049 0 .088v-.1a1.243 1.243 0 0 1-.186.157h.165c0 .108-.176.157-.279.236l.072-.059c.062.049 0 .049-.072.157a1.312 1.312 0 0 0-.145.186h-.072l.176.069h-.1l.062.177-.145.206.134.088h-.2s.083.128-.114.118l.145.059h-.093c.248.1-.072.1 0 .177l.134-.049c0 .108 0 .108-.228.1.093.059.207.1.124.186s0 .049 0 .049l-.1.079c.124 0-.083.206.176.147l-.114.226h-.114s.165.059 0 .108 0 .049 0 .079v.128h-.062c.062 0 .165.059 0 .118 0 .059 0 .069-.072.069l.062.088h.1c-.062.069.052.147-.124.186s-.062.118 0 .137a.145.145 0 0 1 .083.177.121.121 0 0 0 0 .059h.021c-.052 0-.072.069 0 .118s.145.1-.052.157h.145s0 .1-.052.128-.134 0-.207 0v-.1h-.083l-.114.137-.424-.177c-.062.167-.062.177.145.167h.121a.708.708 0 0 0-.145 0h-.8a.468.468 0 0 1-.165 0h-.134c-.093 0-.186.079-.248 0s0 0-.062 0l-.383.088-.1-.236.217-.069c-.072-.059-.072-.059-.238 0l-.182-.469-.114.059v-.118c0-.01.083-.1 0-.177a.867.867 0 0 1 0-.1l.228.088.062-.137-.155-.059a.466.466 0 0 0-.145-.1.816.816 0 0 1-.186-.059h.269c.052-.128-.083-.108-.165-.147l.114-.088a2.509 2.509 0 0 1-.1-.265l.186.069c0-.118-.165-.236 0-.314l-.1-.206h.072c-.072-.079-.238-.059-.217-.206a.345.345 0 0 1 0-.147c.052-.1.114-.186 0-.3h.186v.107h.207v-.137c.114-.049.093-.216 0-.353h-.176l.145-.245h.114v-.1h.093v-.226c-.165-.216.114-.157.186-.245-.217-.088 0-.255-.124-.393h.228c-.072-.147.124-.285-.062-.452H15l-.05-.249h.165a1.053 1.053 0 0 0-.083-.147c0-.049-.134-.079 0-.167l.114.118v-.167l.083.088.1-.1c-.062 0-.176 0-.093-.128s-.093-.108-.083-.137a1.555 1.555 0 0 1 .186-.334l-.062-.147.341.059v-.2c0-.059.093-.069.176-.128a.2.2 0 0 1 0-.079c0-.088 0-.216.165-.177a.216.216 0 0 0 .165-.079l.1-.128-.083-.069h.217V12.7H16.2c0-.137.248 0 .269-.216l-.1.059.114-.265h.083v-.2l.1.069.062-.1-.072-.157.052.108a.478.478 0 0 0 .279-.442c0-.059.2 0 .114-.167a4.707 4.707 0 0 1 .538-.088l-.145-.2.393-.079v-.132h.155l-.052-.09h.259l-.176-.118.114-.147.1.1.093-.137s.134.108.1 0l.165.108v-.256h.393l-.083-.186-.207.128c0-.069 0-.1.062-.137a2.288 2.288 0 0 0 .4-.255c0 .079 0 .128.155.059v.157l-.186-.079a1.421 1.421 0 0 0 .1.294c0 .049.093.118.176 0s.155-.069.279-.1l-.176-.088v-.059l-.134-.226c.186 0 .29.206.455.088V9.8a2.238 2.238 0 0 1 .786-.344h.155v.049l.507-.236V9.2a.25.25 0 0 0-.124 0l-.145.079a1.057 1.057 0 0 1 .176-.2h.134a.8.8 0 0 1 .062.186l.155-.147h-.165c.072-.079.134-.157.207-.226l.1.2-.072.059.186.079h.321l-.262-.106.1-.108c.134-.079.1.079.165.128s.165-.206.124-.363c.165 0 .124.285.352.245l-.1-.128h.352c.083-.069.124-.059.176.128h.259l-.072-.069.052.265h.083l.072-.167.124.147.238-.147h.134l-.145.059c0 .079 0 .128.124.088a2.878 2.878 0 0 0 .455-.069c.155-.069.1-.069.165-.108h.186c0 .079-.134.177 0 .226l.238-.236.062.059-.228.2h.217l.093-.236c.176.128-.114.186 0 .294l.2-.079h.424v.057l.1-.147v.059l-.217-.137c.1 0 .228.059.238-.108h.155a.111.111 0 0 1 .083.186c-.062.088 0 .167.083.206a.375.375 0 0 0 .217.069l.145.049h-.145c.072.049.114.108.145.108a.26.26 0 0 0 .155-.1.191.191 0 0 0-.062-.128l.093-.1.072.177.062-.069-.072.206.083.079.052-.1c0 .079 0 .108.114.108a.868.868 0 0 1 .259.118h.083c.021 0 .176-.1.259.059s.228.1.341.157l.186.079h.072a5.322 5.322 0 0 1 .61.344 1.487 1.487 0 0 1 .248-.157.2.2 0 0 1 .145.069.319.319 0 0 0-.093.069v.1l.052-.079v-.088h.114v.128l.114-.069c0 .1 0 .137.145.128h-.1l.1.128.114-.128v.216l.124-.079a.242.242 0 0 1 .114-.059v.118a1.987 1.987 0 0 1 .217.137v.079a.632.632 0 0 0 .186 0c.093 0 .134 0 .124.1s.072.069.114.088h.2l-.052.079.124.3.186-.088-.124.186c.155-.108.248 0 .372.1h-.186c.114.118.124.128.238.049a.076.076 0 0 1 .062 0l-.052.069c.134 0 .217 0 .248.128h-.083v.151h.072l.259.157c0 .1 0 .118.145.108v.275l.31.1-.165.157a3.2 3.2 0 0 1 .176.373h.31l-.114.128h.072l-.114.118c.165 0 .186 0 .217-.186v.069l.072.069-.093.137.093-.059c.331.157 0 .255-.062.393h.083l.093-.059v.069c0 .01.124.137.176.226s.1.157 0 .255h.1a4.4 4.4 0 0 1 .145.638h-.124l.269.108v-.108c0 .137-.124.285.062.393l-.1.079.145.137h-.155l-.072.206.269-.059.1.177-.186.079c.062 0 .2 0 .145.108h.1l-.093.373c.072 0 .062.137.165.059s0 0 0 .079a.237.237 0 0 1-.062.079l-.1-.069.114.2-.207-.049c0 .167.134.118.207.137l.145.049v.1l-.114-.079c0 .088.176.128 0 .2 0 .069.228.059.1.206s.176.069 0 .147v.314h.041c-.093.245-.083.285.114.373l-.124.088a1.454 1.454 0 0 0-.1.128l.124.059v.167c0 .039 0 .167-.093.186l.1.167h-.062l.114.137c-.072 0-.155.079-.155-.059h-.1a1 1 0 0 1-.062.186c.072.059.083.059.186-.1a2.628 2.628 0 0 1 .062.275l-.114-.069c0 .108 0 .147.114.157s.062 0 .093.049l-.083.137.093.069h-.145l.145.059-.114.147a1.227 1.227 0 0 1-.145.177h.062l.083.088h-.179a.276.276 0 0 1-.093.373l.1.1-.145.108.188.064-.124.069-.2-.108c0 .059-.124.118 0 .157s0 0 0 .059h-.046l-.134.1h.2a1.91 1.91 0 0 1-.114.255.932.932 0 0 1 0-.186l-.041.412v.137h.228c-.155.059-.279.118-.465.177l.176.079-.083.157.124.137-.238-.1-.052.285v.059l.114.108s-.072 0-.083.049a.773.773 0 0 0 0 .118c0 .157 0 .167-.3.137l.217.255-.228-.049v.147H32.6v.069l.062.3-.331-.108v.088l.176.128V24h-.248c.052.118.093.137.2.069 0 .2-.1.245-.29.157v.206l-.134-.167c-.134 0-.145.079 0 .177s0 .069 0 .1l-.165-.147.145.147a.238.238 0 0 1-.143.171.26.26 0 0 1-.229-.014c0 .079 0 .137-.093.108l.052.147-.176.157v-.186h-.155l.083.236-.2.137v.147c-.083 0-.165-.118-.165.059s-.052.147-.186.059a.37.37 0 0 0-.207 0 .457.457 0 0 0 0 .137s.083.079 0 .088v.216h-.052l-.3.157v.128l-.238-.128.072.1h-.052c-.134 0-.134 0-.114.088h-.186l.062.137-.165-.1a1.429 1.429 0 0 1-.2.147l-.155-.128a.321.321 0 0 0 .062.1l.155.118c-.145.108-.279.206-.4.314v-.059l-.2.059-.155-.2c0 .069-.134.157.052.186v.128l-.217-.118.114.216-.083-.128v.186l-.1-.128-.083.128a.487.487 0 0 0-.424.177l-.124-.059v.314-.186l-.217.079h.165c-.093.079-.124.2-.279.186l-.083-.079a1.293 1.293 0 0 1-.155.177h-.114l-.207.059-.052-.226-.372-.01v.2l-.072-.108c0 .108 0 .108.176.294H26.4a2.046 2.046 0 0 0-.114-.206l-.217.167h.269v.049l-.279-.049v.069l-.2.079-.124-.118h.145c-.134-.128-.269-.118-.352 0s-.062.2-.124.294v-.088c0-.069 0-.079-.093 0a.25.25 0 0 1-.124 0l-.134.118v-.157l-.114.137-.062-.069-.093.2v-.255h-.176v.01a1.021 1.021 0 0 1 .062.186V28.3v.177l-.093-.108.052.069.062.049a.854.854 0 0 0-.176-.108l-.176-.157s.145.118 0 .069l.2.108-.114-.049.124.069h.031l-.238-.049h-.052s-.124.079 0 .118 0 .079.072.137l.145-.1c.145.079 0 .079-.062.128h.165l-.186.088.124.059-.165.079.083.1c-.165-.059-.072.069-.1.118h.176l.052.137-.248.01a.5.5 0 0 0 0 .3.551.551 0 0 1 0 .314.931.931 0 0 1 0 .118h.124l-.124.157.145-.059.052.079-.372.206h.259l.1-.186h.052l.052.216h-.2l.228.157c-.165 0-.207.069-.217.2l.124-.079v.069s-.269 0-.31.167l-.052-.137c0 .049-.062.079 0 .088s.072.108.124.108a.276.276 0 0 0 .207-.079V31c0 .049.062.079 0 .128a.15.15 0 0 0 0 .137l.124-.069.052.206-.176-.059.165.118c-.124 0-.1.128-.083.226h.1c0 .088 0 .1-.2.1l.248.069-.217.079.165.069h-.207l.228.1-.238.088.228.186h-.589l.114-.186h-.083v-.157c-.155 0-.176.079-.114.186a.271.271 0 0 1 0 .157h-.124a.4.4 0 0 1 0-.069c0-.059-.145-.1-.228-.147v.118c-.062 0-.124.088-.2 0h-.052a.512.512 0 0 1-.165 0s-.052 0-.1-.088h.176a.354.354 0 0 0-.114-.069.25.25 0 0 0-.145 0 .927.927 0 0 0-.2.1v.334h-.321c0-.059-.114-.177.052-.236v.059l.124-.079-.114-.079c-.165.069-.3.2-.238.363l-.207-.088-.099.203h-.114a1.346 1.346 0 0 0-.114-.422l.124-.079c-.2 0-.228 0-.2.118s.062.088-.062.1-.072.137-.093.186zM22 32.4v.069h.072zm2.41 0h-.05l.093.1h.062zm-8.343-11.969c.062.128.062.128.176.049zm-.527-.1h-.052v.169h.062zm.321-.118c-.207 0-.217.049-.093.157zm-.889 0a.065.065 0 0 0 0 .049c0 .1 0 .079-.1.088v.088h.1a.513.513 0 0 0 .155.088s.052 0 .083-.079l-.176-.1a.2.2 0 0 0 0-.079.074.074 0 0 0-.062-.029zm-.228-.236h.29v.01zm1.241-.324l-.228.049h.186s.021.029.041-.02zm.145-.334l.238-.059c-.2-.029-.2-.029-.238.088zm-.465-.147H15.5v.206c.1 0 .2.137.341 0-.01-.049-.31.039-.176-.177zm.228-.088h-.072l.062-.059zm-.943-1.254h.083l-.1-.049zm-.548.079l.124-.079v-.049l-.134.059zm0 .275h.072l-.083-.137zm.765.069a.326.326 0 0 0 .155-.079s0-.088-.072-.1a.289.289 0 0 0-.3.079h.145s.062.128.083.128zm.569.108v-.177l-.083.088-.186-.059c-.01.177.083.206.279.177zm-.9 0h.1v-.049h-.093zm.672.344l-.114.157c.145 0 .186-.049.124-.137zm-.217-.108h-.145v-.088h-.331c.2 0 .248 0 .259.177a.1.1 0 0 0 .062.088h.145l-.114-.157zm.651 0h.158v-.059zm0 0l.052-.069H15.9zm.058-.07l.145-.128-.362-.059.238.157zm.858-.118h-.114c-.021 0 0 .049 0 .079l.114-.088zm-.217-.186l-.279.128h.186a.133.133 0 0 0 .09-.074.122.122 0 0 0-.007-.113zm-.3-.128s-.062 0-.052.049 0 0 .052.059.072 0 .062 0-.041-.137-.072-.167zm-.951-.128l-.362-.137v.3l.176-.088-.072-.069zm.889 0v.128c.176-.186.1-.216-.01-.265zm-.848-1.247h.2c-.052-.177-.093-.236-.207-.108zm-.207.913h.076l-.093-.147h-.062zm.62.137h-.155v.049h.165zm-.4-.186h-.052v.1h.062zm.61.049s-.052-.059-.083-.088v.177c.031-.088.093-.128.093-.2zm.269-.049l.114.079zm-.8-.265h-.263a.293.293 0 0 0 .259-.108zm1.3.108c-.052 0-.114 0-.114.049a.522.522 0 0 0 .072.128zm-1.313-.579a1.491 1.491 0 0 0 0 .216.561.561 0 0 0 .1.079c.041.02.072-.069.062-.088a2.323 2.323 0 0 0-.154-.207zm.641.206L16.067 17zm1.1.206h.149c-.062-.01-.145-.069-.145.029zm-1.882-.589v-.049l-.1.069v.049zm1.665.206l.114.059zm-.9-.216a.129.129 0 0 0-.083-.118.785.785 0 0 0-.155-.088l.186.118h-.2v.147l.527-.108a.468.468 0 0 0-.134 0 .378.378 0 0 0-.145.079zm.693-2.758c.155 0 .165-.079.259-.088a.187.187 0 0 0 0-.128.2.2 0 0 1-.145-.079v.147l-.1.088-.155-.049a.236.236 0 0 0 .146.106zm.4.324l-.052.108.1-.049zm.145.167h.1v-.049zm-.279-.432l-.062.245c.052 0 .134 0 .165-.059s-.096-.107-.096-.186zm.538.677l.072.1.062.069v-.088l-.134-.1zm-.879-.52l.145-.147h-.127a.417.417 0 0 0-.052.147zm.186.265h.114l-.145-.059s-.041.049-.01.059zm-.434.108c0-.128 0-.167-.165-.157zm.589.393v-.1zm-1.6-.255zm0 1.256l.1-.108.1.108v-.137c-.217-.088-.279-.049-.217.118zm1.51.6l-.165-.177h-.134zm.321-.108H17.1l.145.088v.049a.162.162 0 0 0 .052.226h.155a.78.78 0 0 1-.134-.206.439.439 0 0 1 0-.206zm-1.148-.51c-.145.147-.134.186 0 .245a.393.393 0 0 0 .004-.246zm-.114-.226a.847.847 0 0 0-.114.177.172.172 0 0 0 .083.128l.1-.275zm0-.177v.088h.052zm-.445-.206l-.083.177h.176a.69.69 0 0 0 0 .167l.186-.147zm0-.4l.124.069c.052-.157.124-.3.2-.481h-.29l.176.069s0 .108-.062.137l-.279.177-.052-.2c-.124.088-.217.147-.207.275l.279.079h-.083a.326.326 0 0 0 0 .108.226.226 0 0 0 .072.1l.145-.157-.1-.137.321.118-.2-.128zm2.068.766a.066.066 0 0 0 0 .059h.155s-.031-.088-.072-.059zm-.362-.373v.079h.062zm.434.049l-.083.069.1.079zm-.962-.52l-.114-.059h.124zm1.313.206c-.124.1-.207 0-.3-.1l.186.157a.14.14 0 0 0-.114.108.79.79 0 0 0 0 .157H18v-.159h.134v-.01l.083-.118zm.021-.1zm.072.069l.165.088c-.083-.157-.1-.157-.176-.157zm-.279-.6c0 .157-.176 0-.228.1v.079c.062-.118.165-.079.29 0zm-.465-.452l-.259-.069v.186c0 .039.114.059.165.079zm.207.147v.079h.165c0 .088.083.177.248.167a3.21 3.21 0 0 1-.269-.255c-.1-.137-.124-.088-.145-.029zm-.259-1.315l.155-.1-.124-.118zm-.228 0l.228.236-.072-.226zm1.086 1.345h-.155l.155.049zm-1.152-.981V13a.8.8 0 0 0-.165 0l.145.137zm.507.383l.114.088-.093-.1zm.651.412l-.134.01.2.1zm-1.169-.973s.1-.059.1-.079a.16.16 0 0 0-.083-.137c-.078-.059-.017.088-.017.216zm.414.118a.55.55 0 0 0 0 .137h.1zm1.386 1.2v-.108zm.155-.1l-.176-.108c.052.088.083.157.124.236zm-.579-.746h-.248l.155.137.1-.088zm-.31-.451l-.031-.02h.052zm-.2-.236l-.072.1H18zm-.3-.314h-.2a1.425 1.425 0 0 1 .093.177zm1.034-1.287l.134.108.1-.108c-.093-.147-.093-.147-.165-.039zm1.262 1.777a.173.173 0 0 1 .114.069L20 12.794a.337.337 0 0 0 .041.049zm-.8-.942h.114v-.049h-.124zm-.651-.393a.552.552 0 0 0 .134-.059v-.128l-.145.157zm.8.893l.165.059-.062-.128zm-.734-.618h.083l.124-.275s-.145 0-.145.059a.68.68 0 0 0 0 .245zm-.672.4v-.059l-.155.079.165.137zm.095.257l.217.186s0-.079-.052-.1-.031-.216-.124-.128zm.507.157h-.145v.177zm.879.8h-.2l.228.128zm-1.251-1.688l-.083.422h-.083c.155.1.2-.049.248-.128a.21.21 0 0 0-.082-.289zm1.448 1.551l-.083.059.114.088zm-.61-.717l-.083-.049h.083zm-.838-.874l.093.108.093-.088c-.031-.112-.052-.122-.186-.014zm1.465 1.213c0 .275 0 .275.1.344v-.177l.072.049c-.034-.088-.034-.216-.172-.216zm-.434-.844v-.059h-.1v.069zm.724.8v.167c.083-.059.083-.079.01-.128zm.455.059a.26.26 0 0 0-.2.025.237.237 0 0 0-.115.152.179.179 0 0 0 .114-.059c.052 0 .093-.069.155 0zm-.745-1.173l-.114-.088-.145.137zm.776-.118v-.079zm-.61-.579c.124.049.124.049.124-.118zm-.134.393c.186-.088.269-.2.134-.393l-.072-.108v.363c0 .069-.052.1-.052.137zm-.465-.353l.155.079v-.118zm.362.432v-.049h-.1zm1.034 1.384c-.155-.088-.155-.088-.134 0zm-.124-.275c-.052-.079-.1-.059-.165-.059zm-.62-1.129h-.062v.088h.072zm.848 1.089v.1zm0-.216l-.176-.147c.052.206.083.216.165.147zm-.538-1.119l-.093.059v.059l.083-.059zm.765 1.168h-.052v.1zm-.248-.707l-.093.1v.049zm-.341-.913a.125.125 0 0 0-.082.048.113.113 0 0 0-.021.089l.083.049zm.548.864l-.093-.147.072.147zm.477-1.185c.062.069.1.137.155.2v-.186a.112.112 0 0 0 0-.079h-.062zm0 .236h.17c-.083-.079-.155-.137-.186 0zm-.29-.55l.072.069s.052-.079 0-.088h-.082s-.01 0-.01.02zm-.414.186a2.549 2.549 0 0 1 .4 0v-.128l-.4.118zm.393.186c0 .079 0 .128.124.186v-.206s-.124-.01-.145.02zm-.817-.285h.134v-.059h-.072s.022.028-.064.058zm.228.128l-.072.147h.052zm.941 1.816l-.052.069zm-.61-1.5l-.248.049c0 .128.134 0 .2.079zm1.039 1.165l-.052.059h.052zm-.155-.422a.544.544 0 0 0-.186-.069.9.9 0 0 0-.207.049l-.01-.245h-.062a.932.932 0 0 0 0 .236.63.63 0 0 0 .093.157l.155.088-.072-.147h.176v.059zm.186-.079a.08.08 0 0 0-.072-.079.326.326 0 0 0-.134 0c0 .157.176.1.176.226h.072a.8.8 0 0 0-.052-.147zm-.29-.982l.1.108a3.234 3.234 0 0 1 .331-.088l-.1-.147a2.036 2.036 0 0 0-.217.186v-.128zm.62.893l-.186-.147v.216a.618.618 0 0 1 .176-.1zm-.093.236a.662.662 0 0 0 .072.147h.093zm-.114-.766H21.8c.072.108.1 0 .145-.029zm.538 1.4H22.4v-.1l-.259.079.124.079v.147a1.629 1.629 0 0 1 .217-.236zm-.114-.569a.475.475 0 0 0 0-.128.194.194 0 0 0-.072-.059.845.845 0 0 0-.072.1.931.931 0 0 0 0 .118c.176.128.186.128.207.1zm2.875-1.9h.124v-.147zm-.176-.2v.177h.062V9.5zm.052.344v.118h.052zm-.145.677v.049h.114v-.059zm-.321-.883l.114.049.248.049v-.115a.673.673 0 0 0-.186-.1zm-.093.353c.155-.069.155-.118 0-.245zm.145 1.139V10.9a.278.278 0 0 0-.124.088c-.021.049.01.108.114.108zm.207-.707v-.056a2.638 2.638 0 0 0-.269-.059.652.652 0 0 1 0 .137.635.635 0 0 1 .259-.049zm-.134-.54l-.072.177c.145-.079.145-.079.062-.206zm.176.255v-.1.108zm-.372-.4l.072-.1-.134-.069c0 .059-.062.137.052.137zm-.248.108l.062.088.072-.177s-.138.05-.138.09zm-.838.226v-.107a1.258 1.258 0 0 0 .165-.079v-.117l-.176.118c-.034.097-.065.176.005.186zm-.259.6v.049h.1zm-.147.735l.083.049V11.4l-.083-.059zm.052-.157zm.072-.216v-.177c-.186 0-.186 0-.186.137.114-.088.155-.029.186.039zm-.269-.412l.083.167.176-.069zm0-.736v-.117h-.269c.041.216.165.147.29.118zm-.155.932v.265l.228-.088c-.134-.079-.083-.2-.114-.294a.136.136 0 0 0-.093-.049.1.1 0 0 1-.062.079v-.1a.06.06 0 0 0-.062.059.8.8 0 0 0 0 .206l.093-.1zm-.093-.442l-.093-.108-.1.137zm0-.736c0-.049.207.1.186-.088-.062 0-.155-.039-.165.088zm-.259 0c0 .059 0 .118.114.059s0-.079.052-.118zm-.124.137l.124-.137h-.134zm.331 1.59v-.088zm.248.55h-.114a.252.252 0 0 0 0 .088v.137c.145-.147.145-.147.134-.2zm.114-.157h-.1c-.031 0 0 .128 0 .186l.1.059a.233.233 0 0 0 0-.069.346.346 0 0 0 .021-.167zm0-.442l-.114.147c-.114-.167.052-.186.072-.265a.566.566 0 0 0-.176 0s-.052 0-.052.069a1.343 1.343 0 0 0 .114.294l-.124.059c.052.079.1.108.155 0s0-.128.072-.137.072-.079.072-.157zm.165.707h.155l-.031-.079zm.124-.373l-.2-.177.062.186zm.2-.255l-.2-.079v.1l.259.2zm.124-.363l.176.236a.138.138 0 0 1 .093-.128.162.162 0 0 0 .062-.2 1.371 1.371 0 0 1-.062-.186h-.124l.062.108h-.097a1.5 1.5 0 0 1 .052.206c-.1-.049-.083-.245-.186-.255s0 .226-.052.324v-.177.334l.134-.049zm.4.265l-.165-.1-.072.079-.124.059.072.2zm.052.383c-.1-.059-.134 0-.134.1v.049zm.062-1.963v.049c.1-.334.1-.373-.165-.412l.093.265-.176-.069c-.176.137-.176.137-.093.206zm0 .52l.072-.128.124-.128-.165.088zm.1.088l-.062.049.062.079zm0 .667l.279-.206h-.29zm.217.452l-.124-.1c0 .157 0 .157.134.157zm.228-.157l-.228-.069c0 .118.093.118.145.147s.083-.049.114-.059zm.1 0v-.167zm.155.137v-.108l-.062.2zm.114-.314v-.2h.145c-.124.069-.114.069-.093.206.072-.088.145-.167.207-.255a.066.066 0 0 0 0 .061.072.072 0 0 0 .052.037c0-.079-.114-.059-.165-.079s-.238 0-.217-.186H24.8v.294c.114-.029.2.079.29.177zm.145.2c0-.177-.1-.108-.165-.069zm0 .422v-.049l-.083.049v.049zm.207-.294v-.186l-.155.157.165.049zm.062.108v-.111zm.641-1.826v.265l.165-.069zm-.269 1.247v.128h.056v-.128zm-.072 0l-.1-.049-.072.137.124.059zm.165.746c0-.059-.1-.1-.1-.128v-.08l-.134.177a.336.336 0 0 0 .238.02zm.7-1.433a.839.839 0 0 0 0 .128 1.4 1.4 0 0 0 .145-.108.215.215 0 0 0 0-.118.427.427 0 0 0-.145.088zm-.486 1.462zm.238-.393l.145-.069.052-.1V11.1h-.083v-.069h-.1l-.072-.069-.1.167a.876.876 0 0 1 .072.137c.01.1.01.137.1.069zm.145 0l-.207.079v.059c.072.039.155.079.207-.1zm.6-.334v.108h.052v-.108zm-.259-.314c0 .088 0 .206.083.206a.128.128 0 0 0 .108-.04.113.113 0 0 0 .026-.107c-.114.206-.124-.02-.217-.02zm.062.589a.393.393 0 0 0-.052-.2l-.217.128v.255l.1-.255c.093-.01.072.236.165.108zm0 .3zm-.124.452l-.093.118c.072.049.072.049.072-.079zm.062-.079h-.085v.049zm1.82-1l.134.1v-.128zm-.228-.255v-.02zm-.4-.177v.186h.052l.052-.177zm-.31.628v.128l.207.088.062-.069zm-.321-.2h-.046v.1a.4.4 0 0 0 .052-.1zm.383-.756a.708.708 0 0 0-.207 0v.137zm-.124.353l.145-.1c-.155-.069-.165.039-.165.137zm-.383 1.433a.508.508 0 0 1 .062-.294l-.124.157h.1l-.134.216s.062-.01.072-.039zm.331-.54l.093-.128H27.6zm-.228.363c.093.059.155.079.176-.1zm-.155.687l.052-.236c0 .049-.134 0-.114.137zm.3-.226v-.147l.072-.069h-.062l-.186.206.2.059zm0 0h.083v-.118zm0 .167l-.093.088zm1.107-1.688c0-.186 0-.186-.114-.186l-.052.118zm-.972 1.7l-.114.167zm.072-.108l-.062-.088-.093.118zm.7-.991v-.2l-.176.177zm.093-.147v.137l.155-.128zm-.372.824zm.548-.687h-.269c0 .1.093.108.228 0zm.455-.422l-.052.147h.093v-.108zm-.052.147c-.052 0-.052 0-.093.167.114 0 .041-.108.052-.167zm-.248.373l-.1.1v.049l.1-.108zm-.434.736l-.093-.108c-.052.167-.052.167.1.108zm.114-.079v-.049h-.1v.056zm.217-.216l-.155-.1v.137zm.714-.923v-.206c-.168.132.008.132.008.211zm-1.241 1.835l-.155.147.093-.079-.052.128c.114-.069.134-.069.093-.216zm.693-.785v-.167h-.064v.186zm.62-.8l.062.128.134-.079-.155-.069zm-1.251 1.865l.072-.118h-.1zm1.034-1.05l-.072-.255v.079H29.2zm1.293.687v.069l.093-.118zm-.807-.579l.083.079zm-.238.088l.083.069-.072-.079zm.569-1.07v.1h.052v-.1zm-.414.775l-.145-.137.124.147zm-.3.5h-.114v.059zm-.362.52a.2.2 0 0 1 .052-.137.3.3 0 0 0 0-.088s-.072 0-.072.059a.71.71 0 0 0 .021.147zm-.31.491v-.108l.052.118zm1.034-.982h.155l-.145-.059zm-.941 1.1l.093-.147h-.062l-.083.157zm.972-.638l.124-.186-.207-.059v.049zm.424-.265h.052v-.136h-.062zm-.693.854h.165c-.052-.186-.114-.236-.217-.167a.1.1 0 0 1 .052.177zm0 0H29.5c.01.049.01.079.093.01zm-.414.432h-.114v.088zm.155 0v-.069l-.114.049zm1.034-.874h-.1l-.052-.137h.093l-.062-.049s-.093.079-.1.118a.932.932 0 0 0 0 .167c.1-.088.062 0 .1.059zm-.631.687V13.7h-.083v.059zm1.675-.255l.134.079c.031-.157.031-.157-.124-.108zm-.941-.236v.059l.186-.059v-.069zm-.62.775a.159.159 0 0 0 0-.1l-.1.157c.052-.049.1-.069.114-.088zm.072-.118l.093-.088-.083.079zm.145.137l-.052-.147-.072.147zm.724-.461l.072-.079h-.186a.755.755 0 0 0 0-.157l-.155.1s-.062-.118-.145 0l.093.108.052-.059v.02zm.052.255l.072-.186-.124-.069c-.072.088.031.128.062.226zm-.662.471v-.049l-.062-.147a.3.3 0 0 0 0 .137.277.277 0 0 1 .072.029zm-.29.285h-.021zm.455-.2l-.114-.118-.093.157zm.569-.088c.072-.147-.093-.128-.145-.177l-.083.108zm-.858.589v-.049h-.093zm.341-.2l.114-.079-.083-.079zm.962-.442l-.1-.079-.093.1zm.786-.206l-.072-.157v.049zm1.5 2.994v.2zm-1.531.059l-.083.069zm-.558 0h-.093v.059h.1s.01-.059.01-.069zm.176 0h-.062c-.062 0 0 0-.072.049zm1.8-.471v.118-.128zm-.848.128l.1.059zm-.786.108zm-.176-.4l-.052.069.062-.069zM33.006 16l-.114.1h.259a.439.439 0 0 0-.165-.137zm-.465-.137a.174.174 0 0 0-.114 0l-.072.079h.1c0 .079-.093.2.062.265a.933.933 0 0 0 .023-.34zm.072-.294c.207 0 0 .147 0 .236l.145-.049.062.088.124-.059c-.052-.059-.093-.088-.1-.128a.685.685 0 0 1 0-.147.441.441 0 0 0-.231.062zm-.331-.147v.178h.093a.931.931 0 0 0 0-.157zm-.134 0c0 .137-.083.147-.186.137.207.069.217.069.321 0h-.093v-.177zm-.879.412v-.088zm1.582-.815l-.124.1h.093l.061-.119zm-1.034.324c0-.049.062-.128-.052-.147l-.083.216c.1 0 .062.2.238.137l-.052-.088H32l.134-.059v-.059zm0-.52l-.279.344v.137l.186-.118h.3zm-1.179.609l-.165.128h.186zm.9-.265c0-.088 0-.088-.155-.049zm.807-.775l-.062.167.3.1a.172.172 0 0 0-.134-.245zm-1.148.353l.383.137v-.1l.207-.069v-.049zm-1.086.658l.207-.137H30.2a.2.2 0 0 0-.155.059v.059zm.527-.157l-.062-.1h-.052zm.207-.088v-.118h-.186zm.31-.108a.26.26 0 0 0 .062-.118h-.083l-.083.059zm.269 0l.228-.069-.072-.1zm-.879.815a.245.245 0 0 0 .044-.215.259.259 0 0 0-.147-.168c-.094.178.102.257.102.385zm.579 0c.062 0 .072-.069 0-.108l-.083-.079H30.8s.052.059.072.049.176.137.228.137zm0 0l-.114.059c.052.039.145.049.093-.059zm.434.059h.186l.041-.059-.114-.128zm-.724.3zm1.334-.265c0-.167 0-.167-.124-.236h.056s-.1.1-.093.108zm-.383.216h.062v-.167h-.083zm-.662.334c.052 0 .1 0 0-.069l-.145.049a.081.081 0 0 0-.072.059zm.228 0a.086.086 0 0 0 .062.079l.165-.039c-.279 0 0-.167-.186-.177 0-.059.217 0 .145-.157l-.238.137v-.122h-.145l.052.059h.031l-.093.088c.155.029.176.039.186.177zm-.134.2v-.137h-.052v.137zm.745-.167l-.124-.049v.049zm.3 0l.207-.088-.259-.049zm-1.034.432l.093-.186h-.176v.112l-.279.088c.134.029.259.108.372 0zm.869 0l.2-.1H32.2zm-.91.285c.083-.079.093-.1-.124-.2l-.1.079h.052zm-.155.314a.152.152 0 0 0 0-.255zm.052 0h-.054c-.083 0-.114.059-.062.108s0 .049 0 .079zm2.74-.1zm-.145 0H33.5c.145.2.145.2.145.079zm-.362.6h-.187v.088h.155zm-2.006 0v-.147c-.021.118-.041.167.01.216zm0 .177l.3-.167.083.1c0-.079 0-.128-.093-.118h-.238c-.062.147-.186.2-.083.255zm.641 0v-.216c-.145 0-.072.118-.124.157zm1.034.2h.186a1.128 1.128 0 0 0 0-.177h-.248a1.881 1.881 0 0 1 .072.285zm-1.81.186h.083l-.124-.128h-.072zm.341.275l.134-.128a.3.3 0 0 0 .083-.079v-.059h-.052l-.1.167h-.114a1.51 1.51 0 0 0 0 .216.245.245 0 0 1 .114-.01zm1.489.108c0 .108.124 0 .2 0s.052 0 .093-.069-.114 0-.145 0a.437.437 0 0 1-.083-.1h.124l-.083-.039c0 .088-.072.147-.093.206a.205.205 0 0 0 0 .108zm-.693.118l-.083-.128a.687.687 0 0 0-.062.088.676.676 0 0 0 .155.147zm-.372.569l-.155-.079v.069zm1.955.147c-.072 0-.072 0 0 .108zm-.652-.1v.108h.062zm-.29.039l.165.128c.042-.127.021-.127-.165-.127zm-.165-.265l-.238-.1c.062.1.176.049.238.079zm.476.255h.1l.062.167c0-.137.114-.177.217-.255zm-.714-.167l-.2.069v.049l.259.059.1.1.072-.177h-.242v-.049zm-.331.128v-.1h-.052v.1zm-.29 0l.052-.088-.145-.088c-.134.088.114.079.093.157zm-.517-.177l.093.157c.083-.088 0-.128-.062-.167zm-.228.2a.066.066 0 0 0 0-.059v-.079c0-.03-.052-.088-.145-.088v.236zm1.686.344c0 .108 0 .108.176.088zm-1.1 0c0-.059.134-.108 0-.186a.4.4 0 0 1 0 .157zm1.2.285l-.134-.059v.049zm.683.137c0-.108 0-.108-.217 0zm-.869.079c.165.049.083-.1.145-.137-.124-.039-.2 0-.145.108zm.7.226v-.108zm-.569 0h-.248l.072.108zm-.5-.137l-.072.137h.062l.062-.147zm-1.241-.226l.145-.069-.279-.069c-.031.039.031.069.134.088zm0 .177v-.069s.083-.069 0-.108v.049h-.072a.321.321 0 0 0-.062.1zm1.034.314h.052v-.118h-.041zm0 .353c.134-.059.134-.059 0-.167zM31 20.961h.207l-.165-.059zm1.52.4l.093.137v-.2h-.052l-.2.108.1.088v-.069zm.155.245h-.01zm-1.1-.363h.165c-.162-.066-.162-.066-.162.002zm.631.236h-.052zm-1.5 2.4h-.093a.205.205 0 0 0 0 .079h.062a.076.076 0 0 0-.021-.079zm.424-.491l-.207-.088a1.614 1.614 0 0 0 .2.147.343.343 0 0 1-.041-.059zm.155-.344h-.072l.083.118h.052zm1.034.147l.1.118.062-.049zm-.207-.461h-.062v.128zm.434.265h.176a.163.163 0 0 0-.176.039zm-1.52-1.04a.55.55 0 0 0 0 .137.109.109 0 0 1 .093.069v-.121a.426.426 0 0 0-.155-.236l-.093.186.072-.059zm.434.216h.165c-.052-.059-.124-.059-.165.039zm.755.275l-.083-.069zm-1.489-.982c.176.088.207 0 .31-.049l-.072-.1c-.062.118-.072.216-.238.186zm1.882.972l-.155.088.2.137zm-1.334-.383s0 .049.062.049h.186l-.062-.147zm-.569-.3l-.1-.147a.141.141 0 0 0-.083 0v.049zm-.155.186l-.01-.186h-.165zm.889.51l.093-.118h.207l-.072-.108a.269.269 0 0 1-.341 0 1.125 1.125 0 0 1 .072.108c.021.039 0 .079.041.147zm-.982-.275h.083v-.186h-.093l-.093.059zm-.186-.079h-.161c.134.147.134.059.165.029zm.9.687c-.062 0-.124 0-.145.049a.317.317 0 0 0 0 .137zm-.755-.255c.134-.079 0-.147-.052-.216s-.062.1.052.245zm.238.275l.134-.1v-.069c-.248.1-.248.1-.134.2zm-.558-.069h.165l-.186-.226zm.321.294a.147.147 0 0 0 .1-.049l-.176-.059a.212.212 0 0 0 .072.069zm.321.353h.124l-.083-.088-.072.088zm.931.707v.049h.083zm-.7-.461l.145.186-.155-.167zm-1.375-.717l.2.128-.083-.118h-.021a.568.568 0 0 0-.093-.049zm.321.452l.134.079-.124-.079zm.176.206l.331.2a.54.54 0 0 1 .062-.3h.134l.062-.088c-.062-.059-.1-.088-.155 0a.6.6 0 0 1-.124.157c-.1-.157-.134-.167-.228-.079l.114.069zm-.424-.2zm1.56 1.333l-.145-.147c-.103.069-.103.069.145.147zm-.672.569l-.269-.206v.157h.1c0 .147.114.079.165.118zm-.072-.167V25h-.052v.1zm.5.383l-.114-.079a.224.224 0 0 0 0 .1.669.669 0 0 0 .114-.029zm.176-.088v-.157l-.072.157zm.083-.314a1.129 1.129 0 0 1-.186.108l.072.049c.134.02.145-.059.114-.167zm-1.282-1.178a.075.075 0 0 1 0 .069l.124-.167c-.072-.02-.134-.02-.124.088zm-.641-.51h.134l-.1-.157zm.455.726c-.062-.079-.062-.128 0-.128a.37.37 0 0 0 .145 0c0-.137-.176 0-.238-.128h-.1s.041.226.2.245zm.589.736a.065.065 0 0 0 0 .049.1.1 0 0 0 .072 0v-.069zm-.145 0h.093v-.049zm-.827-.883v.147h.062l.072-.128zm-.445-.255l.072-.088zm.434.618l.1.108h.052l-.134-.137s-.031-.02-.021-.01zm-.91.982l-.1.1a1.132 1.132 0 0 0-.186.137v.069h.165v.108c.072-.049.1 0 .145.069s.072 0 .1 0 0 0 0-.079l-.114-.128v-.118l-.124.079c0-.108 0-.167.165-.157zm.145.294a.149.149 0 0 0 0 .059l.1-.049a.2.2 0 0 0-.093 0s-.01-.1-.01-.088zm-.4.2v.059h.124zm.062.186l.093.069zm.259.137c-.134 0-.134 0-.072.137zm.072.2c.165-.1 0-.167 0-.245h-.052zm.31.206H28.8v.049h.1zm.321.265h-.145c.083-.01.083-.01.145-.079zm-.393-.736l-.114.069.083.128zm.331.324h-.186l.093.118zm.176-.314l-.248-.167c.031.108.083.137.248.088zm0-.285l-.083-.147-.1.147zm0 .186h.062v-.1zm.455.236l-.217.049.228.118zm-.538-.775h-.07v.177zm.248-.324l-.145-.128-.1.108c.052.039.134-.01.248-.059zm.083.206v.088a.262.262 0 0 0-.01-.167zm.321.079h-.062v.167h.072zm-.776-.982H29v-.186l-.052.157c-.083 0-.072.069-.052.108h.31c.031 0-.083-.137-.083-.177zm.207.049c-.145 0-.114.059-.083.128zm-.321-.128h.207a1.352 1.352 0 0 0-.155-.1s-.021-.049-.062 0zm-.393-.432l.083.069-.093-.069zm-.093.3a.1.1 0 0 0 .093-.069.326.326 0 0 0 0-.118l-.155-.167zm.362.559v.069a.065.065 0 0 0 .072 0v-.069c0-.069.145 0 .207-.059a.446.446 0 0 0-.124 0c-.062-.147-.062-.01-.165-.01zm-.507-.51h.072v-.05H28.4zm.248.452v.118l.238.128v-.049zm-.072 0l-.155-.108c.062.039.062.039.145-.02zm-.455-.216l.083.069-.083-.059zm.372.54h.106l-.1-.108zm.114.54h.134v.137h.207l-.145-.226.248-.069h-.124l-.238.186-.083-.1zm-.548-.53h.207l-.124-.088zm-.176-.157l.093-.059zm-.2.383h.155c.228.216.383 0 .558-.059h-.134c-.041 0-.145-.079-.186.059s0 0 0 .069 0-.049-.062-.079L27.887 25a1.955 1.955 0 0 1-.217.137zm.569 2.032h-.134v.108c.072-.128.2-.118.124-.236zm-.714-1.178v-.049l-.093.079zm.414.147l-.114-.186h-.159l.083.118h-.073zm-.228-.334v-.255h-.072v.116zm.755.932l-.114-.108-.1.118h.217zm-.538-1.08l-.114.167h.2zm-.352-.51c0 .157 0 .177.207.275.01-.137-.021-.186-.207-.275zm-.414-.451v.07l.093-.088v-.049zm0 .245v-.088c0-.029 0 0-.072 0zm.217.7s0 .049-.083.108a1.656 1.656 0 0 0 .29 0c-.021-.147-.155-.079-.155-.108zm.052-.088l-.228-.1v.088h.207zm.093.766l-.083.108.124.079v-.167zm-.651-1.227l.093.1v.088h.134l-.052-.118h.176v-.066a1.362 1.362 0 0 1-.2 0v-.167a1.357 1.357 0 0 0-.207.108zm.91 2.248l.248-.069v-.069a.73.73 0 0 0-.207 0 .365.365 0 0 0-.093.088zm-2.068-.618v-.059a.37.37 0 0 1-.1 0v.059zm.321-.157l-.124.206h-.072v.265h.114c0-.088.093-.128.124-.2a1.883 1.883 0 0 0-.083-.3zm.062-.167l-.155-.236-.1.177zm.414.982c-.072-.137-.124-.088-.2 0zm-.558-1.649v-.177.137zm.5.982v-.059a.359.359 0 0 1-.145 0v.079zm.259.618h-.134v.059h.134zm-.155-.785H26.5l.052.059zm-.052-.52l.072.177zm.879 1.57c-.114 0-.114 0-.1.137a.669.669 0 0 0 .062-.216zm-.329-1.42v.147l-.062.049c.186.049.2 0 .176-.128-.124.029-.134-.059-.155-.128zm-.476-.864s0 .1.062.108.062 0 .114-.069l-.145-.059zm.631 1.7h-.093v.216h.068zm-.217-.54l-.072-.186c-.114.1-.114.1.031.128zm-.734-1.551s.052.059.083.088v-.2c-.1-.02-.134.01-.124.049zm.083.412l.093.2v-.137h.072l-.114-.353a.652.652 0 0 0 0 .137c0 .079 0 .118-.093.1zm0 0l-.145-.137c-.062.079-.041.1.093.079zm-.062.982s0 .118.083.157.072.137.134 0V26.4l-.1-.186c0 .186-.124.147-.165.216zm-.145-.638v-.186c-.145.108-.145.108-.052.167zm-.3-.245l.155.069-.062-.108zm.052.5v.059h.134zm-.2-.383l.114.049a.959.959 0 0 0-.124-.324zm-.134.216v.128c0 .02.062 0 .114.049v-.069zm-.093-.216zm-.072.363l.176-.118-.134-.059zm-.2-.285l.062-.186c-.124.108-.124.108-.062.206zm.279 2.022h.165l-.114-.059a.575.575 0 0 1-.052.079zm-.6-.677v.088h.052zm.362.824v-.13l-.1.118zm-.372-1.963h.083v-.059zm-.321-.432l.228-.157-.165-.079zm-.134 2.424l-.083-.118v.088l.062.059zm0-.157v-.088l-.083-.069v.137zm-.569-1.453l.155.186v-.157zm.776 0v.118zm-.145-.53l.072.069-.062-.088zm-.2.53zm.279 1.5v.069l-.062-.1v.059a.866.866 0 0 1 .124.167zm-.507-1.806h.083v-.137h-.084zm.217.893l.062.108a.354.354 0 0 0 0-.1zm-.579-.982l.248.275c0-.059.093-.088 0-.177a.391.391 0 0 0-.279-.1zm-.124-.275v-.128a.753.753 0 0 0-.424-.118c.04.121.32.102.433.249zm-.434.059l.372.186h.1c.031 0 0-.059-.072-.069l-.383-.177zm1.3 2.454l-.072-.1L24.34 28v.049l.083.108zm-.269-.393a1.062 1.062 0 0 0 .072.157l.072.079a.453.453 0 0 0-.145-.275zm-.672-.874c.124.118.207.236.321.236-.1-.137-.176-.265-.321-.275zm-.331-.8l-.093-.167h-.093l.093.157zm1.181 1.805V28l.124.177a.8.8 0 0 0-.124-.247zm-1.64-2.307l.145.128a2.161 2.161 0 0 1 .093-.3l-.248-.088c.021.088.134.206.021.265zm.5.883v.049l.155.059zm-.4-.363v.057h.155l-.052-.049zm-.176 2.208h.238c-.124-.108-.145-.118-.228 0zm1.83.069h-.021zm-.052 0zm-.807-.275s0 .079.155.118zM23 27.831v.118h.072a.419.419 0 0 0 0-.108zm.589 0h-.159l.279.167c-.186-.079-.083-.108-.114-.167zm-.765-.324l-.083-.167-.093.108zm1.241.471a.087.087 0 0 0-.072 0v.059l.1.059h.093l-.062-.069zm-.527-.334l-.114-.108zm-.228-.4l-.352-.265c0 .108.114.226.093.245s0 .137.083.236.052-.079.062-.118.093 0 .134-.049zm-.517-.137l-.1-.1.114.079s-.052.029-.052.02zm.093-.069l-.165-.147.176.147zm.3-.167c-.145 0 0 .108.114.236l-.2-.177.186.167v.059c0 .059.052 0 .083 0s-.062-.079-.228-.285zm.29.383c.072.069.2.157.207.137s0-.059 0-.1zm1.034 1.04l-.165-.128h-.052l.145.137zm-.279-.324l-.155-.1.228.236a.45.45 0 0 1-.093-.137zm-1.954-1.963a1.254 1.254 0 0 0 .207.137l-.093-.167h-.072s-.041.039-.041.069zm.445.53l.238.1a.755.755 0 0 1 0-.157.593.593 0 0 0-.186-.049 1.08 1.08 0 0 0-.072.147zm.155.285v-.069c.083 0 .083 0 0-.118s0 .069-.2-.049h-.052a1.267 1.267 0 0 0 .228.275zm-.2-.157l-.238-.206c.08.204.161.283.236.204zm-.341 0v.216h.124v-.344l-.186-.118v.069l-.062.088zm-.589-.255l.083.128v-.118l-.186-.226zm0 .314c.093-.049 0-.186 0-.314h-.2zm.434.275l.124.206.186.363c.083-.069.052-.167-.062-.294.072 0 .165.147.207.079s-.114-.118-.1-.137-.072-.147-.145-.186l-.114-.02v-.255c0-.1-.124-.059-.134 0s-.186.049-.269.128a.541.541 0 0 0 0 .186.261.261 0 0 1 .145.049c.062.049.1.128.155.049a.365.365 0 0 0 .021-.118zm.517.824h.186l-.155-.157.176.069-.1-.186-.114.1v.051zm-.062.147h.2v-.05h-.114l-.238-.186a.2.2 0 0 0-.124 0zm.062.2c.124-.1-.052-.128-.062-.2-.093.137.062.177.072.245zm-1.107.059c-.052-.059-.052-.245-.2-.137zm.1.059h.114v-.069l-.114.049zm1.458 1.07zm-.2.069h-.119v.049zm-.052-.559h.145v-.108l-.279.128h.248zm1.1-.118l-.207.079h-.134v.059a.2.2 0 0 0 .093 0H24l.1-.128zm-1.365 0v.049h.1zm-.414 0l-.238-.088-.062.1h.3zm.724-.206a.9.9 0 0 0-.217.108l.186.088.2-.118c-.052.01-.114-.049-.155.01zm.579-.1c.062.1.155.088.248 0h-.248zm-1.034 0c.062 0 .124.108.186.108s0-.118.1-.157h-.233zm-.207 0a.066.066 0 0 0 0 .059l.052.177.068-.18h-.062zm-.248 0l-.072.079h.052v-.083zm-.445.177l.093-.118h-.06l-.083.128zm.124.216h.114l-.072-.118a.247.247 0 0 0 .083-.059v-.049a.065.065 0 0 0-.062 0l-.2.079zm-.228.059h.1v-.049h-.1a.906.906 0 0 1 .021.118zm.259.157c.083-.1.093-.167 0-.206s-.021.2.021.275zm-.207.079l.052-.069h-.052v.088zm.651 0c.134 0 .093-.069.083-.118zm.838 0v.128h.279v-.2zm-.589 0l-.093.069h.058l.093-.069zm-.445.1zm-.434.255a.5.5 0 0 0 .093-.128c.072-.147-.124-.088-.155-.157h-.052l.052.265.083.147zm2.234.059l.2-.118h-.269zm-.259.167l-.114.118.114-.108zm-1.861.265c-.114-.088 0-.157 0-.226l.114-.147h-.062l-.228.216h-.2zm1.851.079s0-.069-.052-.069h-.155zm.486 0v-.177a.524.524 0 0 0-.176-.1l-.062.216h.1zm.207.451v.226h.124zm-.424-.324l.062-.1h-.1a1.577 1.577 0 0 1 .062.2zm-.91 0h-.072v.079h.052zm-1.189.069v-.088.108zm-.3.088h.134v-.059h-.134zm1.034-.059v.157l.124-.137v-.049zm-.465.177l.134-.108-.124.108zm1.417 0l.259-.157c-.186.108-.217.128-.186.294zm.352 0l-.093.147h.145v-.324h-.155v.137l-.124.059zm-.341.186h-.021a.633.633 0 0 0 .093.147zm.352.137l.072-.157c-.062.157-.062.157 0 .3zm-1.189.157l.062-.088-.072.079zm1.82.609c-.062.088-.052.137.072.137zm-.259-.059a.087.087 0 0 0 .062 0h-.062zm-.631-.167h-.114c.052.226.052.226.114.236zm-1.727-.108a.718.718 0 0 0 .165-.128v-.128c0 .157-.134.088-.228.128s.165 0 .083.1zm2.316.245l.269.02v-.216l-.1.049c0-.118-.114-.128-.29-.049h.124a3.06 3.06 0 0 1 .072.314zm-1.034-.177l.072.1.124-.059-.176-.059zm-.807.088zm-.31.206v-.285c-.1.049 0 .206-.186.157zm.651 0l.083-.069-.083.079zm-.724.128h.062l-.052-.108h-.052zm1.365 0l-.186-.108c.124.285.165.3.279.236zm0 .412l-.093.118h.321zm.538-.118l-.124.128h.145zm-1.4 0h.062v-.186zm.662 0l-.072.236H23c.2.108.31.049.145-.079z" class="cls-1" data-name="Path 4810"/>
        <path id="Path_4811" d="M24.06 33.18c0-.09 0-.16-.21-.13z" class="cls-1" data-name="Path 4811" transform="translate(.338 .832)"/>
        <path id="Path_4812" d="M23.5 30.19l-.05-.05h.06l.08.06z" class="cls-1" data-name="Path 4812" transform="translate(.323 .73)"/>
        <path id="Path_4813" d="M14.71 17.42a.17.17 0 0 1 0 .07h-.05z" class="cls-1" data-name="Path 4813" transform="translate(0 .296)"/>
        <path id="Path_4814" d="M17.1 17.33l.01.03h-.12l-.01-.03z" class="cls-1" data-name="Path 4814" transform="translate(0 .292)"/>
        <path id="Path_4816" d="M16.18 17.83l-.05.05z" class="cls-1" data-name="Path 4816" transform="translate(0 .309)"/>
        <path id="Path_4817" d="M30.41 24.45l-.06.05z" class="cls-1" data-name="Path 4817" transform="translate(.66 .536)"/>
        <path id="Path_4818" d="M28.93 13.05l-.01.02-.07-.07.01-.02z" class="cls-1" data-name="Path 4818" transform="translate(.507)"/>
        <path id="Path_4819" d="M18.07 13.78v-.03l.09.04-.01.04z" class="cls-1" data-name="Path 4819" transform="translate(.138)"/>
        <path id="Path_4820" d="M19.1 13.68v-.05z" class="cls-1" data-name="Path 4820" transform="translate(.172)"/>
        <path id="Path_4821" d="M23.18 31.73l.04.02-.06.07-.03-.03z" class="cls-1" data-name="Path 4821" transform="translate(.311 .785)"/>
        <path id="Path_4822" d="M15.56 18.75l-.02-.04.11-.02.01.04z" class="cls-1" data-name="Path 4822" transform="translate(0 .339)"/>
        <path id="Path_4823" d="M22.16 25.71s.09 0 .09.05h-.11z" class="cls-1" data-name="Path 4823" transform="translate(.278 .579)"/>
        <path id="Path_4824" d="M31.6 18.49v.02h-.11l.01-.03z" class="cls-1" data-name="Path 4824" transform="translate(.66 .331)"/>
        <path id="Path_4825" d="M19.77 12.49h-.06v-.05h.06a.12.12 0 0 1 0 .05z" class="cls-1" data-name="Path 4825" transform="translate(.194)"/>
        <path id="Path_4826" d="M31.06 21.19l-.06-.04z" class="cls-1" data-name="Path 4826" transform="translate(.66 .423)"/>
        <path id="Path_4827" d="M25.94 12.07l.01-.03.06.02-.02.04z" class="cls-1" data-name="Path 4827" transform="translate(.407)"/>
        <path id="Path_4828" d="M23.83 28.72h.03l.05.03h-.03z" class="cls-1" data-name="Path 4828" transform="translate(.335 .681)"/>
        <path id="Path_4830" d="M24.08 10.21l.02.03-.08.06-.02-.03z" class="cls-1" data-name="Path 4830" transform="translate(.341)"/>
        <path id="Path_4831" d="M17.64 14.77l-.04-.04.05-.04.03.03z" class="cls-1" data-name="Path 4831"/>
        <path id="Path_4832" d="M24 26.47l-.08.05v-.05z" class="cls-1" data-name="Path 4832" transform="translate(.338 .605)"/>
        <path id="Path_4833" d="M16.44 16.2l.04.01-.04.08-.03-.01z" class="cls-1" data-name="Path 4833" transform="translate(0 .254)"/>
        <path id="Path_4834" d="M30.92 17.13l-.04.01-.01-.09.03-.01z" class="cls-1" data-name="Path 4834" transform="translate(.66 .283)"/>
        <path id="Path_4835" d="M31.01 21.27l.03.02-.07.05-.02-.03z" class="cls-1" data-name="Path 4835" transform="translate(.66 .427)"/>
        <path id="Path_4836" d="M31.23 19.05l.02.02-.06.04-.03-.02z" class="cls-1" data-name="Path 4836" transform="translate(.66 .351)"/>
        <path id="Path_4837" d="M30.24 24.88l-.02-.02.06-.05.02.01z" class="cls-1" data-name="Path 4837" transform="translate(.66 .548)"/>
        <path id="Path_4838" d="M23.78 27.37h-.06l.08.05a.169.169 0 0 0-.02-.05z" class="cls-1" data-name="Path 4838" transform="translate(.331 .635)"/>
        <path id="Path_4839" d="M32 21.34v.06h-.06s.06-.04.06-.06z" class="cls-1" data-name="Path 4839" transform="translate(.66 .429)"/>
        <path id="Path_4840" d="M30.58 19.21v.08z" class="cls-1" data-name="Path 4840" transform="translate(.66 .357)"/>
        <path id="Path_4841" d="M21.81 28.14l-.04-.01v-.14l.03.01z" class="cls-1" data-name="Path 4841" transform="translate(.264 .659)"/>
        <path id="Path_4842" d="M25.72 27.25h.06s-.05.01-.06 0z" class="cls-1" data-name="Path 4842" transform="translate(.399 .63)"/>
        <path id="Path_4843" d="M15.24 15.94l.03-.03.09.06-.03.03z" class="cls-1" data-name="Path 4843" transform="translate(0 .244)"/>
        <path id="Path_4844" d="M31.88 20.68l-.03-.01.02-.07.04.01z" class="cls-1" data-name="Path 4844" transform="translate(.66 .404)"/>
        <path id="Path_4845" d="M25.18 9.67V9.6z" class="cls-1" data-name="Path 4845" transform="translate(.38)"/>
        <path id="Path_4847" d="M30.89 12.87h-.06z" class="cls-1" data-name="Path 4847" transform="translate(.66)"/>
        <path id="Path_4848" d="M32.67 16h-.05v-.07z" class="cls-1" data-name="Path 4848" transform="translate(.66 .245)"/>
        <path id="Path_4849" d="M28.62 11.45h.05s-.04.01-.05 0z" class="cls-1" data-name="Path 4849" transform="translate(.499)"/>
        <path id="Path_4850" d="M21.22 12.67l.11-.05h-.07l.13-.14.11.15h-.07l.08.11h-.18a.46.46 0 0 1-.16.07c-.09 0-.15 0-.2-.13h.09z" class="cls-1" data-name="Path 4850" transform="translate(.243)"/>
        <path id="Path_4851" d="M27.34 12.8h.11v.2h-.11l.06.11v-.06l-.06.07c-.18-.12-.1-.24 0-.32z" class="cls-1" data-name="Path 4851" transform="translate(.455)"/>
        <path id="Path_4852" d="M26.53 9.31l.12.14h.19v.05l-.16.1-.2-.23z" class="cls-1" data-name="Path 4852" transform="translate(.432)"/>
        <path id="Path_4853" d="M20.19 9.93l-.22.19.16-.17h-.08z" class="cls-1" data-name="Path 4853" transform="translate(.204)"/>
        <path id="Path_4854" d="M24 28.81h.25a1 1 0 0 0-.17 0z" class="cls-1" data-name="Path 4854" transform="translate(.344 .683)"/>
        <path id="Path_4855" d="M22.2 33.43a1.65 1.65 0 0 1-.07-.2h.09a.49.49 0 0 1 .05.16.169.169 0 0 0-.07.04z" class="cls-1" data-name="Path 4855" transform="translate(.278 .84)"/>
        <path id="Path_4856" d="M30.44 18.46l-.12-.11.05-.12c.16.05 0 .15.07.23z" class="cls-1" data-name="Path 4856" transform="translate(.66 .325)"/>
        <path id="Path_4857" d="M30.58 18.2h-.33v-.07l.31.05z" class="cls-1" data-name="Path 4857" transform="translate(.66 .32)"/>
        <path id="Path_4858" d="M27.22 9.72h.15l-.06-.09a.306.306 0 0 1 .08.1.158.158 0 0 1 0 .07l-.19-.08z" class="cls-1" data-name="Path 4858" transform="translate(.453)"/>
        <path id="Path_4859" d="M28.56 10.36h-.3c.11-.18.21-.05.3 0z" class="cls-1" data-name="Path 4859" transform="translate(.493)"/>
        <path id="Path_4860" d="M22.42 12.12a.38.38 0 0 1 0 .32.38.38 0 0 1 0-.32z" class="cls-1" data-name="Path 4860" transform="translate(.285)"/>
        <path id="Path_4861" d="M21.12 33.28l.09-.15.05.02-.06.16z" class="cls-1" data-name="Path 4861" transform="translate(.243 .836)"/>
        <path id="Path_4862" d="M24.1 30l.11-.15.07.12z" class="cls-1" data-name="Path 4862" transform="translate(.346 .723)"/>
        <path id="Path_4863" d="M19.63 10.41l-.24-.17a.23.23 0 0 1 .21.2z" class="cls-1" data-name="Path 4863" transform="translate(.185)"/>
        <path id="Path_4864" d="M24.3 30.32l-.2-.07a.86.86 0 0 1 .16 0 .17.17 0 0 1 .04.07z" class="cls-1" data-name="Path 4864" transform="translate(.347 .734)"/>
        <path id="Path_4865" d="M21.66 9.51h-.17v-.08a.318.318 0 0 1 .14.12z" class="cls-1" data-name="Path 4865" transform="translate(.256)"/>
        <path id="Path_4866" d="M29.64 21.94l.15.06-.14.07v-.13z" class="cls-1" data-name="Path 4866" transform="translate(.66 .451)"/>
        <path id="Path_4867" d="M23.9 11.95l.06.1-.01.04-.11-.07.06-.07z" class="cls-1" data-name="Path 4867" transform="translate(.336)"/>
        <path id="Path_4868" d="M32.45 23l.14-.19.08.09z" class="cls-1" data-name="Path 4868" transform="translate(.66 .482)"/>
        <path id="Path_4869" d="M30.72 19.51h-.26c.08-.09.18 0 .27 0z" class="cls-1" data-name="Path 4869" transform="translate(.66 .365)"/>
        <path id="Path_4870" d="M18.05 11.18c-.16-.18.1-.1.12-.16z" class="cls-1" data-name="Path 4870" transform="translate(.136)"/>
        <path id="Path_4871" d="M25.29 12.17l-.12.14v-.16z" class="cls-1" data-name="Path 4871" transform="translate(.382)"/>
        <path id="Path_4872" d="M17.37 11.94l-.13-.07.02-.05.15.05z" class="cls-1" data-name="Path 4872"/>
        <path id="Path_4873" d="M24.93 9.05l.09.12h-.11c-.02 0 0-.07 0-.1z" class="cls-1" data-name="Path 4873" transform="translate(.373)"/>
        <path id="Path_4874" d="M24.3 29.36l-.13.09-.03-.03.1-.11z" class="cls-1" data-name="Path 4874" transform="translate(.347 .704)"/>
        <path id="Path_4875" d="M25.24 28.42c.14 0 .1.08.08.16z" class="cls-1" data-name="Path 4875" transform="translate(.384 .674)"/>
        <path id="Path_4876" d="M27.77 10c-.1.1-.1.1-.14 0z" class="cls-1" data-name="Path 4876" transform="translate(.467)"/>
        <path id="Path_4877" d="M18.29 11l.08-.14h.05a.58.58 0 0 0-.1.12z" class="cls-1" data-name="Path 4877" transform="translate(.146)"/>
        <path id="Path_4878" d="M22.67 9.29l-.12-.07.02-.04.14.05z" class="cls-1" data-name="Path 4878" transform="translate(.292)"/>
        <path id="Path_4879" d="M19.2 10.83l-.12.04-.01-.04.12-.05z" class="cls-1" data-name="Path 4879" transform="translate(.172)"/>
        <path id="Path_4880" d="M27.89 10.11l-.1-.15c.15.04.15.04.1.15z" class="cls-1" data-name="Path 4880" transform="translate(.472)"/>
        <path id="Path_4881" d="M22.41 9.29l.06-.1.05.03-.07.1z" class="cls-1" data-name="Path 4881" transform="translate(.287)"/>
        <path id="Path_4882" d="M20.39 10.06l-.14-.06.13-.06z" class="cls-1" data-name="Path 4882" transform="translate(.213)"/>
        <path id="Path_4883" d="M28.94 27.1a.83.83 0 0 0 .15-.11l-.14.12z" class="cls-1" data-name="Path 4883" transform="translate(.512 .624)"/>
        <path id="Path_4884" d="M30.15 20.83l-.09.06-.04-.03.08-.07z" class="cls-1" data-name="Path 4884" transform="translate(.66 .411)"/>
        <path id="Path_4885" d="M14.69 15.68l.11-.09.03.03-.1.1z" class="cls-1" data-name="Path 4885" transform="translate(0 .233)"/>
        <path id="Path_4886" d="M25.13 9.18v.1h-.05v-.11z" class="cls-1" data-name="Path 4886" transform="translate(.377)"/>
        <path id="Path_4887" d="M21.46 28l-.09.08-.05-.24z" class="cls-1" data-name="Path 4887" transform="translate(.25 .656)"/>
        <path id="Path_4888" d="M23.81 33.34l-.08-.1h.14z" class="cls-1" data-name="Path 4888" transform="translate(.333 .837)"/>
        <path id="Path_4889" d="M27 12.66v.13c-.14 0-.14-.01 0-.13z" class="cls-1" data-name="Path 4889" transform="translate(.441)"/>
        <path id="Path_4890" d="M30.29 17.99l.08.06-.03.03-.1-.04z" class="cls-1" data-name="Path 4890" transform="translate(.66 .315)"/>
        <path id="Path_4891" d="M19.7 10.14l.14.04.02-.03-.15-.04z" class="cls-1" data-name="Path 4891" transform="translate(.194)"/>
        <path id="Path_4892" d="M23.91 9.09l-.14.02-.01-.05.14-.03z" class="cls-1" data-name="Path 4892" transform="translate(.334)"/>
        <path id="Path_4893" d="M24.36 28.67z" class="cls-1" data-name="Path 4893" transform="translate(.351 .679)"/>
        <path id="Path_4894" d="M24.18 30.06l.02.1-.05.01-.02-.1z" class="cls-1" data-name="Path 4894" transform="translate(.345 .729)"/>
        <path id="Path_4895" d="M24.16 29.57l-.05-.08.17.01v.02z" class="cls-1" data-name="Path 4895" transform="translate(.346 .709)"/>
        <path id="Path_4896" d="M22.71 33.29l-.01-.12h.04l.03.11z" class="cls-1" data-name="Path 4896" transform="translate(.296 .836)"/>
        <path id="Path_4897" d="M28.13 10.13l.13-.03.01.04-.13.03z" class="cls-1" data-name="Path 4897" transform="translate(.484)"/>
        <path id="Path_4898" d="M27.97 9.95l-.08-.08.04-.03.07.07z" class="cls-1" data-name="Path 4898" transform="translate(.475)"/>
        <path id="Path_4899" d="M32 23.8h.2c-.1.13-.14 0-.2 0z" class="cls-1" data-name="Path 4899" transform="translate(.66 .514)"/>
        <path id="Path_4900" d="M30.24 20.68l-.08.05-.03-.03.07-.05z" class="cls-1" data-name="Path 4900" transform="translate(.66 .406)"/>
        <path id="Path_4901" d="M30.46 19.4l-.17-.01.01-.03.16.04z" class="cls-1" data-name="Path 4901" transform="translate(.66 .362)"/>
        <path id="Path_4902" d="M29.64 21.94v-.12c.07.08.07.08 0 .12z" class="cls-1" data-name="Path 4902" transform="translate(.66 .447)"/>
        <path id="Path_4903" d="M30.31 20l-.06.11h-.05a.53.53 0 0 0 .06-.1z" class="cls-1" data-name="Path 4903" transform="translate(.66 .384)"/>
        <path id="Path_4904" d="M30.02 21.02l-.09.04-.03-.02.08-.05z" class="cls-1" data-name="Path 4904" transform="translate(.66 .418)"/>
        <path id="Path_4905" d="M28.89 14.48l.07.07-.05.04-.02-.11z" class="cls-1" data-name="Path 4905" transform="translate(.508)"/>
        <path id="Path_4906" d="M22.16 27.66c-.09-.14-.09-.14 0-.14z" class="cls-1" data-name="Path 4906" transform="translate(.275 .642)"/>
        <path id="Path_4907" d="M15.48 14.95l-.12.05-.01-.08.13.04z" class="cls-1" data-name="Path 4907" transform="translate(0 .21)"/>
        <path id="Path_4908" d="M27.37 25.48l-.05-.13h.05l-.01.12z" class="cls-1" data-name="Path 4908" transform="translate(.454 .568)"/>
        <path id="Path_4909" d="M26 11.1l.1.03-.07.14H26z" class="cls-1" data-name="Path 4909" transform="translate(.41)"/>
        <path id="Path_4910" d="M22.11 12.16l-.07.07v-.06h.09z" class="cls-1" data-name="Path 4910" transform="translate(.274)"/>
        <path id="Path_4911" d="M22.7 37.05H24a.8.8 0 0 1 .23 0h.43l.07.06h-.22a.63.63 0 0 0 .23 0l.12.13h-.16l.13.05a.61.61 0 0 1 .18 0h-.25c-.06 0 .07 0 .15.06h-.12l.08.09-.16-.06s.14.1-.05.07l.09.08h-.07c.07 0 .22.08.21.12s-.1 0 0 .1l-.17-.07-.2-.06v.05c-.1 0-.07 0 .06.11l.15.06h-.11l-.1-.05h-.09v.06c.16.14-.08 0-.13 0 .19.12.05.1.14.19l-.19-.11c.07.08-.06 0 .11.19h-.07l.07.12-.14-.09.08.09s.11.1.05.09l-.1-.1v.06l-.08-.08h-.05c.05 0 .13.1.08.09s.09.1.09.11a.13.13 0 0 1-.09 0l.08.11-.25-.21a.49.49 0 0 1 0 .1h-.09a.12.12 0 0 1 0 .05s.06.13-.07 0a.2.2 0 0 0-.08 0l.06.09-.12-.12v.06l.11.12s-.15-.14-.11 0v.24l-.07-.1.06.14v-.1c-.07 0-.1 0-.06.16s-.09-.08 0 .06l-.22-.22.09.22-.05-.01v.12l-.03-.12v.09l-.09-.1.08.18v.07l-.05-.14v.08l-.11-.18v.24l-.12-.18v.19h.06v.09c0-.01-.07 0-.11 0s0-.14-.05-.13v-.11l.05.15a2.19 2.19 0 0 0 0-.3c0-.06 0-.15-.06-.1s0 0-.06 0V39.26A2.535 2.535 0 0 0 23 39v.14c-.06.09-.14 0-.2 0h-.13v.08a.81.81 0 0 1-.06.13.22.22 0 0 1 0-.09v-.2l-.05.09v.08l-.08.16v-.35l-.03-.04v.27c-.05 0 0-.1 0-.16s-.08.15-.1.31v-.17l-.06-.1v-.24.09l-.1.2-.07.15v-.16l-.1.1v-.11a.5.5 0 0 1-.12 0 .59.59 0 0 0-.08.08v-.05c0-.08.11-.16.09-.21l-.15.2v-.06l.14-.17h-.06l-.13.22c0-.13.11-.17.14-.28l-.08.07h-.05l-.1.12h.05V39l-.12.09a.282.282 0 0 1 .07-.17.3.3 0 0 0 .09-.17c0-.03-.07 0-.14.07v-.06h.05v-.08l-.1.09-.05.1-.17.13.07-.14-.06.06.14-.17v-.07l-.07.09c0-.06.05-.08 0-.09s0 0 0-.06-.12.09-.06 0 0 0 0-.08h-.06a.88.88 0 0 1-.05-.15l-.23.13.09-.06.06-.06h-.08l-.07.07h-.09l.09-.08-.1.05q.12-.09 0-.06h.08v-.07l-.15.1.16-.13-.12.06-.1.05.1-.07v-.05h-.05l.1-.12-.18.06.21-.1c-.18.07-.18 0-.2 0h.01l.1-.06h-.17l.11-.09h.02l.06-.1h.03a.44.44 0 0 0-.27 0h.02c-.2-.06.12-.07.25-.1h-.18a.072.072 0 0 1-.07-.06c-.01-.06 0-.05.13-.06h-.1l.11-.16h.13l-.2-.07h-.06s.21 0 .09-.09h.12l-.1-.06h.26l-.26-.05v-.06h.2c-.06 0-.2-.05-.1-.06h.09c-.07 0 0 0-.13-.05h.07l.08.05-.06-.07.18.09a1.8 1.8 0 0 0-.17-.09l-.11-.05.09.05s-.12-.08 0-.05-.19-.08 0-.07v-.07h.12l-.15-.07c.12 0 .12 0 0-.12h.23l-.1-.07h.1l-.08-.09h.06L21 36.4c.06 0 .13.05.12.08L21 36h.06a.24.24 0 0 0-.16-.07v-.1l.09.07-.08-.09-.08-.07h.08l-.07-.07.11.07-.1-.09h.2l-.11-.1h.07l-.07-.08.13.11c-.05-.09 0-.12.07-.07l-.08-.1.11.06-.17-.07.09.05.15.16s.07 0 0-.08h.08l-.14-.11h.07v.08l.1.06v-.08l-.16-.16.3.23-.12-.15-.08-.14.15.21v-.1a.33.33 0 0 0 0-.06l-.07-.13h.05c0-.06 0-.06.15.12l-.09-.3.12.16v-.06l.07.09v-.06l-.05-.22.15.24-.09-.19.11.15a.177.177 0 0 0-.1-.17c-.05-.03 0-.08.13.09v-.17l.07.21c.05.06.05 0 0-.09a.13.13 0 0 1 0-.08l.07.21-.06-.19c0-.07.07 0 .14.12v-.14h.07v-.11h.07v-.09c0 .08 0 .19.06.06s0-.08.05.06 0 .09.07.13v-.35l.09.05v-.13l.06.24v-.18.12h.06v.3-.3l.14-.07h.05v.24c0-.06.05-.08 0-.18v.1-.25.15-.09c0 .08.08.09.12 0l-.05.17h.05v-.12s.08-.13.1-.07v.1a.39.39 0 0 1 .08-.1l-.08.23v.09l.07-.18v.12a1 1 0 0 0 .08-.33v.1l-.07.23.1-.09v-.12.07h.06v.26c0-.05.1-.16.16-.23v.14l.08-.07-.08.14.09-.09v.07l.12-.15-.14.22v.06c.05-.16.11-.16.17-.23l.38.28c-.05.1-.05.1 0 .09v-.13h.1l-.05.07c.08-.08.11-.07.13-.06s.05 0 .08 0-.06.09-.05.09h.08v.13h.05l-.06.18h-.08s.14 0 .08.05l.14-.12-.06.09.11-.05-.05.07.09-.07-.13.13.09-.06c.06 0 .1-.07.05 0s.08-.05.06 0a.6.6 0 0 1-.18.22l-.08.08.07-.06a.13.13 0 0 0 0 .05s-.08.08 0 0 0 0 .08 0l.11-.11c.13 0 0 0 0 .07l.14-.08-.14.12h.11l-.12.1h.08c-.15.06-.06.05-.07.07l.14-.09h.07l-.21.08a.072.072 0 0 0 .06.07c.06.01 0 .06 0 .1h.11l-.09.08.12-.06H25l-.33.18.25-.08.08-.05h.12l-.18.08h.22c-.14.05-.18.08-.17.12l.1-.06a.87.87 0 0 0-.27.12h.02l.2-.08h.11l.06.06c-.12 0-.1.06-.08.08h.1l-.18.06h.24l-.2.05h.22l-.24.05h-.34l.11-.05h-.56a.59.59 0 0 1-.19 0H22.7zm0 0zm2.3-.15zm-1.71.17zm.5 0zm-.32 0zm.85.07zm.19.07zm-1.22-.11h.05zm-.16 0zm.45.1h.15a2 2 0 0 0-.33-.06c.02.04.31.09.18.09zm-.22 0zm.89.45zm.49.15h.01zm0-.07h-.06l.07.06zm-.7-.24h-.08a1.36 1.36 0 0 0 .28.08h-.13zm-.53-.18h.12l.17.07a2.194 2.194 0 0 1-.3-.08zm.83.26zm-.63-.24h.11c-.14-.03-.17-.04-.12-.01zm.21.07h.43c-.19-.05-.24-.07-.24-.1h-.19l.1.06zm-.61-.16zm0 0h.04zm-.05 0h-.13l.33.12-.22-.08zm-.55-.18zm0 0l.22.08-.18-.06zm.26.11h-.03zm.87.33l.28.12v-.08h-.08zm-.79-.3h-.06c-.1-.08.01-.05.07-.01zm.88.58l-.16-.09a.32.32 0 0 0 .17.08zm.08-.15H24l.09.06h.06zm-.55-.24h.14l-.13-.05zm.37.18zm-.55-.24h.09zm-.23-.1zm.73.36l.23.11a.76.76 0 0 0-.22-.12zm-1.08-.53zm1.12.61l-.09-.06h-.05zm-.57-.32zm-.55-.29zm1.26.72zm-1.26-.72zm.64.38l.08.06.14.1-.17-.11.16.08-.05-.05-.41-.21.12.08zm.17.66c-.09-.12-.07-.06-.12-.11v.08l.1.13-.05-.1.11.13a.76.76 0 0 0-.03-.14zm-.3-.4zm-.13-.17l-.08-.1zm.29.4v-.09l-.07-.06a.553.553 0 0 0 .08.14zm-.49-.66l-.07-.08-.06-.07.1.13zm.64.77l.08.08a.11.11 0 0 0-.07-.12zm-.18-.24h-.06l.1.11zm.24.2a.731.731 0 0 0 .14.17 1.27 1.27 0 0 1-.13-.17zm-.46-.49v.05zm1.12 1l-.15-.1.15.12zM24 38l-.1-.09v.06c.1.08.18.09.1.03zm-1.29-.92l.16.12.1.06zm0 0zm.76.57c.08 0 .07 0-.09-.09zm.14.14h.05l-.09-.08zm0 0h.05zm.37.31l-.11-.1v-.05h-.11zm.05.15l-.09-.09v.1l.2.18a1.58 1.58 0 0 0-.13-.13l.17.07.07.11h.11l-.22-.18h.05l-.07-.08H24l.09.1-.27-.33.22.22zm-1.32-1.21zm.09.09zm-.09-.09zm.55.59l.09.08-.09-.09zm-.55-.59zm0 0zm0 0zm.12.17c-.05-.08.08.1.09.1l-.15-.19zm.36.52a1.43 1.43 0 0 1 .15.18.6.6 0 0 0-.06-.11l-.11-.15zm-.14-.21L23 37.4l-.17-.25.21.31c.03.11.02.09.01.07zm.46 1h-.05l.08.15zm.11.14c-.06-.12-.11-.2-.16-.29l.08.19zm-.84-1.47l.09.13-.08-.12zm.8 1.26v.08l.09.11-.1-.17zm-.34-.53l-.08-.12.07.12zm-.4-.63l-.11-.18zm.76 1.26l.07.14zm-.22-.31v-.08l-.06-.09zm-.67-1.16zm0 0zm.19.37l.1.16-.1-.18zm.23.48zm.13.28zm.19.39l.08.08-.07-.17zm-.21.45v-.1c-.01.1-.01.1 0 .05zm-.53-2zm.29 1.07V38v.09zm.25.64v.05zm-.37-1.12zm.31.87v.15a.506.506 0 0 0-.05-.22zm.17.05l-.09-.18zm-.09-.25l-.11-.25v.1c.07.05.11.15.13.15zm-.21-.39v-.03zm-.37-.86zm.68 1.73a2.19 2.19 0 0 0 0-.27c-.08-.16-.07-.07-.07 0a.57.57 0 0 0 .09.27zm-.68-1.73zm.24.64v.08zm.42 1.09l-.05-.13c.05.15.06.17.07.13zm-.65-1.7zm.3.91zm-.29-.93zm0 0zm.23 1v.06zm-.13-.26v.1zm.16.79v.06zm0-.28v.28-.19a.55.55 0 0 1 .03-.13zm.15.52l-.05-.14v.12zm-.12-.58v.09zm-.27-1.2zm0 0zm.21 1.08zm-.21-1.09zm0 0zm.17 1.18v-.07zm-.17-1.18zm.06.54zm.09 1zm-.1-1v.17zm-.09 1zm0-.23c-.01-.05-.01.02 0-.1zm0 .62v.07a.2.2 0 0 0 .01-.17zm.09 0l-.08-.11V39h.09zm-.06-.32a.86.86 0 0 0 0-.22v.2zm.14.55v-.07a.134.134 0 0 1 .01-.05zm-.05-.2v-.11zm-.1-2.01zm.06 1.42v-.1zM22.71 37zm0 .43v.12-.3.14zm0 0v.09-.28zm-.06 1.06v-.09h-.06v.17l.05-.11v.13zm0-1v-.01zm0-.2zm-.07.77c.07-.06.05-.06.04 0zm.09-1zm0 .09zm-.81 1.46v.09zm-.06.19l.07-.16zm.15-.32l.05-.11zm.33-.62v.06zm-.33.83v-.06l-.05.12v.09zm.16-.32a.41.41 0 0 0-.11.23zm.46-1.07l-.1.22v-.08a.71.71 0 0 0 .13-.15zm-.33.66a.15.15 0 0 1 0 .06l.06-.13zm-.21.49l.08-.15-.05.14zm.08-.24v.1zm-.11.39l-.05.09v.08c.05-.09.1-.16.05-.18zm.09-.1v-.08l-.08.15zm.2-.11v.09l-.05.05a.66.66 0 0 0 0 .11l.06-.08a.39.39 0 0 0 .02-.18zm.19-.55zm.18-.69zm0 .15zm-.05.19v.07c0-.09-.03.02 0-.08zm-.09.46v-.19.15zm-.18.71V38.89c.05-.26.02-.25 0-.24zm.23-.88l.06-.25a.575.575 0 0 1-.06.31v.1-.12zm-.08.45v.01zm-.18.71c-.04.06-.03.12 0-.01zm.05.06v-.09a.81.81 0 0 0 0 .11zm.05-.11l-.05.11zm.27-1.63v.1zm0-.2zm0 0zm0 .17v-.12a1.41 1.41 0 0 1-.05.24l.05-.3zm0-.17zm0 0zm0 0v.02zm-.1.34l.07-.24v.11l-.07.18-.06.19v-.12l.07-.2a2.671 2.671 0 0 0-.07.26l.09-.31v.13l.1-.32zm.08-.29v.04-.08zm0-.07zm-.6 1.54c-.15.31-.16.34-.13.41l.08-.27v.08a.3.3 0 0 0 .09-.18zm.19-.49l-.06.12v.04zm0-.09v-.08zm.26-.62l-.1.18zm.13-.34zm0 0v.07l.07-.15s-.02.13-.02.15zm0 0l-.07.15zm0 0zm-.1.19l-.1.18a1.43 1.43 0 0 0 .1-.19l-.14.23v.06c0 .06 0 0-.06.16l.13-.27zm.09-.16v.05zm0 0zm0 0l-.05.09zm0 0zm-1 1.46l.1-.16-.08.06zm.66-1l.07-.11zm0-.05l.08-.13zm.28-.43zm-.84 1.09l.07-.11-.09.1-.08.1zm.84-1.09zm-.16.2l-.06.08-.08.09v.11l.05-.05v.06l.11-.14.08-.11c.07-.07.1-.11.04-.04zm0 0l.08-.1a.831.831 0 0 1 .07.09zm-.35.36l.06-.08-.07.08zm-.12.18l.1-.13a.41.41 0 0 0-.14.13c.27-.12.16.01.19-.01zm.34-.42l-.11.13.13-.13.17-.2-.18.21c.08.05.24-.13.14-.02zm.2-.22c-.12.13-.12.13-.09.11zm.08-.09zm0 0zm-1.02.94l-.09.08zm0 .09zm.05.06l.11-.15-.13.12zm.52-.48l.1-.09-.07.06zm0 0l.08-.08zm-.6.59l.1-.05.08-.1zm.26-.26l-.11.08c-.03.07.03-.01.09-.08zm1-1l-.12.12.12-.12zm-.37.34l-.11.1zm.32-.29l-.12.11zm.05-.05zm0 0zm0 0zm0 0zm-1.24 1c-.12.11-.12.11-.07.1l.1-.09zm1.24-1zm0 0zm-.77.6l-.15.13a1.15 1.15 0 0 1 .19-.14zm-.14.11l.09-.09-.15.11zm.72-.56zm-.71.51h.09c.04-.05.04-.04-.15.05zm-.5.33l.12-.1-.11.1zm.12-.1l.16-.11a.46.46 0 0 0-.22.16zm.37-.26l.12-.07-.12.08zm.71-.49zm-.11.07zm-.25.16l.11-.08zm-1 .65l-.07.09c.06-.03-.01-.01.01-.04zm1.56-1zm-.58.36h.07l.13-.09zm-.86.54l.05-.06-.13.07zm1.44-.9zm-.8.45l-.13.11h.05zm-.38 0zm.17.08zm.2-.08zm-1 .61l.07-.06zm.75-.45zm.51-.28zm.56-.29l-.12.06h.08zm0 0zm-.77.36zm.77-.36zm-.48.2l-.21.09h.15zm-.45.17h-.08zm.93-.37h-.05c-.08.01 0-.01-.02-.01zm0 0zm0 0zm0 0zm-.78.27h-.06l.15-.06.1-.05zm.77-.27zm-1.3.28h-.06c-.15.01-.15.01-.01-.01zm.58 0l-.16.05zm.73-.23zm0 0zm0 0zm-.77.19h.09zm.1-.05l-.16.05h.06c.06-.09-.01-.09-.01-.11zm.67-.14zm0 0zm0 0zm-.46.07zm.46-.07zm0 0zm-.86.11zm-.76.06zm-.25-.74zm1.4.44h.01zm.47.13zm-.12 0zm-1.75-.43zm.79.2h-.03zm.75.19zm.06 0zm-1.31-.2zm.38.09h.09zm-.19 0zm.25.06h-.01zm.13 0a.81.81 0 0 1 .21 0h-.28zm.93.06zM20.92 37zm1 0zm-.26.06h-.02zm1.06 0zm-.67 0zm-1 .08h-.06s-.1-.03.01-.01zm1.15 0zm.55 0zm0 0zm-.06 0zm-.32 0zm-.24 0zm.62 0zm0 0zm0 0zm-.28 0zm.27 0zM21.9 37zm.42 0zm.39 0zm0 0zm0 0zm-.45 0zm-.26-.1h-.22l.23.06zm.73.15zm-.5-.13zm.5.13zm0 0zm0 0zm-1.94-.72zm.13.05l.16.06a.22.22 0 0 0-.19-.06zm.41 0l.17.08-.13-.07zm1.41.63zm0 0zm-.19-.01l.13.05zm-.92-.47l-.16-.08h.08l.14.07zm1.08.55zm0 0zm-1.06-.64a.62.62 0 0 0-.16-.1h-.09l.12.08h-.04l.07.07h.09s.02-.07.01-.08zm.57.33l.06.05zm.26.14l.12.09zM21 35.75zm.52.39zm.23.18l-.13-.11s-.06.02.08.11zm.13.14l.2.14a1.06 1.06 0 0 0-.25-.14zm-.38-.31h-.08l-.1-.15c0 .06-.09 0-.18-.06zm.57.42l.15.1-.22-.15-.08-.08h-.06l.2.14zm.26.17zm.22.16l.12.09zm.21.15zm0 0zm-.95-.76l-.13-.11zm.82.65s-.08-.06.05.05zm-.92-.78l.1.09zm-.51-.43l.17.14zm.65.49c-.13-.11-.06 0-.11 0s.09.07.06.01zm-.53-.49zm.42.36l.18.16-.07-.08zm.36.34l-.1-.03zm.66.62zm0 0zm-.52-.54zm-.05-.1zm.57.64zm-.77-.85l-.08-.11v.09l.11.09-.02-.07zm-.18-.2h-.07l.08.08zm.74.85l-.1-.12zm-.43-.5l.05.06zm.3-.14v-.01a.18.18 0 0 0 0 .03zm-.07 0l.08.19-.09-.22zm0 .08l-.05-.12zm-.52-.82l-.07-.14zm.15.36zm-.26-.43l-.09-.13a.21.21 0 0 0 .08.16zm.93 1.6v-.07l-.06-.09a1.471 1.471 0 0 0 .13.2zm-.26-.39l-.09-.12zm-.39-.68V36zm.76 1.12zm-1-1.38l.08.06-.12-.19zm.78 1.09v-.07l-.09-.12.06.1zm.2.29zm0 0zm-.36-.59v-.07l-.06-.07.06.09v.05a1.47 1.47 0 0 1 .18.24l-.06-.1zm.36.59zm0 0zm-.3-.56l.05.07v-.08zm.3.56zm-.1-.21v.07zm.1.21zm-.06-.13l.07.16zm-.17-.42v.05zM22 35.43zm.32.76l-.05-.19.08.21zm.36.86zm0 0v-.11.09zm-.07-.22l-.13-.35v.15l-.05-.1v.11a1.821 1.821 0 0 0 .08.21v-.12zm.07.22zm-.56-1.75l.06.2s.06 0-.03-.2zm.19 0l.08.32v-.09a.44.44 0 0 0 0-.2zm0 .17v.08-.11zm-.16-.6v.14-.11zm-.05 0v.05zm0 .18h.06v-.07c-.03-.11-.04-.06-.03.02zm.47 1.65c.04.02.05.06.03-.03zm.11.38zm-.1-.4v-.01l.07.25zm-.2-.92v-.05zm0 .1zM22.7 37v-.09zm0 0zm-.05-.29v-.15.19zm.05-.26v-.41.31zm0-.33v-.06.08s.01.04.01.03zm.05 0zm0-.18zm0-.26v-.08zm0-.2v.21zm0-.33zm0-.39v.07c.01-.03.01-.04-.01 0zm0 .83zm0-.45v.06zm-.06.18v.28a.5.5 0 0 0-.05-.21zm0 .23v.1zm0-.15zm-.13-.4l.05.07v-.22zm.06.94zm0 .12v.19a.43.43 0 0 0-.03-.15zm0-.21zm-.07-.25v-.14zm.19 1.25v.11-.11zm0-.16zm0 .29v-.15.17s-.03.05-.04 0zm0 0zm0 0zm0-.31v-.03c-.06.13-.07.02-.06.11zm0 .31zm0-.12v-.32zm0 .06zm0 .07zm0-.29zm0-.52v.15zm0 .73zm0 .08zm0-.1v-.22.28zm.26-2zm-.17 1.37v.06-.05zm0-.31V36zm0 .4zm.11-1.29v.08-.08zm-.12 1.2zm-.05.62v-.34a2.86 2.86 0 0 0-.04.34zm0 .17zm0 0zm.08-.53v-.21a1.24 1.24 0 0 0-.06.21zm0 .12v-.03zm.14-.74v-.03zm-.2 1.15zm.43-2.18h-.06v.14c0 .01-.04-.12-.02-.14zm0 1.23zm-.07.06l.08-.16v.06l.11-.23v-.03l-.08.14zm-.15.14l-.08.25.06-.13zm.33-1zm-.58 1.7v.01zm.32-1v-.07zm.2-.65v-.06zM23 36zm-.16.49l.05-.18zm.41-1.73c0 .05 0 .05.06-.09zm-.37 1.41v-.15.05c.06-.02.03.07.02.14zm-.19.84zm.4-1.66l.06-.21zM23 36l-.05.2zm-.27 1.09zm0 0zm0 0zm.27-.79l.05-.17v-.09l-.06.19-.06.2c.07-.17.01-.08.07-.13zm-.21.63v.12a.64.64 0 0 0-.04-.12zm0 .12zm.11-.3v-.06zm-.11.3zm0 0l.05-.13v-.02zm0 0zm.1-.22zm-.1.22zm.86-1.8v.08zm-.35.75l.05-.07zm.38-.8l-.06.12.07-.08zm-.94 1.8v.05zm0 0zm1.19-1.66l-.07.11.07-.06v-.07zm-.11.12l-.07.06v.07l.09-.11zm-.86 1.23l.1-.16-.09.13zm0-.07l.05-.1zm-.22.38zm.22-.34zm.82-1.3h.06v.1-.19zm-1 1.57l-.06.08zm.51-.77l.06-.09v.08zm-.55.84l.14-.21-.1.15zm0 0zm0 0zm1.36-1.7l-.06.08.07-.09zm-.26.31l.16-.11v-.07a.4.4 0 0 0-.16.18zm-.55.73c.07-.1.14-.19.12-.2s-.14.19-.12.2zm-.52.63l-.06.09zm1.14-1.52h.07l.09-.16zm-1.2 1.61zm.33-.42v-.05zm-.21.27zm.37-.2l.19-.14a1.33 1.33 0 0 0-.19.14zm1.4-1.09l-.1.08.09-.06zm-.06 0h.06l.08-.07h-.05zm-.63.46l.14-.08zm-.45.34zm.39-.42l-.09.13L24 36c-.17.09-.12 0-.15 0zm-.53.51h-.07l-.06.07zm.8-.9a.16.16 0 0 0 0 .08h.05l.06-.08a.79.79 0 0 0 0-.09zm-.34.4l-.08.06zm-.22.15l-.23.24s.09-.07.08 0 0 0 .08 0 0 0 0-.06l.07-.12zm-.32.37l-.07.07zm.05-.07l-.11.11zm0-.1a1.567 1.567 0 0 0 .18-.17l-.12.14.12-.13c.1-.09.02-.03-.16.17zm.28-.28c.05-.06.1-.13.08-.12l-.08.07zm.7-.82l-.07.17.09-.1zm-.24.24v.1l.17-.17zM22.78 37l.08-.1-.11.12zm.35-.39l.05-.07-.11.12zm.16-.14l-.08.08a.8.8 0 0 1 .08-.1zm-.12.12l-.16.17a1.25 1.25 0 0 0 .16-.19zm-.22.25l.09-.09-.1.1zm-.24.24zm0 0zm.14-.13l.1-.09.14-.1c.06-.06 0 0-.06 0s.12-.1.15-.14l-.08.07s-.05 0-.1.09l-.12.11-.1.09-.08.08.1-.1zm.4-.3l.14-.12-.13.09.14-.11h-.09l-.09.08zm-.05 0l.15-.12-.13.11-.18.13-.09.08zm.06 0c.09-.08 0 0-.05 0zm-.55.4zm0 0zm1-.5l-.09.05.08-.05zm-.16.09l-.11.06zm-.07 0l.11-.07-.22.15.2-.12zm.89-.57l-.16.13-.11.06h.08l.2-.12.08-.08zm-1.13.7l.09-.06zm-.33.21l-.19.11zm.58-.39l-.17.12.16-.09.15-.11zm.46-.33a.62.62 0 0 0 .2-.12zm-.82.55l.15-.08c.12-.08 0 0 .07-.07l-.19.13zm-.17.12zm-.2.14zm0 0zm0 0zm0 0zm0 0zm0 0zm.17-.09H23zm.72-.39l.2-.1v-.05zm-.5.27zm-.39.21zm0 0zm1.58-.74l.16-.11h-.11s-.1 0-.13.06zm-.22.14l-.09.06zm-1.35.6zm1.37-.54l-.14.07zm.43-.16h-.17v.07h.1zm.23 0v.07l.19-.07h-.19zm-.41.06zm-.82.3h-.02zm-.8.3zm0 0zm.43-.15zm-.42.15h-.01zm1.3-.43l.22-.11c-.3.1-.3.11-.3.13zm.32-.1l-.07.06h.13v-.09h-.26zm-.31.14zm.34-.07l.06-.05c-.18.06-.18.06-.11.07zm-1.11.32h-.01zm1.68-.23c-.07 0-.06.05.07 0zm-.26 0zm-.6.07h-.11a.13.13 0 0 0 .12 0zm-1.45.29zm2-.36l.17-.07v-.07h-.09a1.038 1.038 0 0 0-.28.05h.12zm-1 .15h.02zM23 37zm-.27 0zm.6-.1h.01zm-.6.1zm1.21-.18h-.18a.173.173 0 0 0 .16.05zm0 .06zm.51-.08h.02zm-1.31.2zm.63-.06h-.01c.06.06.13 0 .01 0z" class="cls-1" data-name="Path 4911" transform="translate(.295 1.046)"/>
        <path id="Path_4912" d="M25 37z" class="cls-1" data-name="Path 4912" transform="translate(.37 1.046)"/>
        <path id="Path_4919" d="M22.52 37.14l.02-.01-.02.01z" class="cls-1" data-name="Path 4919" transform="translate(.289 1.046)"/>
        <path id="Path_4920" d="M22.91 37.39l.01.01-.05-.08-.01-.01z" class="cls-1" data-name="Path 4920" transform="translate(.302 1.046)"/>
        <path id="Path_4922" d="M24.1 36.74h.03l-.05.02-.04.01z" class="cls-1" data-name="Path 4922" transform="translate(.343 1.046)"/>
        <path id="Path_4923" d="M23.62 37.32l.01.01-.09-.03-.02-.01z" class="cls-1" data-name="Path 4923" transform="translate(.325 1.046)"/>
        <path id="Path_4924" d="M22.3 36.86h.01l.09.05z" class="cls-1" data-name="Path 4924" transform="translate(.283 1.046)"/>
        <path id="Path_4929" d="M22.25 38.16l.01-.03.03-.05-.01.04z" class="cls-1" data-name="Path 4929" transform="translate(.28 1.046)"/>
        <path id="Path_4930" d="M22.8 37.16l.03.04-.01-.01-.03-.04z" class="cls-1" data-name="Path 4930" transform="translate(.299 1.046)"/>
        <path id="Path_4932" d="M23.17 37.39l-.03-.02h.01l.03.02z" class="cls-1" data-name="Path 4932" transform="translate(.311 1.046)"/>
        <path id="Path_4933" d="M22.55 36.87l-.02-.02.03.04.02.02z" class="cls-1" data-name="Path 4933" transform="translate(.29 1.046)"/>
        <path id="Path_4934" d="M22.64 37.02l-.02-.02.06.03.02.02z" class="cls-1" data-name="Path 4934" transform="translate(.294 1.046)"/>
        <path id="Path_4935" d="M22.3 35.65l.01.02-.01.01-.01-.03z" class="cls-1" data-name="Path 4935" transform="translate(.281 1.046)"/>
        <path id="Path_4936" d="M23.32 36.17v-.05z" class="cls-1" data-name="Path 4936" transform="translate(.316 1.046)"/>
        <path id="Path_4939" d="M22.77 37.01l-.03.02.03-.02z" class="cls-1" data-name="Path 4939" transform="translate(.297 1.046)"/>
        <path id="Path_4941" d="M24.17 38.09h-.01l-.09-.07h.02z" class="cls-1" data-name="Path 4941" transform="translate(.344 1.046)"/>
        <path id="Path_4942" d="M22.02 36.44l.02.02v.01l-.04-.03z" class="cls-1" data-name="Path 4942" transform="translate(.272 1.046)"/>
        <path id="Path_4948" d="M22.71 37.04v.01z" class="cls-1" data-name="Path 4948" transform="translate(.296 1.046)"/>
        <path id="Path_4950" d="M21.23 38.93v-.1h-.07l.12-.09-.06.17z" class="cls-1" data-name="Path 4950" transform="translate(.244 1.046)"/>
        <path id="Path_4951" d="M22.81 39.37l.07-.09-.05.09v.07z" class="cls-1" data-name="Path 4951" transform="translate(.3 1.046)"/>
        <path id="Path_4952" d="M24.52 35.77l.2-.15v.06h.08l-.16.08z" class="cls-1" data-name="Path 4952" transform="translate(.363 1.046)"/>
        <path id="Path_4955" d="M21.21 38.66h-.05v.07a.25.25 0 0 1 0-.07l.06-.06z" class="cls-1" data-name="Path 4955" transform="translate(.243 1.046)"/>
        <path id="Path_4956" d="M21 38.38h.15c-.15.09-.15.02-.15 0z" class="cls-1" data-name="Path 4956" transform="translate(.239 1.046)"/>
        <path id="Path_4957" d="M24.83 36l.08-.09H25z" class="cls-1" data-name="Path 4957" transform="translate(.371 1.046)"/>
        <path id="Path_4958" d="M23 39.17l.06.24a.49.49 0 0 1-.06-.27z" class="cls-1" data-name="Path 4958" transform="translate(.306 1.046)"/>
        <path id="Path_4959" d="M25.06 36.05l-.19.06L25 36z" class="cls-1" data-name="Path 4959" transform="translate(.373 1.046)"/>
        <path id="Path_4960" d="M22.43 39.28v.07a.31.31 0 0 1 0 .08v-.16z" class="cls-1" data-name="Path 4960" transform="translate(.286 1.046)"/>
        <path id="Path_4962" d="M21.44 35.25h-.07l-.06-.1.13.11z" class="cls-1" data-name="Path 4962" transform="translate(.249 1.046)"/>
        <path id="Path_4963" d="M23.45 39.26c.08.22 0 0 0 .07z" class="cls-1" data-name="Path 4963" transform="translate(.321 1.046)"/>
        <path id="Path_4965" d="M23.63 39.03l.07.12v.02l-.08-.11z" class="cls-1" data-name="Path 4965" transform="translate(.328 1.046)"/>
        <path id="Path_4966" d="M21.59 39.16v-.12a.34.34 0 0 1 0 .1z" class="cls-1" data-name="Path 4966" transform="translate(.257 1.046)"/>
        <path id="Path_4967" d="M24.92 35.77l-.1.09-.03.01.07-.09z" class="cls-1" data-name="Path 4967" transform="translate(.369 1.046)"/>
        <path id="Path_4968" d="M23.67 35a.254.254 0 0 1 .06-.16z" class="cls-1" data-name="Path 4968" transform="translate(.329 1.046)"/>
        <path id="Path_4970" d="M23.38 39.33l-.02.06-.02-.05.02-.05z" class="cls-1" data-name="Path 4970" transform="translate(.318 1.046)"/>
        <path id="Path_4971" d="M22.18 39.22v.1l-.01.03-.01-.08z" class="cls-1" data-name="Path 4971" transform="translate(.277 1.046)"/>
        <path id="Path_4972" d="M23.08 38.98l.04.02.01.05-.04-.02z" class="cls-1" data-name="Path 4972" transform="translate(.309 1.046)"/>
        <path id="Path_4973" d="M21.16 38.46l-.05.09s-.04-.02.05-.09z" class="cls-1" data-name="Path 4973" transform="translate(.241 1.046)"/>
        <path id="Path_4974" d="M22.23 39.29l-.04.08v-.05l.04-.07z" class="cls-1" data-name="Path 4974" transform="translate(.278 1.046)"/>
        <path id="Path_4975" d="M22.78 39.18v.14z" class="cls-1" data-name="Path 4975" transform="translate(.298 1.046)"/>
        <path id="Path_4976" d="M22.7 34.68l-.05.01v-.03l.05-.03z" class="cls-1" data-name="Path 4976" transform="translate(.294 1.046)"/>
        <path id="Path_4977" d="M24.65 38.45l-.07-.01-.03-.03.06.01z" class="cls-1" data-name="Path 4977" transform="translate(.36 1.046)"/>
        <path id="Path_4978" d="M21.59 39.03l.06-.09.01.01-.06.1z" class="cls-1" data-name="Path 4978" transform="translate(.258 1.046)"/>
        <path id="Path_4979" d="M24.75 37h.05z" class="cls-1" data-name="Path 4979" transform="translate(.365 1.046)"/>
        <path id="Path_4980" d="M22.95 39.38l-.03-.1-.01.02.04.1z" class="cls-1" data-name="Path 4980" transform="translate(.303 1.046)"/>
        <path id="Path_4981" d="M21.85 39.22l.04-.01-.02.04-.04.02z" class="cls-1" data-name="Path 4981" transform="translate(.266 1.046)"/>
        <path id="Path_4982" d="M23.95 34.98l.03-.02-.02.04-.03.02z" class="cls-1" data-name="Path 4982" transform="translate(.338 1.046)"/>
        <path id="Path_4983" d="M24.91 36.03l.04.02-.05.02-.03-.02z" class="cls-1" data-name="Path 4983" transform="translate(.371 1.046)"/>
        <path id="Path_4984" d="M24.83 35.89h-.05l.15-.07z" class="cls-1" data-name="Path 4984" transform="translate(.369 1.046)"/>
        <path id="Path_4985" d="M23.65 37.04l-.01-.02h.04l.03.01z" class="cls-1" data-name="Path 4985" transform="translate(.328 1.046)"/>
        <path id="Path_4986" d="M21.06 38.47l-.08.04.02-.03.08-.03z" class="cls-1" data-name="Path 4986" transform="translate(.238 1.046)"/>
        <path id="Path_4987" d="M21.02 38.58l-.01.04-.03.03.01-.05z" class="cls-1" data-name="Path 4987" transform="translate(.237 1.046)"/>
        <path id="Path_4988" d="M21.66 35.15l-.1-.14s.07.1.1.15z" class="cls-1" data-name="Path 4988" transform="translate(.258 1.046)"/>
        <path id="Path_4990" d="M23 36.77c-.07 0-.06.06 0 0z" class="cls-1" data-name="Path 4990" transform="translate(.305 1.046)"/>
        <path id="Path_4991" d="M24.15 38.35l.08.04.02.04-.11-.09z" class="cls-1" data-name="Path 4991" transform="translate(.346 1.046)"/>
        <path id="Path_4992" d="M22.72 36.88l-.01.14v-.03l.01-.11z" class="cls-1" data-name="Path 4992" transform="translate(.296 1.046)"/>
        <path id="Path_4993" d="M22.39 37.47h-.01l.1-.12v-.01z" class="cls-1" data-name="Path 4993" transform="translate(.286 1.046)"/>
    </g>
</svg>
