<svg xmlns="http://www.w3.org/2000/svg" width="20.934" height="20.66" viewBox="0 0 20.934 20.66">
    <defs>
        <style>
            .cls-1{fill:#05276c}
        </style>
    </defs>
    <g id="seed-27" transform="rotate(-2 -380.191 397.6)">
        <path id="Path_10401" d="M34.1 16.35h.25l-.07.17c-.08 0-.15-.08-.21-.06s-.1.12-.16.2a2 2 0 0 0 .23-.06.09.09 0 0 1 .07 0v.08h-.06l-.15.12h-.22v.2l-.07-.29v.19l-.05-.12c-.07.24-.16.22-.21.11v.25h-.15v-.3c-.1 0-.06.14 0 .22l-.08.05a.11.11 0 0 1 0-.06c0-.17 0-.2-.11-.17s-.14.08-.21 0v-.05a.15.15 0 0 0 0 .07v.19c0-.09-.06-.17-.13-.09v-.3h-.19l.09.17h-.13a1.36 1.36 0 0 1-.09.23c0 .06-.1.08-.16.13v-.24c-.13-.13-.16-.1-.2.22 0-.14 0-.18-.12-.13s0 0-.05 0 0-.05 0-.06l.06-.2c-.09-.06-.17 0-.23.08l-.12-.11-.07.26h-.07a2.24 2.24 0 0 1-.11.22.67.67 0 0 1-.48-.27c0-.11 0-.16-.09-.16s-.06.15-.09.15a.148.148 0 0 1-.14-.08.27.27 0 0 1-.07-.08v.15l-.09-.11v.47l-.08-.17-.1.09c0-.09.07-.16 0-.24a.54.54 0 0 1-.07-.17V17l-.18.11.07-.25h-.28V17c.12.1-.08.14 0 .26h-.11a.89.89 0 0 0 0-.51c-.09.11 0 .24 0 .39 0-.12-.1-.21-.16 0v.12h-.07c-.01 0-.1-.13-.15.06l-.05-.06v-.08l-.05.14A2.07 2.07 0 0 1 29 17h.08v-.14l-.18.14v-.16c0 .12 0 .26-.09.31v-.37a.29.29 0 0 1 .08-.13l.08-.06c-.06 0-.12-.1-.15.06s-.07 0-.12 0 .08.22.08.37l-.14.06.07-.14-.11-.17v.24l-.18.11v-.2h-.55a.88.88 0 0 0 0 .16v.06l-.19-.14c0 .12-.05.23-.15.23v-.13l-.1-.06v.19h-.12v-.11c0 .16-.14.13-.24-.06a.33.33 0 0 1-.45.09.09.09 0 0 0 .06 0 .28.28 0 0 0 0-.09h-.05c-.05 0-.12.12-.17.11s-.16.08-.23 0-.06 0-.1 0 0 0-.05.06v-.08l-.19-.05v.17l-.07-.2-.1.05.06.13h-.13v-.06c0-.06 0-.15-.09-.05l-.12-.25v.18c-.11 0-.26-.11-.36.09h-.11c-.08 0-.14-.05-.15-.21l-.13.21v-.12l-.16-.1-.13.13v.13h-.3a.07.07 0 0 1 0-.05V17a.49.49 0 0 1 0 .12v.09-.12s-.08.05-.1 0a.64.64 0 0 1-.08-.2l-.07.22v-.24l-.05.2v-.13l-.19.12.14.09c-.07.18-.14-.06-.21 0 0-.16 0-.29-.13-.28v.2l-.36-.07v.1l-.11.05v.05h-.1V17l-.13.2c-.06.09-.11.07-.17-.06h.08a.5.5 0 0 0-.08-.12.079.079 0 0 1-.05.07v.15l-.19-.09h-.14L22 17h.12v-.16l-.12.06v-.15l-.22.08V17h-.11a.76.76 0 0 0 0-.11c-.05.12-.08.11-.15 0v.09c0 .07 0 .11-.06.05l-.22-.19V17l-.27-.09v.1h-.22v-.19.1h-.15c0 .2-.06.12-.08.16a.89.89 0 0 0-.05-.13.14.14 0 0 0 0 .09V17l-.18.13V17H20c.06-.1.1-.19.14-.27a.069.069 0 0 0-.07.07.083.083 0 0 1-.11.08 1.09 1.09 0 0 0-.25 0c-.13-.21-.21-.21-.29 0a.8.8 0 0 0 0-.15 1.57 1.57 0 0 0-.07-.18v.22h-.11c0 .06.07.24-.06.28v-.09L19 17h-.07v.15c-.08-.1 0-.21 0-.3l-.08-.07V17c-.07-.06-.07-.06-.08-.35l-.1.35h-.07a.65.65 0 0 0-.2 0s-.05 0-.05-.08v-.25c0-.08 0 .06-.07.06a.7.7 0 0 0-.2 0l.1.17v.05s-.2.08-.31 0-.15 0-.23 0l-.06-.17a1.13 1.13 0 0 1-.06.14h-.11v.12l-.09-.27h.12c.03 0 0-.09.06-.15h.14v-.07h-.25v.06a.59.59 0 0 0 .07.14h-.19a.6.6 0 0 1 0 .12c0 .07 0 .13-.08.11h-.11v-.1a.39.39 0 0 0 0-.13l-.07.09v-.14c-.11.1-.11.1 0 .3h-.13v-.14c-.07-.08-.12 0-.15.09l-.11-.06a.1.1 0 0 1 0-.07.28.28 0 0 1 0-.13v.09h.07v-.17h-.18l.06.2s0-.05-.05 0-.11-.06-.07-.19a.4.4 0 0 0 0-.11h-.15l.08-.1c-.06 0-.07-.17-.16-.1s-.12 0-.18 0h-.06v.07c.1-.07.15.1.23.13s.06.1.09.16v.14a.282.282 0 0 1-.11.05c-.04 0-.07 0-.07-.12a.17.17 0 0 0 0-.12c0 .08 0 .22-.06.25s-.13-.05-.17-.23l.17.07a.54.54 0 0 0 0-.2c-.06-.07-.11 0-.16.07s0 .08 0 .12v.15a.17.17 0 0 1-.12 0 .14.14 0 0 1-.07-.06l-.06.22-.1-.23c-.13-.07-.26.28-.42 0 0 .18-.1.14-.16.2s0-.08 0-.13-.07-.06-.09.11c-.05 0-.08-.33-.15 0l-.08-.13c-.06.14-.08 0-.12-.06l-.06.05h-.19V17a1.86 1.86 0 0 0-.31-.1c-.09 0-.19.07-.27 0v-.25a.1.1 0 0 1 0-.08.53.53 0 0 1 .12 0l-.16-.05c0-.05.1-.08 0-.16l.08-.07c-.07-.14-.06-.19 0-.27-.07-.13-.07-.14.07-.26a.106.106 0 0 1-.1-.08 2.27 2.27 0 0 1 0-.45 2 2 0 0 0 0-.25c0-.13 0-.11.07-.06s.09.09.15 0l-.11-.16-.06-.09.06-.07v-.33l.12.1-.07.07c.09.13.18.05.27 0a1.64 1.64 0 0 1 .23 0 1.75 1.75 0 0 0 .4 0 .582.582 0 0 1 .33.07h.13c.04 0 .09.06.13.1v-.11a.149.149 0 0 1 .17.11v-.13h.09c.06.12.11 0 .16 0h.17a.2.2 0 0 1 .13 0c.07 0 .09 0 .1-.1a.18.18 0 0 0 .23 0h.16a.89.89 0 0 1 .28 0 1 1 0 0 0 .34 0 3.15 3.15 0 0 0 .53 0 1.25 1.25 0 0 1 .32.05c.06-.11.12 0 .19 0s.05.06.05 0h.07v.15l.29-.17v.09h.17c0-.07.07 0 .11 0v-.1l.05.19h.1l.25.11a.049.049 0 0 1 .05-.05l.13.07h.08v-.16l.13.09c.05 0 .1-.13.17 0 0-.08.06-.1.12-.09a2.26 2.26 0 0 0 .26 0h.21s.05.06.07.09.06.05.09 0a.59.59 0 0 0 .17 0l.11-.06h.06c.06 0 .12.1.18.15.07-.14.11-.14.21 0s.06.06.11 0a.14.14 0 0 1 .24 0l-.06.08.11-.07.05.09.16-.11a.12.12 0 0 1 .08 0v.14l.06-.08.09.07.06-.23v.15l.08-.08v.13c.09-.09.14-.08.18.06v-.18l.05.14c.05-.05.09-.21.15 0l.13-.12a.25.25 0 0 1 0 .07c0 .11.05.11.09 0s.07-.11.12 0 .1 0 .16 0a.12.12 0 0 0 .08 0c0-.09 0-.09.08 0s0-.06.05-.06h.37c.13 0 .15.07.23.09a.13.13 0 0 0 .11 0c.11-.08.2 0 .3.06a.17.17 0 0 1 .22-.09.39.39 0 0 0 .18.06l.05-.08.18.08a.43.43 0 0 1 .13 0 1.07 1.07 0 0 1 .25 0v.12l.17-.07c.06.1.15 0 .24 0s.24-.14.36 0 .06 0 .08 0 .13-.06.2-.05a1 1 0 0 1 .21.09v.24l.1-.16.06.16v-.24l.14-.11v.12l.12-.22c.07 0 .17 0 .22.23l.07-.22c.06 0 .13.12.17.09s.1 0 .16.07v.01l.22-.08v.09l.25-.11.07.27V15l-.07-.11c.12-.05.12.12.17.2h.07v.15-.28a.39.39 0 0 1 .15 0h.29v-.13h.14l-.06.14c.08.15.12-.06.18-.09l.09.23.21-.21v.15l.1-.12-.06-.09c0-.07 0-.07.14 0l-.06.17.14-.07v-.17l.33.08.13-.11v.19a.16.16 0 0 1 0-.07l.07-.1v.13a.42.42 0 0 1 0 .1v-.12a.48.48 0 0 0 0-.12v.19-.2a.91.91 0 0 1 .13.08.61.61 0 0 1 .07.18c0-.11 0-.18.11-.12s.1 0 .15 0h.13l.18-.11v.18-.21l.07.05h.27c0 .16.12.2.23.2v-.12H33l.15-.07c.07.09.13 0 .2 0h.31a.25.25 0 0 0 .12 0 .91.91 0 0 0 .17.17.129.129 0 0 0 .1-.06V15h.21a.18.18 0 0 0 0 .22.12.12 0 0 1 0 .07.39.39 0 0 0 0 .09.7.7 0 0 0 0 .25v.12c-.08 0-.11 0-.13.11-.06.2.06.28.09.44h-.08v-.16.2c0 .02.09 0 .14.06s-.12-.4-.28-.4v.27l.08-.11zm-20.23.09v.15c.05-.06.13-.11 0-.15zm.16.11c-.09.1-.09.1-.14 0l-.07-.06v.18c.09-.12.09.11.16.1s.02-.12.02-.22zm0-2v-.08.09zm.31 2.14l-.07-.18h-.1a1.19 1.19 0 0 1 0-.19 1.18 1.18 0 0 0-.1.19.71.71 0 0 0 0 .15v-.12l.06.15.09-.06zm.12-.74v-.13.18zm.41-.06v-.06zm-.1.71c0-.13 0-.14-.1-.08h-.16v.05l.12.11-.09.08.14.08v-.2zm.05-.91v-.05h-.07v.05zm.13.44v.23h-.13v.24l.05-.12.09.1a2.735 2.735 0 0 0 .04-.42zm.29.57l-.19-.08c.02.15.09.19.19.11zm.07-.15l-.09-.09.06-.11-.1-.09a2.07 2.07 0 0 0 0 .29h.11zm.12 0V16.56zm.06-.08v-.11zm.06.31v-.06h-.07v.05zm.11-.35c-.09 0-.1.11-.09.22s.11 0 .09-.21zm.2 0c-.06.09-.16.09-.17.22h.16zm.06-.06l-.07-.13h-.07zm.05-.18h.01zm.1-.31zm.43.46h-.07v.05h.07zm.54 0v.14a.074.074 0 0 0 .07-.07c.01-.07-.06-.01-.11-.05zm0-.2h.04zm.11.43v-.21.2zm.13-.17v-.05h-.09zm.32.3l-.06.05zm.43-1.37v.17c0 .02.02-.13.03-.15zm.52 1.37l-.07-.07v.13zm.41 0v.21c.09-.16.09-.16.04-.23zm.37-2.25l-.08.12.08-.06a.219.219 0 0 0 .03-.08zm1.89 1.63v.14zm.13.08l-.03-.16v.21zm0-1.13h-.1c0 .16.05.11.1.09zm.5.9l-.05.1zm.16.29h-.05v.05zm.26-.42l.06-.12zm0 .21h.03zm-.14.92v.23a.33.33 0 0 0 .03-.25zm.28-.06l-.13-.06-.09.17.21-.06zm0-.39l-.19.1c0 .07.07.14.11.25zm0-2v.16c.09-.06.12-.12.03-.14zm.18 2.12l-.06.08zm.07.26l-.09-.06v.18zm.38-.47h-.26c.09.16.22.17.29.02zm0 .49l-.05.06zm0-.24h-.07v.05h.07zm.4-.08l-.12-.09.06-.12h-.11v.37-.1zm0-1.59v.09zm.48-.38l-.07-.09-.05.13zm.14.11H24l.1.13zm.11 2.37l-.08-.2c.04.21.05.23.14.22zm.15-.41v-.15h-.06l.06.06h-.09c.07.25.1.13.15.11zm0-.56v.08zm.34-.07c0-.13-.09-.19-.12-.14s0 .19 0 .28a1.46 1.46 0 0 1 .07-.19zm0 .66v.13zm.4-.78V16l.07-.05zm-.05.59l.07-.08v-.05l-.06.09zm.08.31v-.17zm.06.1l-.06-.09v.12zm.16-2.22h.07c.02 0 0 0 0-.12zm.1 2V17zm0-.7l-.1-.27-.09.36zm.2.94l-.13-.16v.16h.15zm.37-2.06h.05v-.05h-.06zm.15.86h-.03V16zm.44-.08v.1zm.13.14v-.11.16s.13.02.13 0zm.33.53h-.07v.06zm.25.55l-.05.13zm.13-.26v-.05h-.1v.08zm.25-.6l.05-.12h-.09V16zm.12.26h-.09c.18.17.19.17.22.05zm.28.38v.11s.13-.03.13-.06zm.1-.24l-.05-.13v.19zm.16-.8l.08-.05-.08.06zm.15.83a.175.175 0 0 1-.12-.07l.07.2h-.07l.11.05a.94.94 0 0 0 .14-.13zm.16-.14l-.05-.06v.08zm.62.42h-.09v.08h.1zm.13 0l-.06-.05v.05l.09.05zm.08-.31c-.1 0-.1 0-.12.06zm.43 0v.1zm.47-.15v.15zm.13-1.46zm.11.22l-.08-.1v.12zm.56 1.47h-.09v.07h.09zm.08-.18l-.23-.14v.19c.07-.06.17 0 .21.13a.12.12 0 0 0 .15-.1zm.13 0v.2c.18 0 .18-.04.13-.08zm.48.31h-.13l.08.06h.06s.14.09.14.06zm.48-1h.07v-.05h-.07zm-.1.6a.27.27 0 0 0-.09 0v.15a.19.19 0 0 1-.07.08h.12zm.17.05h-.14v.18zm0 .43v-.15h-.07zm.65-2.19v-.17l.05.16zm.06 2.24V17zm.44-1.12h.17l-.17-.21zm0 .1l.09.13zm0-1l-.15-.15v.34zm.11 1.2a.62.62 0 0 1-.08.12.75.75 0 0 1-.13.06v.12l.09-.1v.16c.21.03.34-.08.27-.21zm.06-.15h.05zm.13.31l-.09-.11v.25z" class="cls-1" data-name="Path 10401"/>
        <path id="Path_10402" d="M24.53 16.7v.09z" class="cls-1" data-name="Path 10402"/>
        <path id="Path_10404" d="M32.19 14.93v.09z" class="cls-1" data-name="Path 10404"/>
        <path id="Path_10405" d="M32.22 14.51v.05s-.01-.04 0-.05z" class="cls-1" data-name="Path 10405"/>
        <path id="Path_10406" d="M15.75 16.44v-.08z" class="cls-1" data-name="Path 10406"/>
        <path id="Path_10407" d="M14.8 16.29v-.06z" class="cls-1" data-name="Path 10407"/>
        <path id="Path_10409" d="M31.62 16.51v-.05z" class="cls-1" data-name="Path 10409"/>
        <path id="Path_10410" d="M20.71 16.5v.05a.17.17 0 0 1 0-.05z" class="cls-1" data-name="Path 10410"/>
        <path id="Path_10412" d="M31.84 16.16a.17.17 0 0 1 0 .05v-.05a.17.17 0 0 1 0-.05s.01.04 0 .05z" class="cls-1" data-name="Path 10412"/>
        <path id="Path_10413" d="M14.53 16.41v-.05z" class="cls-1" data-name="Path 10413"/>
        <path id="Path_10415" d="M30.08 16.36z" class="cls-1" data-name="Path 10415"/>
        <path id="Path_10416" d="M28.42 16.42v-.11z" class="cls-1" data-name="Path 10416"/>
        <path id="Path_10417" d="M19.39 16.88c.13 0 .13 0 .17.08l-.1.13-.07-.22z" class="cls-1" data-name="Path 10417"/>
        <path id="Path_10418" d="M33.42 17.11h.15V17l.08.06c-.04.11-.12.13-.23.05z" class="cls-1" data-name="Path 10418"/>
        <path id="Path_10419" d="M34.32 16.25c0-.13 0-.23.09-.21v.2z" class="cls-1" data-name="Path 10419"/>
        <path id="Path_10420" d="M33.78 17.18c0-.21.1 0 .14-.09-.01.2-.08.09-.14.09z" class="cls-1" data-name="Path 10420"/>
        <path id="Path_10421" d="M34.39 16.85c0 .16 0 .23-.13.19a1 1 0 0 0 .05-.12.57.57 0 0 0 0-.13s-.01.21.08.06z" class="cls-1" data-name="Path 10421"/>
        <path id="Path_10422" d="M29.93 17.23L30 17v.05l-.1.2z" class="cls-1" data-name="Path 10422"/>
        <path id="Path_10423" d="M19.4 17.15l-.12-.06v-.08c0-.01.12-.01.12.14z" class="cls-1" data-name="Path 10423"/>
        <path id="Path_10424" d="M19.91 17.15c0-.07-.1 0-.06-.15l.05.16z" class="cls-1" data-name="Path 10424"/>
        <path id="Path_10425" d="M13.82 17.11a.072.072 0 0 1 .06-.07c.06-.01 0 0 .08.05v.05h-.13z" class="cls-1" data-name="Path 10425"/>
        <path id="Path_10426" d="M32.27 17h.08a1.21 1.21 0 0 1 0 .19z" class="cls-1" data-name="Path 10426"/>
        <path id="Path_10427" d="M18.74 17.15h-.13v-.06h.13z" class="cls-1" data-name="Path 10427"/>
        <path id="Path_10428" d="M21.53 17.05V17a.16.16 0 0 1 .05.08h-.09z" class="cls-1" data-name="Path 10428"/>
        <path id="Path_10429" d="M30.06 14.4v.12h-.05v-.13z" class="cls-1" data-name="Path 10429"/>
        <path id="Path_10430" d="M18.16 16.88l.08-.05v.1h-.09z" class="cls-1" data-name="Path 10430"/>
        <path id="Path_10431" d="M19.24 16.86V17c-.07 0-.07 0 0-.14z" class="cls-1" data-name="Path 10431"/>
        <path id="Path_10432" d="M31.27 17.15l-.06.09v-.06l.07-.08z" class="cls-1" data-name="Path 10432"/>
        <path id="Path_10433" d="M21.5 17.16c-.07 0-.07 0-.06-.09z" class="cls-1" data-name="Path 10433"/>
        <path id="Path_10434" d="M30.87 17.16h.08v.06h-.08z" class="cls-1" data-name="Path 10434"/>
        <path id="Path_10435" d="M31.8 17.06v.12h-.1z" class="cls-1" data-name="Path 10435"/>
        <path id="Path_10436" d="M28.21 17.16h-.1v-.1l.06.1z" class="cls-1" data-name="Path 10436"/>
        <path id="Path_10437" d="M20.72 17.06h-.07V17h.07z" class="cls-1" data-name="Path 10437"/>
        <path id="Path_10438" d="M34.32 14.62v.08a.1.1 0 0 1 0 .05.12.12 0 0 1 0-.05.2.2 0 0 1 0-.08z" class="cls-1" data-name="Path 10438"/>
        <path id="Path_10439" d="M34.38 15.14h-.07v-.05h.07z" class="cls-1" data-name="Path 10439"/>
        <path id="Path_10440" d="M20.51 17h.01z" class="cls-1" data-name="Path 10440"/>
        <path id="Path_10441" d="M21.8 17v.11-.1z" class="cls-1" data-name="Path 10441"/>
        <path id="Path_10442" d="M32.18 17.18v-.11.12z" class="cls-1" data-name="Path 10442"/>
        <path id="Path_10443" d="M24.44 17.19l-.05-.07.06.07z" class="cls-1" data-name="Path 10443"/>
        <path id="Path_10444" d="M28 17.14l.05.06v.05l-.05-.06z" class="cls-1" data-name="Path 10444"/>
        <path id="Path_10445" d="M34.28 15.62v-.13z" class="cls-1" data-name="Path 10445"/>
        <path id="Path_10446" d="M29 17.24z" class="cls-1" data-name="Path 10446"/>
        <path id="Path_10447" d="M28.21 17.16v.09-.1z" class="cls-1" data-name="Path 10447"/>
        <path id="Path_10448" d="M29.84 17.12V17a.19.19 0 0 1 0 .08z" class="cls-1" data-name="Path 10448"/>
        <path id="Path_10449" d="M23.2 24.83l-.11.12-.09-.16c.06 0 .13 0 .15-.05a.67.67 0 0 0-.07-.22.154.154 0 0 1-.07.15l-.06-.05a.94.94 0 0 1 .06-.15h.05c.05 0 0-.05 0-.08l-.1-.12.24.18-.11-.16.11.06c-.14-.21-.09-.24 0-.19l-.2-.26.06-.06.22.2c0-.08-.07-.13-.14-.17v-.07c.12.12.15.13.17.07s0-.12.1-.1h.06v-.07a.83.83 0 0 1-.11-.15c.08 0 .15.09.12 0l.19.19.08-.1-.17-.08h.09a1.76 1.76 0 0 1-.12-.2v-.16l.26.21-.05-.08c.14 0 .14 0-.07-.25.1.09.16.11.15 0a.049.049 0 0 1 .05.05l.12.17c.08 0 .1-.06 0-.17h.13l-.01-.13h.06l-.1-.21a.87.87 0 0 1 .19.1c.09.08.14.1.16.08s-.08-.14-.06-.15a.465.465 0 0 1 .12 0h.09l-.11-.09h.11v-.08h.06c-.09-.08-.17-.14-.28-.25l.16.08v-.11c.06.06.08.15.17.16a.59.59 0 0 1 .16.1l-.08-.07v-.16l.15.21.16-.11-.18-.18c-.13 0-.07-.14-.18-.19h.08a1.4 1.4 0 0 0 .35.38c0-.12-.16-.19-.27-.3.11.07.2.11.11 0l-.18-.21a.16.16 0 0 1 .07 0c.13.05.13.05 0-.11h.15l-.04-.11.17.14v.13l.09.1v-.26l.13.1c-.08-.1-.18-.19-.17-.26.08.09.18.17.26.26a.35.35 0 0 1 .05.13.22.22 0 0 1 0 .08c.06 0 .13 0 0-.11s0-.05 0-.09-.2-.11-.3-.22v-.11l.06.14.18.06-.17-.17v-.16l.13.15a.15.15 0 0 1 .08 0c.09 0 .09-.07.12-.12s0 0 .05 0l.06-.05-.13-.1h.18c-.07-.09-.14-.19-.09-.23l.08.08h.09l-.13-.13v-.09l.1.06c-.1-.13 0-.16.15-.07a.18.18 0 0 1 .15-.28v.06a.17.17 0 0 0 .06.06v-.16c0-.02 0-.13.14-.07s0-.05 0-.08v-.06l.06.05.12-.05-.13-.11.17.11v-.08l-.11-.07a.2.2 0 0 1 0-.08h.06c.01 0 .12.09.08 0l.24.12-.12-.14c.07 0 .2 0 .11-.23v-.08c0-.02.1 0 .22.08l-.09-.21.08.11h.13v-.15h-.07l.12-.11.1.1-.08-.09-.05-.08.08.09v-.06a.66.66 0 0 1 .17.1l-.12-.19.2.15-.12-.17.11.09v-.17h-.13c-.09-.16.11 0 .1-.1.11.13.23.19.26.14l-.15-.14H28l-.08-.07v-.09L28 19l-.07-.11H28l.13.13a.212.212 0 0 0-.08-.2c-.08-.06 0-.1.12 0h-.06l.12.05v-.08h.06l-.13-.16h.15a.43.43 0 0 0 0-.05h.1l.08.11-.05.05.13.1v-.08l.08.13v-.16l-.1-.11h.07l.1.06c-.06-.11 0-.12.09 0a.17.17 0 0 0-.06-.06c-.05-.06-.08-.09 0-.07a2 2 0 0 0 .24 0l-.1-.12.19-.07-.07-.07.15-.07.12.15-.05-.08.09-.07c-.16-.11-.05-.11-.08-.15l.12.07a.13.13 0 0 0 0-.07 1.82 1.82 0 0 0-.14-.14v-.18l.07.07h.08l.11.25a.12.12 0 0 0 0-.08c-.06-.08 0-.09 0-.11a.65.65 0 0 0 .11-.12c.21.08.25.05.13-.15a.94.94 0 0 0 .12.09.63.63 0 0 0 .17.1l-.01-.3h.08c0-.06-.21-.14-.18-.23l.07.05a.48.48 0 0 1-.05-.11H30l-.1-.1c.11 0 .16.12.23.2h.08l-.21-.19c.07 0 .07 0 .29.21l-.21-.33a.31.31 0 0 0 .11-.08h.09a.41.41 0 0 1 .05.09c0 .06 0 .07.12.09s0-.06 0-.07.07-.05.08-.11l-.16-.07a.136.136 0 0 1 .16-.14c.16.02.05-.09.08-.14l.15.09a.57.57 0 0 1-.07-.12v-.06l-.08-.09.24.14v.09a.63.63 0 0 0 .09.14l-.08.06v.05l.14-.1v-.06l-.14-.06h.13l-.1-.08c-.05 0-.07-.11 0-.11v-.05l.06.08.08.1v-.09l.09.09c0-.12 0-.12-.2-.22v-.09l.09.1c.09 0 .06-.05 0-.13s.06 0 .09 0h.07a1 1 0 0 1 .08.11l-.06-.06.13.11.05-.12-.17-.11h.05a.224.224 0 0 1 .17.1l.08.08.08-.06v.12c.05 0 .16.08.15 0s.05-.07.07-.11v-.05h-.06c0 .1-.14 0-.2 0a.182.182 0 0 1-.16-.06l-.11-.2a.25.25 0 0 1 0-.09.22.22 0 0 1 .13.06.31.31 0 0 0 .09.07c0-.08-.16-.14-.14-.21s.09 0 .24.08h-.13a.74.74 0 0 0 .16.12c.08 0 .06 0 0-.12l-.08-.09a.124.124 0 0 1-.1-.12.09.09 0 0 1 .06-.06h.08l-.13-.18.21.11c.11 0-.07-.32.16-.23-.12-.13 0-.15-.06-.22s.06.05.07.12.07 0 0-.12c0 0 .27.19.09-.06l.13.06c-.07-.13.06 0 .1 0V15h.09l-.06-.07a1.29 1.29 0 0 0 .21-.07s0-.15.14-.12l.18.18a.17.17 0 0 1 0 .07v.08h.1a.129.129 0 0 0 .12.12v.09c.13.06.16.1.18.2s.12.07.14.22a.21.21 0 0 1 .11 0s.26.27.31.32.1.13.16.19.07.09 0 .07-.1 0-.07.07l.17.06h.08a.31.31 0 0 1 0 .08l.18.22h-.13v-.08c-.13-.05-.12 0-.14.11s-.07.08-.1.12-.16.09-.21.17-.13.08-.21.11v.1c0 .01-.08 0-.12 0l.09.05s0 .09-.16 0l.11.08h-.06s-.08 0-.09.06a.61.61 0 0 1-.07.1.1.1 0 0 1-.07 0c-.07 0-.06 0 0 .12-.08 0-.12 0-.12.11s0 .06-.06.09-.06.12-.12.14a.64.64 0 0 0-.19.13 1.93 1.93 0 0 0-.22.28c0 .06-.12.08-.18.12a.106.106 0 0 1-.08.1c-.08.02-.07 0 0 .05l-.11-.11.11.13-.14-.1v.26l-.08-.05-.06.1c0 .06 0 .06-.07 0l.06.09-.16-.11v.05h-.2v.05a.22.22 0 0 1-.11 0v.05l.14.08h-.13s.05.13-.06.09c.05.07 0 .1 0 .13a.68.68 0 0 0-.12.12.27.27 0 0 1-.11.1h-.16a.22.22 0 0 0-.05.11.34.34 0 0 0 0 .1v.05h-.2c.05.13 0 .16-.07.13s-.07 0-.06.05 0 .16-.12.11v-.09.1h-.08v.15a.11.11 0 0 1 0 .05l-.1-.09v.08h-.08a1.58 1.58 0 0 0 .13.18l-.12-.08v.09l-.08-.1c0 .11 0 .13-.13 0l.12.14-.12-.08c0 .06.1.2-.05.11v.14h-.06c-.06 0-.11-.05-.06 0s0 .11-.05.07-.08 0-.11 0 0 0 0 .05v.11a.708.708 0 0 1-.16.19 1.09 1.09 0 0 1-.17.05.08.08 0 0 0 0 .07c0 .12-.08.12-.19.1v.17a.21.21 0 0 0-.13.05.27.27 0 0 0 0 .07h-.14v.1a.74.74 0 0 1-.13.12l-.06-.11v.13c-.1 0-.07.08-.11.13s0 .22-.17.16 0 0 0 .06 0 .1-.06.12a.53.53 0 0 1-.17 0l-.15-.19.06.15-.14-.08.17.17v.14l-.49.47.1.22s-.08.08-.26-.06l.11.19h-.26l.08.09-.11-.07-.05.16-.06-.06-.05.19-.22-.15v.08h.12c0 .09-.14 0-.23-.06v.05l-.13-.1.19.2a.1.1 0 0 1-.06.09c-.06.02-.1.05-.07.14s0 0-.06 0l.1.08-.05.08-.08-.07c-.15-.06 0 .1 0 .15l-.2-.12.05.25-.12-.1v.13h.09c0 .07 0 .07-.06.07l-.09-.15v.11l.12.12-.21.1v.14l-.12-.11a.14.14 0 0 1 0 .06v.1l-.11-.06-.09-.06.07.11.08.09-.15-.11.14.14a.19.19 0 0 1-.11 0l-.16-.09c.07.08.11.14 0 .14s0 0-.06.07l-.06.07v.16l-.12-.13.13.17h-.07l-.1.16c-.13-.09-.2-.08-.24 0l.07.08-.14.15a.5.5 0 0 0 0 .12c-.1 0 0 .09-.08.11l-.19.12-.05.07a.75.75 0 0 0-.2 0v.09l-.06-.07a.36.36 0 0 0 0 .11h-.06a.28.28 0 0 0-.16-.16h-.06v-.08a.73.73 0 0 0-.18-.17l-.08-.1c.07 0 .07 0 0-.13a.09.09 0 0 1 0 .05c-.12-.17-.23-.17-.35-.27v-.06l.13.1a.88.88 0 0 0-.15-.14h-.11c-.04 0-.08-.14.06-.17l-.11-.06-.08-.1v.12zm9.54-9.66l-.11-.09s.05.1.11.09zm-.15 0v-.09h.07l-.09-.08c0 .13-.12 0-.14 0zM34 16.56l.08.05h-.07zm-1.68-1.36l.16.09h.06c.06 0 .09.07.14.13a1.5 1.5 0 0 0-.09-.18 1.06 1.06 0 0 0-.1-.12l.08.1-.13-.09v.09zm.47.58l.09.09-.09-.1zm-.15.23v.07zm-.46-.55c.1.09.12.09.1 0l.11-.05h-.13v-.09h-.13l.16.12zm.62.67v-.05zm-.37-.25l-.17-.16v-.09l-.18-.16.06.11h-.11c.22.19.38.34.4.3zm-.54-.27h.14c-.09-.11-.15-.1-.14 0zm.07.15h.1l.06.1h.11a2.6 2.6 0 0 0-.23-.16h-.08zm0 .06v-.06h-.06a.2.2 0 0 0 .02.06zm0 .09L32 16zm-.24-.19h.05zm.19.3a.266.266 0 0 0-.11-.2c-.11-.08-.07.06.09.18zm-.11.07a.3.3 0 0 0-.08-.24v.11zm0 .07a.67.67 0 0 0 .12.06v-.07zm.1.16zm.17.26v-.06zm-.53-.12zm-.25.27l-.08-.12a.15.15 0 0 0 0 .09.127.127 0 0 1 .08.03zm.13.16v.05zm-.35-.25l.15.13-.15-.12zm.06.17v-.05zm-.37-.06v-.06zm.76 1.17a.851.851 0 0 0-.14-.09.94.94 0 0 1 .14.09zm-1.21-.71h.09l-.08-.11zm-.16.22l-.15-.15c.07.13.07.13.15.15zm1.41 1.76v-.12a.25.25 0 0 0 0 .08zm-2-.25l-.08-.11zm-.12 0l.11.06-.13-.16zm.79.82h.07c-.11-.11-.1 0-.1 0zm-.87-.4l-.05-.09h-.05zm-.36-.13zm.18.42l.05.11h.05zm-.14-.16zm-.58-.72l-.15-.17c.05.06.11.11.17.17zm-.09.17h.1l-.07-.17-.07.14zm.27.29v-.16l-.23-.13zm1.39 1.38l-.12-.11c.09.08.09.13.14.11zm-1.59-1.42v-.08zm-.21-.14h.08l-.14-.11zm.15.5l.15-.09c-.14-.1-.19-.06-.13.09zm-.34-.36v-.06zm.16.19zm-.13.25h.12l.06.11v-.07l-.25-.24.07.09zm1.11 1.14l-.07-.06zm0 .49h.1l-.07-.1zm-.14 0l.07-.08h-.13zm-1.73-1.63l.18.11c-.07-.16-.09-.17-.12-.12zm.22.37l.12.08V20h-.08v-.05c-.04-.1.03.05.02.05zm.38.4v-.08zm-.11.21c.11.08.18.09.16 0a1.12 1.12 0 0 0-.19-.21l.1.17zm-.48-.46L27.3 20zm.36.74v.06zm-.38-.44v.09h.05v-.09zm-.26-.17l.12.11zm-.1-.05h.09l-.1-.07zm1.49 1.64v.06l.09.08zM27 20.47l-.15-.15zm.48.52l.24.15-.22-.3zm-.76-.57h.17l-.1-.13-.09.05zM28 22.05zm-.68-.54l.08-.07-.15-.14a1.112 1.112 0 0 1 .08.21zm-.15.27l-.06-.08zm-.16 0a.31.31 0 0 0 .09.07l-.1-.13v.02zm-.53-.22zm-.48-.3v-.11zm.13.24h.06l-.06-.06zm.3.55l.06.1zm-.24-.14c-.09-.1-.09-.09-.02 0zm-.4-.13l-.07-.09zm.11.22l.13.07-.15-.12zm.5.64v.07-.08zm-.66-.52h.11l-.2-.12h-.09zm0 .18h-.01zm-.59 0h.06v-.05h-.06zm-.07.05h.06v-.06h-.07zm.18.26c.07 0 .07 0 0-.1zm-.21.19v-.08zm-.12.34l-.1-.12zm1 1.09zm-.21-.1h.11l-.07-.1zm-1.3-.78h.01zm.08.17h.21l-.14-.12c0 .08-.08.08-.19 0a.18.18 0 0 0 .09.11zm-.08 0l-.14-.14c.03.13.06.16.11.16zm-.45 0v-.08h-.08zm.48.93zm-.4-.45a.46.46 0 0 1-.07-.07.12.12 0 0 1 0-.08v.08zm-.12 0H24l-.14-.11zm-.31-.3l.1.1v-.06zm1.23 1.86l.14.1-.14-.09zm-1.6-1.55l-.11-.13zm.57 1l-.08.08.23.07zm-.07-.01l-.13-.05zm.69.68h.17l-.24-.23zm-.91-.8a1 1 0 0 1 0-.12.21.21 0 0 1 0-.11l-.11-.06v.12l-.14-.09c.12.07.14.21.25.26zm.08.14v.06h.05v-.07zm-.28-.16h.13l-.17-.18z" class="cls-1" data-name="Path 10449"/>
        <path id="Path_10450" d="M27.5 20v-.08z" class="cls-1" data-name="Path 10450"/>
        <path id="Path_10452" d="M25.12 24.93l-.05-.08z" class="cls-1" data-name="Path 10452"/>
        <path id="Path_10453" d="M25.4 25.24v-.05z" class="cls-1" data-name="Path 10453"/>
        <path id="Path_10454" d="M31.85 16.06l.08.05z" class="cls-1" data-name="Path 10454"/>
        <path id="Path_10455" d="M32.41 15.72v.06z" class="cls-1" data-name="Path 10455"/>
        <path id="Path_10457" d="M24.27 23.54h.05z" class="cls-1" data-name="Path 10457"/>
        <path id="Path_10460" d="M24.42 23.9v.05z" class="cls-1" data-name="Path 10460"/>
        <path id="Path_10463" d="M25.11 22.91v-.05z" class="cls-1" data-name="Path 10463"/>
        <path id="Path_10464" d="M25.85 22.09l.07.09z" class="cls-1" data-name="Path 10464"/>
        <path id="Path_10465" d="M29.82 17.48c-.06.07-.06.07-.14 0l-.05-.14.19.12z" class="cls-1" data-name="Path 10465"/>
        <path id="Path_10466" d="M23 24v.1h-.08c-.06-.1-.03-.1.08-.1z" class="cls-1" data-name="Path 10466"/>
        <path id="Path_10467" d="M23.18 25h.07v-.08c.09.09.17.15.11.19l-.19-.11z" class="cls-1" data-name="Path 10467"/>
        <path id="Path_10468" d="M22.77 24.09c.15.16 0 .06 0 .13-.13-.14-.02-.1 0-.13z" class="cls-1" data-name="Path 10468"/>
        <path id="Path_10469" d="M22.72 24.61c-.11-.11-.14-.17-.08-.19l.07.11.09.09s-.13-.14-.08-.01z" class="cls-1" data-name="Path 10469"/>
        <path id="Path_10470" d="M24.56 22.23l.09.19-.1-.2z" class="cls-1" data-name="Path 10470"/>
        <path id="Path_10471" d="M29.62 17.29h.1a.36.36 0 0 1 0 .07s-.02.02-.1-.07z" class="cls-1" data-name="Path 10471"/>
        <path id="Path_10472" d="M29.38 17.53c.05 0 .06 0 .13.08s0 0 0 .05l-.14-.1z" class="cls-1" data-name="Path 10472"/>
        <path id="Path_10473" d="M32.29 14.67v.08h-.07z" class="cls-1" data-name="Path 10473"/>
        <path id="Path_10474" d="M23.61 23.49h-.05a1.59 1.59 0 0 1-.13-.13z" class="cls-1" data-name="Path 10474"/>
        <path id="Path_10475" d="M29.93 17l.07-.1v.1z" class="cls-1" data-name="Path 10475"/>
        <path id="Path_10476" d="M28.68 18.37v.07c0 .01-.05 0-.08 0h.05z" class="cls-1" data-name="Path 10476"/>
        <path id="Path_10477" d="M26.5 24.29l-.1-.07.1.08z" class="cls-1" data-name="Path 10477"/>
        <path id="Path_10478" d="M30.4 16.89a.22.22 0 0 1 0 .08l-.06-.07h.07z" class="cls-1" data-name="Path 10478"/>
        <path id="Path_10479" d="M29.89 17.42l-.12-.12c.1.02.1.02.12.12z" class="cls-1" data-name="Path 10479"/>
        <path id="Path_10480" d="M24 22.92v-.09h.06L24 23z" class="cls-1" data-name="Path 10480"/>
        <path id="Path_10481" d="M28.61 18.28z" class="cls-1" data-name="Path 10481"/>
        <path id="Path_10482" d="M24.17 22.72h-.07v-.05h.07z" class="cls-1" data-name="Path 10482"/>
        <path id="Path_10483" d="M23.8 23.23l-.09-.07h.05z" class="cls-1" data-name="Path 10483"/>
        <path id="Path_10484" d="M25.43 21.46l.05-.05.05.09h-.1z" class="cls-1" data-name="Path 10484"/>
        <path id="Path_10486" d="M24.33 26.15h-.07a.08.08 0 0 1 0-.05z" class="cls-1" data-name="Path 10486"/>
        <path id="Path_10487" d="M23.93 25.82v-.05z" class="cls-1" data-name="Path 10487"/>
        <path id="Path_10488" d="M29.21 17.94a.43.43 0 0 0 0-.05z" class="cls-1" data-name="Path 10488"/>
        <path id="Path_10489" d="M28.57 18.53l-.08-.07.07.06z" class="cls-1" data-name="Path 10489"/>
        <path id="Path_10490" d="M23.54 23.33l.09.07z" class="cls-1" data-name="Path 10490"/>
        <path id="Path_10491" d="M27.2 19.65z" class="cls-1" data-name="Path 10491"/>
        <path id="Path_10492" d="M25.55 21.38h-.01z" class="cls-1" data-name="Path 10492"/>
        <path id="Path_10493" d="M23.64 25.43l.1.09-.1-.08z" class="cls-1" data-name="Path 10493"/>
        <path id="Path_10494" d="M25 21.76h.05z" class="cls-1" data-name="Path 10494"/>
        <path id="Path_10495" d="M25.43 21.46l-.08-.05.07.08z" class="cls-1" data-name="Path 10495"/>
        <path id="Path_10496" d="M24.69 22.27l.06.06-.06-.05z" class="cls-1" data-name="Path 10496"/>
        <path id="Path_10497" d="M15.16 15.26l-.16-.11.16-.09c0 .06 0 .13.05.14a.274.274 0 0 0 .21-.06l-.1-.14.06-.06.16.07v.05h.09l.12-.1-.18.25.16-.11-.06.11c.2-.14.23-.09.18 0l.2-.17.07.07-.2.22c.08 0 .12-.07.16-.14h.08c-.11.11-.12.14-.06.17s.12 0 .1.1a.08.08 0 0 1 0 .05h.06a.91.91 0 0 1 .16-.11c-.05.07-.1.15 0 .12l-.19.19.09.07.09-.16v.09l.21-.12h.16l-.22.26.09-.06c0 .15 0 .15.25-.06q-.14.15 0 .15l-.17.12c0 .08.06.1.17.05v.13l.23-.15v.06l.21-.1a.87.87 0 0 1-.1.19c-.07.09-.09.14-.07.16s.14-.08.15-.07a.535.535 0 0 1 0 .13v.08l.08-.11v.11l.08-.05v.06l.25-.28-.07.15h.11c-.06.06-.15.08-.17.17a.4.4 0 0 1-.09.16l.07-.08h.17l-.21.15.11.15.18-.17c0-.13.14-.07.19-.18v.08a1.23 1.23 0 0 0-.37.35c.12 0 .19-.16.29-.27-.06.11-.1.2 0 .11l.09-.09A.16.16 0 0 1 18 17c-.05.13-.05.13.11 0v.07a.59.59 0 0 1 0 .08l.09-.15-.13.17a.1.1 0 0 1-.07 0h-.06l-.1.1h.25l-.09.13c.09-.08.18-.18.26-.17l-.27.26a.26.26 0 0 1-.12.05.22.22 0 0 1-.08 0c0 .05 0 .13.11 0s.05 0 .08 0 .12-.19.23-.3h.11l-.14.06-.07.18.18-.17h.16l-.15.12a.24.24 0 0 1 0 .09c0 .08.07.09.12.12s0 0 0 .05v.06a1.13 1.13 0 0 0 .1-.13h.05v.18c.09-.07.18-.14.23-.09l-.09.08v.09l.14-.13h.09l-.07.11c.14-.1.16 0 .08.15a.17.17 0 0 1 .27.14l-.07.05h.17c.03 0 .13 0 .07.14s0 0 .07 0h.07l-.06.06.06.12.11-.12-.11.17h.08l.07-.12h.07v.06c0 .01-.09.12 0 .08l-.12.23.14-.11c0 .07 0 .2.23.11h.08c.02 0 0 .09-.08.22l.21-.09-.1.07v.14h.15a.25.25 0 0 1 0-.07l.11.12-.11.1.09-.08.07-.05-.09.08h.07a1.19 1.19 0 0 1-.1.17l.18-.12-.14.2.16-.12-.09.11h.17v-.13c.16-.09 0 .11.11.1-.13.1-.19.22-.14.26l.13-.15v.14l.07-.08.25.36v.07l.11-.07v.08l-.13.13.2-.08c.08 0 .1 0 0 .12v-.06.12h.08v.06l.16-.13v.25l-.11.08-.05-.05-.1.12h.08l-.13.08.16.05.11-.11v.08l-.05.1c.11-.06.12 0 0 .09l.07-.06c.06 0 .09-.08.07 0a.963.963 0 0 0 0 .24l.13-.1.06.19.08-.07.07.15-.15.12.09-.05.06.09c.12-.16.11-.05.15-.08a.63.63 0 0 1-.07.12h.07l.14-.14h.17l-.06.07v.07l-.26.12h.19l.13.11c-.08.21-.05.25.14.13l-.09.12-.09.16.17-.14v.08c.06 0 .14-.21.23-.18v.07h.11v.08l.11-.1c0 .11-.13.16-.2.23v.08l.17-.17c0 .07 0 .07-.21.28l.29-.2a.18.18 0 0 0 .08.11v.08a.21.21 0 0 1-.1.06c-.06 0-.06 0-.08.11h.07a.27.27 0 0 0 .1.08l.07-.16h.05a.136.136 0 0 1 .14.16c-.02.16.08 0 .13.08l-.09.15c.06 0 .1-.07.13-.07h.05l.1-.08-.15.24a.15.15 0 0 0-.09 0 .61.61 0 0 0-.13.09l-.06-.08h-.05a.71.71 0 0 0 .1.14h.05l.07-.14a.16.16 0 0 0 0 .06v.06l.08-.09c.05-.05.11-.07.12 0h.05l-.08.06a.59.59 0 0 0-.11.08h.1l-.09.09c.11 0 .11 0 .21-.21h.1l-.11.09c0 .09.06.06.14 0s0 .06 0 .09a.15.15 0 0 1 0 .07l-.11.08.06-.06-.1.13.11.05.12-.17v.05a.224.224 0 0 1-.1.17.59.59 0 0 0-.08.08l.06.08h-.11c0 .05-.08.16 0 .15s.08 0 .11.07h.05v-.06c-.1 0 0-.14 0-.2a1 1 0 0 1 .07-.16l.09-.11h.08a.205.205 0 0 1-.05.12.61.61 0 0 0-.07.1c.07 0 .14-.16.2-.14s0 .09-.07.24v-.13a.66.66 0 0 0-.11.16c0 .08 0 .06.12 0l.08-.08c.05-.06.1-.11.13-.1a.06.06 0 0 1 .05.06v.08l.18-.13-.12.21c0 .11.33-.08.24.16.13-.12.14-.05.21-.06s-.05.06-.11.07 0 .07.12 0-.2.27.05.09l-.05.13c.13-.07 0 .06 0 .1h.12v.09l.07-.06a.74.74 0 0 0 .07.21s.15 0 .12.14l-.18.18a.15.15 0 0 1-.08 0h-.07v.11a.12.12 0 0 0-.12.11h-.09c-.07.12-.11.16-.21.18s-.06.12-.21.14 0 .07 0 .11-.26.26-.31.31l-.19.16c-.09.1-.09.07-.07 0s0-.1-.07-.07l.07.19a.36.36 0 0 1 0 .09h-.07l-.22.18v-.13h.08c.05-.13-.05-.12-.11-.15a.448.448 0 0 1-.13-.1c-.04-.04-.08-.16-.17-.2s-.07-.14-.1-.21h-.09c-.01 0 0-.08 0-.13l-.06.09c0-.06-.09 0 0-.16l-.08.1v-.06s0-.08-.07-.09l-.09-.07s-.05 0-.05-.07 0-.06-.12 0c0-.08 0-.12-.1-.12s-.06 0-.09-.06-.12-.06-.14-.12a.64.64 0 0 0-.13-.19 1.93 1.93 0 0 0-.28-.22c-.07 0-.09-.12-.12-.18a1.1 1.1 0 0 1-.1-.08c-.03-.03 0-.07 0 0l.1-.11L21 24l.1-.15h-.25l.05-.08-.1-.06c-.06 0-.06 0 0-.07l-.08.06.11-.16a.1.1 0 0 1-.05 0v-.2c0-.06-.05 0-.06 0s0-.08 0-.11l-.09.13v-.12s-.14.05-.1-.06c-.07.05-.1 0-.12 0a.5.5 0 0 0-.13-.12.33.33 0 0 1-.09-.11v-.09a.08.08 0 0 0 0-.07.22.22 0 0 0-.12 0h-.14a1.5 1.5 0 0 1 0-.2c-.13.06-.15.05-.12-.06s0-.07-.05-.06-.17 0-.11-.12h-.02v-.08h-.2l.09-.1h-.09v-.08l-.19.13.08-.12h-.22l.1-.08c-.11 0-.12 0 0-.13l-.14.12.07-.12s-.19.1-.1-.05h-.14v-.05c.07-.09.06-.11 0-.06s-.11 0-.07-.05 0-.08 0-.11h-.12a.708.708 0 0 1-.19-.16 1.09 1.09 0 0 0-.05-.17h-.07c-.07 0-.11-.08-.1-.19a.159.159 0 0 1-.16 0 .29.29 0 0 0-.05-.13H18v-.14a.15.15 0 0 1-.1 0l-.11-.13.11-.06h-.14c.05-.11-.07-.07-.12-.11s-.22 0-.16-.17 0 0-.06 0-.1 0-.12-.06a.42.42 0 0 1 0-.16l.18-.15-.16.06.09-.14-.17.17h-.14l.09-.07-.21.1s-.08-.08.06-.26l-.19.11v-.26l-.1.07.08-.1h-.16l.06-.06-.2-.05.16-.22h-.08l-.05.11c-.09 0 0-.14.07-.22h-.05l.1-.12-.21.19a.47.47 0 0 1-.09-.06s0-.1-.13-.07 0 0 0-.06l-.08.1h-.08l.13-.08c.06-.14-.1 0-.15 0l.11-.2-.24.05.09-.12h-.12v.09c-.07 0-.07 0-.07-.07l.15-.08h-.12l-.11.12-.11-.21h-.13L15.4 18h-.1l.06-.09-.11.06-.09.09.12-.15-.14.14v-.11c0-.05.06-.1.09-.17-.08.08-.14.12-.14 0s-.05 0-.07-.06l-.07-.06h-.17l.14-.12-.17.13v-.07l-.16-.1c.09-.13.08-.2 0-.25l-.08.08-.15-.14h-.12c0-.09-.09 0-.12-.07a1.22 1.22 0 0 0-.12-.19l-.06-.05a.88.88 0 0 0 0-.2h-.09l.06-.06h-.1v-.06c.06 0 .13-.1.15-.16v-.06l.09-.05a.73.73 0 0 0 .17-.18l.1-.08s0 .07.13 0h-.05c.17-.11.17-.22.27-.34h.06l-.1.13a.88.88 0 0 0 .14-.15v-.11c0-.03.15-.08.18 0l.08-.11.11-.09h-.12zm9.66 9.54l.09-.11c-.05.02-.1.05-.09.11zm0-.15h.09v.07l.11-.13c-.12 0 0-.12 0-.14zM23.43 26l-.05.08.05-.07zm1.36-1.66l-.09.16v.06a.79.79 0 0 1-.13.14l.18-.09a1.06 1.06 0 0 0 .12-.1l-.1.08.08-.14a.11.11 0 0 1-.08 0s.03-.04.02-.07zm-.58.47l-.09.09zM24 24.7zm.55-.46c-.09.1-.09.12 0 .1l.05.1v-.13h.1v-.12l-.13.16zm-.67.62zm.25-.37l.15-.17h.09l.17-.18-.11.06v-.11c-.21.22-.36.38-.32.4zm.27-.54v.14c.09-.09.08-.15-.02-.09zm-.15.07v.1l-.1.06v.11a1.07 1.07 0 0 0 .19-.22v-.08zm-.09-.02h.07v-.06zm-.08 0l-.09.08zm.19-.24zM24 24a.215.215 0 0 0 .2-.11c.08-.11-.09-.1-.2.11zm-.07-.11a.284.284 0 0 0 .23-.08h-.1zm-.08 0l-.06.12h.08zm-.15.09V24v-.07zm-.26.18zm.12-.53zm-.27-.25l.11-.08a.12.12 0 0 0-.08 0zm-.16.13zm.25-.35l-.13.15.13-.16zm-.18.05zm.06-.36zm-1.17.76v.07a1.21 1.21 0 0 0 .1-.14.6.6 0 0 1-.13.04zm.72-1.21v.09l.11-.08zm-.23-.16c.05-.06.11-.11.16-.16-.16.05-.16.05-.19.13zm-1.76 1.41h.04zm.26-2.05l.11-.09zm0-.12l-.05.11.16-.13zm-.81.79v.07c.11-.11.05-.1 0-.11zm.4-.87h.09v-.05zm.13-.29v.05a.08.08 0 0 0 0-.05zm-.42.18l-.11.05v.05zm.16-.14zm.72-.58l.18-.15a.32.32 0 0 0-.22.12zm-.17-.09v.1l.16-.07-.14-.07zm-.29.27h.16l.12-.23zm-1.38 1.39l.1-.12c-.11-.02-.17.03-.14.09zm1.41-1.59zm.15-.21v.08l.12-.14zm-.5.15l.09.15c.06-.19.01-.24-.13-.18zm.35-.34zm-.18.16v.07zm-.25-.13v.12l-.1.06h.06l.25-.29-.09.06zm-1.14 1.11l.07-.07zm-.5 0v.1l.11-.07zm0-.15l.07.08.05-.14zm1.62-1.72l-.1.18c.12-.12.13-.14.08-.17zm-.36.22l-.09.12H20v-.08h.06c.08-.09-.06-.02-.06-.03zm-.41.38zm-.2-.11c-.09.11-.1.18 0 .16a1.12 1.12 0 0 0 .21-.19l-.17.11zm.45-.48l.1-.09zm-.74.36zm.44-.38h.01zm.18-.26l-.11.12zm.05-.1v.09l.07-.1zm-1.65 1.49h-.06l-.07.09zm1.39-1.48l.14-.15zm-.51.48c-.05.07-.1.16-.15.24l.3-.21zm.57-.76l-.05.17.13-.1-.06-.09zm-1.63 1.28V20v.05zm.54-.68l.07.07.14-.14zm-.27-.15l.08-.06zm0-.16l-.07.08.13-.09zm.22-.53zm.27-.51l.12-.07zm-.25.12v.06l.05-.06zm-.54.31l-.1.06h.05zm.13-.24c.11-.06.11-.06.01.01zm.14-.4l.09-.07a.27.27 0 0 0-.08.08zm-.22.11l-.07.13.12-.15zm-.64.5h.01zm.52-.66v.1l.11-.17v-.09a.79.79 0 0 0-.1.17zm-.18 0v.06-.07zm0-.59v.06l.06-.05zm0-.08a.2.2 0 0 0 0 .07h.05v-.07zm-.26.18c0 .08 0 .08.1 0zm-.2-.2zm-.36-.08l.11-.1zm-1.09 1zm.1-.21v.11l.1-.07zm.77-1.3v.06h.05v-.06zm-.16.08a1.41 1.41 0 0 0 0 .21l.12-.14c-.07 0-.07-.08 0-.19a.16.16 0 0 0-.12.08zm0-.08l.15-.14c-.15.02-.18.04-.19.1zm0-.45l.08.05v-.08s-.1-.01-.12-.01zm-.94.48zm.46-.42a.13.13 0 0 1 0-.05l.06-.07h.01zm0-.11l.05.07.11-.14zm.29-.32l-.09.11h.06zm-1.85 1.24l-.1.14.09-.14zm1.55-1.61l.13-.12zm-1 .58l-.07-.08-.07.22zm.07-.07l.06-.13zm-.68.69v.17l.23-.24zm.8-.91h.12a.18.18 0 0 1 .1 0l.07-.11h-.12l.09-.13c-.14.11-.28.12-.33.24zm-.14.08h-.06v.05h.07zm.16-.28v.12l.19-.16z" class="cls-1" data-name="Path 10497"/>
        <path id="Path_10502" d="M23.93 23.91l-.06.07z" class="cls-1" data-name="Path 10502"/>
        <path id="Path_10504" d="M24.76 24.31v.05z" class="cls-1" data-name="Path 10504"/>
        <path id="Path_10505" d="M16.45 16.33v.05z" class="cls-1" data-name="Path 10505"/>
        <path id="Path_10506" d="M21.62 21.52h.05s-.04-.01-.05 0z" class="cls-1" data-name="Path 10506"/>
        <path id="Path_10508" d="M16.09 16.48z" class="cls-1" data-name="Path 10508"/>
        <path id="Path_10509" d="M24.48 24.52v.06z" class="cls-1" data-name="Path 10509"/>
        <path id="Path_10512" d="M17.9 17.91l-.09.06z" class="cls-1" data-name="Path 10512"/>
        <path id="Path_10513" d="M22.51 21.87c-.07-.05-.07-.05 0-.14h.13l-.12.19z" class="cls-1" data-name="Path 10513"/>
        <path id="Path_10514" d="M16 15.05h-.11V15c.11-.08.11-.06.11.05z" class="cls-1" data-name="Path 10514"/>
        <path id="Path_10515" d="M15 15.24l-.05.07h.09c-.09.09-.16.17-.19.1l.13-.14z" class="cls-1" data-name="Path 10515"/>
        <path id="Path_10516" d="M15.9 14.83c-.16.15-.06 0-.13 0 .14-.14.1-.02.13 0z" class="cls-1" data-name="Path 10516"/>
        <path id="Path_10517" d="M15.37 14.78c.12-.11.18-.14.2-.08a1.05 1.05 0 0 0-.11.07.76.76 0 0 0-.09.09s.14-.13 0-.08z" class="cls-1" data-name="Path 10517"/>
        <path id="Path_10518" d="M17.76 16.62l-.19.09v-.05l.2-.1z" class="cls-1" data-name="Path 10518"/>
        <path id="Path_10519" d="M22.7 21.67v.11h-.07s-.02-.02.07-.11z" class="cls-1" data-name="Path 10519"/>
        <path id="Path_10520" d="M22.46 21.43c-.05.06 0 .07-.08.14h-.05l.09-.13z" class="cls-1" data-name="Path 10520"/>
        <path id="Path_10521" d="M25.32 24.35h-.08a.08.08 0 0 1 0-.07z" class="cls-1" data-name="Path 10521"/>
        <path id="Path_10522" d="M16.49 15.67v-.05l.13-.13z" class="cls-1" data-name="Path 10522"/>
        <path id="Path_10523" d="M23 22l.07.05z" class="cls-1" data-name="Path 10523"/>
        <path id="Path_10524" d="M21.62 20.74h-.07a.31.31 0 0 1 0-.09v.05z" class="cls-1" data-name="Path 10524"/>
        <path id="Path_10525" d="M15.7 18.56l.06-.1h.05l-.08.1z" class="cls-1" data-name="Path 10525"/>
        <path id="Path_10526" d="M23.09 22.46H23l.06-.06v.07z" class="cls-1" data-name="Path 10526"/>
        <path id="Path_10527" d="M22.57 22l.12-.12c-.02.05-.02.05-.12.12z" class="cls-1" data-name="Path 10527"/>
        <path id="Path_10528" d="M17.07 16h.09v.06h-.09z" class="cls-1" data-name="Path 10528"/>
        <path id="Path_10529" d="M21.71 20.67z" class="cls-1" data-name="Path 10529"/>
        <path id="Path_10530" d="M17.27 16.23v-.07z" class="cls-1" data-name="Path 10530"/>
        <path id="Path_10531" d="M16.76 15.86l.06-.09.05.05z" class="cls-1" data-name="Path 10531"/>
        <path id="Path_10532" d="M18.53 17.49v.05h-.09l.05-.09z" class="cls-1" data-name="Path 10532"/>
        <path id="Path_10534" d="M13.83 16.39v-.07h.05z" class="cls-1" data-name="Path 10534"/>
        <path id="Path_10535" d="M14.17 16h.05z" class="cls-1" data-name="Path 10535"/>
        <path id="Path_10537" d="M21.46 20.63l.06-.08a.22.22 0 0 1-.05.08z" class="cls-1" data-name="Path 10537"/>
        <path id="Path_10538" d="M16.65 15.6l-.06.09.07-.09z" class="cls-1" data-name="Path 10538"/>
        <path id="Path_10539" d="M20.34 19.25v.08-.07z" class="cls-1" data-name="Path 10539"/>
        <path id="Path_10540" d="M18.61 17.61v-.07z" class="cls-1" data-name="Path 10540"/>
        <path id="Path_10541" d="M14.56 15.7l-.09.1.09-.11z" class="cls-1" data-name="Path 10541"/>
        <path id="Path_10542" d="M18.22 17.08v.05z" class="cls-1" data-name="Path 10542"/>
        <path id="Path_10543" d="M18.53 17.49v-.08l-.07.07z" class="cls-1" data-name="Path 10543"/>
        <path id="Path_10544" d="M17.72 16.74l-.06.07.05-.06z" class="cls-1" data-name="Path 10544"/>
        <path id="Path_10545" d="M23.23 34.39v.12h-.17s.09-.06.07-.09-.13-.05-.2-.08l.07.11h-.08a.53.53 0 0 1-.06-.1v-.06h-.03c-.24 0-.22-.08-.12-.1h-.25V34h.29c-.05-.05-.13 0-.21 0h.01c.16 0 .19 0 .17-.06s-.08-.06 0-.1h-.2c.08 0 .17 0 .08-.07h.27v-.09h-.18v-.06h-.24c-.06 0-.07-.05-.12-.08h.24c.12-.06.09-.07-.23-.09.13 0 .18 0 .12-.06h.28c.06 0 0-.08-.09-.11l.12-.05h-.07a.85.85 0 0 1-.15 0l.08-.07h-.22l-.09-.05h.24a.74.74 0 0 1 .18 0h-.1l-.12-.09h.25v-.13h-.25c-.1.06-.15 0-.26 0v-.06a1.51 1.51 0 0 0 .52 0 1.3 1.3 0 0 0-.4 0c.12 0 .22 0 0-.07h-.08c.13 0 .13 0-.06-.06h.42l-.21-.1h.23a.21.21 0 0 1 .12 0 .316.316 0 0 1 .2-.6s.11-.06-.05-.08 0 0 0-.05-.22 0-.37 0l-.06-.06h.07l-.11-.09h.19v-.17h-.23l.14-.09c-.13 0-.24 0-.23-.08h.11l.06-.05h-.18l-.05-.06h.12c-.16 0-.13-.07.06-.12-.14 0-.2-.14-.1-.21s0 0 .05 0a.11.11 0 0 0 .08 0s-.12-.05-.12-.08-.08-.07 0-.1 0 0 0-.05h.03v-.09h.03l-.05-.05h-.13a.39.39 0 0 1 0-.06h.06c.17 0 .15 0 0-.05h.08c0-.06.11-.13-.09-.17v-.06c0-.06.05-.06.22-.07l-.21-.06h.15l.09-.07-.13-.06h-.13v-.13h.11v-.05a1.18 1.18 0 0 1 .19 0h-.04l-.12-.08-.1.06c-.17 0 .06-.06 0-.1.17 0 .29 0 .28-.06h-.2l.1-.07h-.11v-.05h-.05v-.05h.19l-.2-.06c-.08 0-.07 0 .06-.08h-.11l.09-.09a.43.43 0 0 1 0-.07h.38l-.08-.11h-.05c-.11 0-.11 0 0-.07h-.15l.2-.11h.01l.08-.12h-.1l.06-.11h.1V28h-.11a1.31 1.31 0 0 0-.2 0l-.13-.09h.1l.26.06h-.16a.48.48 0 0 0 0-.12c.2-.07.2-.1 0-.14h-.29a.65.65 0 0 1 .31 0h-.18a.13.13 0 0 0 0-.1h.08a.19.19 0 0 1 .11 0h.09a.13.13 0 0 0 0-.1l-.16.05h-.05c.06-.05-.09-.1 0-.15s0-.07 0-.11h.18v.05a.57.57 0 0 0 .16 0v.07h.06a.53.53 0 0 0 0-.12h-.11c-.09-.05-.09-.05-.3 0v-.06h.13c.09 0 0-.06-.08-.08s0 0 .06-.05H23v-.09h.1V26h.11s.16 0 .1-.08 0-.06 0-.09h-.07c.07.05-.1.07-.13.11a.53.53 0 0 1-.16 0h-.14l-.16.06c-.03 0 0-.06.23-.08l-.07.08H23c.08 0 0-.06-.06-.08h-.12a.24.24 0 0 1-.16 0v-.05h-.21l.23-.05c.07-.06-.29-.13 0-.2-.18 0-.14-.05-.2-.07s.08 0 .13 0h-.11s.32 0 0-.08h.14c-.15 0 0 0 .06-.06h-.08a1.21 1.21 0 0 0 .1-.14s-.08-.09 0-.13h.35a.21.21 0 0 1 0 .06v-.08h.77c.12 0 0 0 .08-.05h.75c-.05 0-.08 0 0 .07l.17-.05h.43l-.1.06h-.06c-.13 0-.06.08 0 .13s0 .07 0 .11-.05.12 0 .18 0 .11-.08.16.06 0 .05.07-.06 0-.09.06h.11s0 .06-.12.08h.13v.22c0 .06 0 0 .09.05-.05 0-.06.07 0 .11s0 0 0 .07v.13a.24.24 0 0 0 0 .16 1.09 1.09 0 0 0 0 .25v.15c.11 0 0 .06 0 .09s-.06 0 0 0h-.16l.17.13h-.08v.08c.06 0 0 0 0 .06h-.04l-.1.12c-.05 0 0 0-.06.06h.15l-.08.06s.13.05 0 .09c.09 0 .1 0 .1.05a.48.48 0 0 0 0 .12.33.33 0 0 1 0 .1h-.14l.05.08.06.05-.15.08c.13 0 .14 0 0 .09s-.05 0 0 .06.13.07 0 .11h-.08l.07.05h-.09l.1.08h.15L25 29c.1 0 .09.07-.06.08H25s.21.05 0 .08l.11.06h-.06c.11 0 .11 0 0 .06s-.05.05-.06.07h.06a.919.919 0 0 0 0 .17c0 .05-.06.08-.08.11v.05c.09.06 0 .1-.06.15.1 0 .14.07.09.1a.2.2 0 0 0-.05.09h.07l-.08.08.06.06v.12h-.13l.08.08c-.11 0 0 .08 0 .12s.15.11 0 .17v.1c0 .03-.06.07-.08.1h-.24l.15.05H25l.1.07h-.18l.23.06s0 .07-.23.1h.21s-.11.06-.08.08 0 0-.08.08l.08.1H25l.11.12h-.07c.05.06-.12.06-.21.08H25a.15.15 0 0 1 0 .07v.1h.13v.07h-.15c-.14 0 .06.06.09.09h-.22l.21.1h.05c.08 0 .08 0 0 .06h-.16l.07.06h.16l-.07.16.11.06h-.19L25 33h.19s0 .05-.07.06a.8.8 0 0 1-.18 0h.12c-.05 0 0 .05 0 .07a.13.13 0 0 0 0 .06l.11.09h.04v.13c-.15 0-.19 0-.19.1h.11v.15l.07.07c-.08 0 0 .06 0 .1a.194.194 0 0 1-.05.15h.05l-.17.08h-.02v.08a.3.3 0 0 0-.21 0h-.17a2.08 2.08 0 0 0-.25 0h-.08c.05 0 0-.05-.1-.06a1.4 1.4 0 0 0-.43 0h.16a1.44 1.44 0 0 0-.21 0l-.06.07c-.06.07-.16 0-.08-.12h-.15zm-.08-9.53H23c.05.02.11.04.15 0zm-.12.07c-.1 0-.1 0 0-.06h-.12c.12 0-.11 0-.1.08zm2 0H25zm-2.14.14h.17v-.05a1.07 1.07 0 0 1 .18 0L23 25h-.16s.06 0 .07.05-.02.01-.04.03zm.74.06zm.06.19zm-.72 0h.08v-.08H23l-.1.05h-.08l-.09.07h.21zm.91 0zm-.43.06h-.25v-.06h-.12l-.1.05c.24.03.46.03.45 0zm-.58.13l.08-.08c-.14-.01-.17.03-.1.07zm.16 0H23v.05zm0 .06h-.09zm.08 0zm-.3 0h.06zm.34.05h-.22c-.12 0 0 .09.21.08zm0 .1c-.09 0-.08-.08-.22-.08l.05.07zm.07 0h.07zm.18 0zm.31 0zm-.46.2zm0 .25zm.21 0zm-.43.05zm.16.06h.01zm-.3.15h-.05zm1.37.2zm-1.36.25zm0 .19h-.22c.16.23.16.23.23.2zm2.24.18h-.11a.13.13 0 0 0 .06 0zm-1.63.89zm-.08.06h-.08zm1.14 0zm-.9.24zm-.3.07zm.43.12zm-.22 0zm-.91-.07h-.23a.43.43 0 0 0 .24.2zm.05.14l.07-.06-.17-.05.05.1zm.4 0l-.1-.09-.25.06zm2 0h-.16c.04.22.1.24.13.2zM23 29zm-.26 0l.06-.05h-.19zm.46.17v-.12c-.2.05-.2.1-.03.14zm-.49 0zm.24 0zm.09.19l.09-.05h.11v-.05h-.29zm1.59 0zm.38.22h-.04zm-.11.07v-.08l-.13.05zm-2.38 0h.21c-.23.04-.25.05-.24.09zm.42.07h.08v-.05c-.25.1-.13.12-.11.14zm.56 0zm.06.16c.14 0 .2 0 .14-.06h-.09zm-.66 0zm.78.19zm-.58 0h.03zm-.31 0zm-.1 0h-.03zm2.21.07zm-2 .05zm.7 0l.28-.05-.36-.05zm-.94.09l.16-.06h-.22v.07zm2.06.18zm-.85.07v-.08h-.27a1.29 1.29 0 0 1 .21.25zm.08.2zm-.14.07h-.06s-.02.2 0 .2zm-.53.15zm-.55.12zm.26.06H23v-.05h-.08zm.6.12zm-.26 0c-.18.21-.18.21-.06.22zm-.38.14zm.23.05h-.06zm.8.07zm-.82.07l.07-.05h-.2v.05zm.13.08h-.02zm-.42.29zm0 .06h-.05zm.31 0c0-.05 0-.05-.05-.06zm0 .2zm.14.22zm1.46.06zm-.21 0h-.03zm-1.57.58zm.17 0l.14-.11h-.18c.06 0 0 .07-.13.1a.25.25 0 0 0 .19.05zm0 .06H23c.08.06.12.06.16.04zm-.31.22v-.06h-.06zm1 .23zm-.6 0zm-.05.08v-.06H23zm-.43 0zM25 34h.01zm-2.23 0zm1.11.21v.08h.05l.21-.08zm-.09 0zm1 0l.16-.07h-.34zm-1.2.06a.58.58 0 0 1-.11 0l-.07-.06h-.18a.393.393 0 0 0 .27.05zm.15 0h.05zm-.31.06z" class="cls-1" data-name="Path 10545"/>
        <path id="Path_10553" d="M23.07 33.22h.08z" class="cls-1" data-name="Path 10553"/>
        <path id="Path_10557" d="M23.18 25.17h.05z" class="cls-1" data-name="Path 10557"/>
        <path id="Path_10561" d="M22.71 27.46c0 .06 0 .06-.09.08h.09z" class="cls-1" data-name="Path 10561"/>
        <path id="Path_10562" d="M22.47 34.07l.05.07h-.06c-.04.02-.06-.02.01-.07z" class="cls-1" data-name="Path 10562"/>
        <path id="Path_10563" d="M23.34 34.49h.01z" class="cls-1" data-name="Path 10563"/>
        <path id="Path_10564" d="M22.41 34.24c.21 0 0 0 .08.06-.19 0-.08-.03-.08-.06z" class="cls-1" data-name="Path 10564"/>
        <path id="Path_10565" d="M22.73 34.53c-.16 0-.22 0-.19-.06h.25s-.19.02-.06.06z" class="cls-1" data-name="Path 10565"/>
        <path id="Path_10566" d="M22.35 32.43h.15l-.21-.05z" class="cls-1" data-name="Path 10566"/>
        <path id="Path_10567" d="M22.43 27.46l.07-.05h.07s-.02.06-.14.05z" class="cls-1" data-name="Path 10567"/>
        <path id="Path_10568" d="M22.43 27.7h-.01z" class="cls-1" data-name="Path 10568"/>
        <path id="Path_10569" d="M22.47 24.84h.02z" class="cls-1" data-name="Path 10569"/>
        <path id="Path_10571" d="M22.43 27.15v-.06z" class="cls-1" data-name="Path 10571"/>
        <path id="Path_10572" d="M22.53 28.47h-.03z" class="cls-1" data-name="Path 10572"/>
        <path id="Path_10573" d="M25.18 32.49h.01z" class="cls-1" data-name="Path 10573"/>
        <path id="Path_10574" d="M22.71 26.88v.05h-.09v-.05z" class="cls-1" data-name="Path 10574"/>
        <path id="Path_10575" d="M22.72 27.39h-.17c.08-.04.08-.04.17 0z" class="cls-1" data-name="Path 10575"/>
        <path id="Path_10576" d="M22.43 33.06h.06z" class="cls-1" data-name="Path 10576"/>
        <path id="Path_10577" d="M22.42 28.46z" class="cls-1" data-name="Path 10577"/>
        <path id="Path_10579" d="M22.52 33.31z" class="cls-1" data-name="Path 10579"/>
        <path id="Path_10582" d="M25 34.49z" class="cls-1" data-name="Path 10582"/>
        <path id="Path_10585" d="M22.57 28.6h-.02z" class="cls-1" data-name="Path 10585"/>
        <path id="Path_10586" d="M22.41 33.49h-.02z" class="cls-1" data-name="Path 10586"/>
        <path id="Path_10587" d="M22.39 29.84h.01z" class="cls-1" data-name="Path 10587"/>
        <path id="Path_10588" d="M22.45 31.52h-.01z" class="cls-1" data-name="Path 10588"/>
        <path id="Path_10591" d="M22.42 31.61h-.09z" class="cls-1" data-name="Path 10591"/>
    </g>
</svg>
