<svg xmlns="http://www.w3.org/2000/svg" width="19.889" height="21.71" viewBox="0 0 19.889 21.71">
    <defs>
        <style>
            .cls-1{fill:#05276c}
        </style>
    </defs>
    <g id="seed-26" transform="translate(-14.472 -12.83)">
        <path id="Path_10209" d="M21.07 34.23v.26l-.17-.08c0-.08.09-.15.07-.21s-.12-.11-.2-.17a1.088 1.088 0 0 0 .07.24.17.17 0 0 1 0 .07h-.08a.2.2 0 0 1 0-.07 1.088 1.088 0 0 0-.07-.24c-.02-.08 0-.07 0-.1a.38.38 0 0 0 0-.13h-.15l.29-.07-.19-.06h.12c-.24-.08-.22-.17-.11-.23h-.25v-.16h.29c0-.1-.13-.06-.21 0l-.05-.09h.06c.17 0 .2 0 .17-.12s-.08-.14 0-.21h-.01a.77.77 0 0 1-.19 0c.09 0 .17-.06.09-.14h.26v-.19l-.17.09v-.14a1.36 1.36 0 0 1-.23-.09c-.06 0-.08-.1-.13-.17h.24c.12-.14.1-.16-.22-.21.13 0 .18-.05.12-.13h.07l.2.07c.06-.1 0-.18-.08-.25l.11-.12-.27-.07.05-.07-.26-.44a.68.68 0 0 1 .21-.1c.11 0 .16 0 .16-.09s-.15-.07-.15-.1.05-.09.08-.14l.07-.08h-.14l.11-.08h-.09v-.05h-.38l.16-.09-.08-.1c.08 0 .16.07.23 0a.61.61 0 0 1 .18-.07h-.11l-.11-.19.25.07v-.3h-.25c-.1.13-.14-.08-.26 0v-.12a.81.81 0 0 0 .51 0c-.11-.1-.25 0-.4 0 .13 0 .22-.1 0-.16h-.13a.24.24 0 0 1 .06-.08c.13-.09.13-.09-.06-.15l.05-.05.09-.05-.14-.05h.22l.05.05c.05.05 0 .06 0 .09h.14a2.11 2.11 0 0 1-.21-.24h.15c-.12 0-.25 0-.3-.09h.37a.35.35 0 0 1 .13.08.47.47 0 0 0 .06.09c0-.06.1-.12-.06-.16s0-.07 0-.13-.22.09-.37.09l-.06-.15.14.08.17-.12h-.24l-.11-.19h.2a.28.28 0 0 1 0-.12c.06-.09 0-.18 0-.26v-.19h-.22l.13-.2c-.12 0-.23-.05-.23-.16h.12l.06-.1h-.04l-.05-.12h.12c-.16 0-.13-.14.06-.25a.36.36 0 0 1-.09-.47.09.09 0 0 0 0 .06.14.14 0 0 0 .09 0v-.05c0-.05-.12-.12-.11-.18s-.09-.16 0-.23 0-.08 0-.11a.15.15 0 0 0-.06-.05h.08l.05-.19h-.17l.2-.08-.05-.1-.13.06a.68.68 0 0 1 0-.14h.06c.06 0 .15 0 0-.1l.26-.12h-.18c0-.12.11-.27-.09-.37a.79.79 0 0 1 0-.13c0-.08.05-.14.21-.15l-.21-.14h.12l.09-.16-.05-.37a.19.19 0 0 1-.08 0 .11.11 0 0 1-.06 0 2.18 2.18 0 0 0 0-.25h.11s-.05-.08 0-.1a1.537 1.537 0 0 0 .19-.09l-.21-.06.24-.06-.2-.05h.13a1.51 1.51 0 0 0-.12-.2l-.09.15c-.18-.08.05-.15 0-.22.17 0 .3-.05.29-.14h-.21l.1-.17h-.1l-.06-.11h.08l-.13-.05.05-.1h.18l-.2-.14c-.08-.06-.06-.11.06-.17v.08a.54.54 0 0 0 .12-.09l-.09-.23h-.14l.09-.2a1 1 0 0 1 0-.15h.14v.12h.16l-.06-.09.15.05-.08-.23h-.15v-.11l.11-.05c-.12-.05-.12-.08 0-.15h-.09c-.07 0-.12 0-.06-.06a2.2 2.2 0 0 0 .2-.23h-.16l.09-.28h-.1v-.23h.09v-.17c-.19 0-.11-.06-.15-.08l.13-.05v-.05a.14.14 0 0 0-.09 0h-.19l-.13-.19h.09v-.1l.27.15a.081.081 0 0 0-.07-.08c-.07-.01-.09 0-.08-.1a2.432 2.432 0 0 0 0-.27c.21-.14.21-.22 0-.3h.15l.18-.08h-.22v-.11c-.06 0-.24.07-.28-.06h.09c-.05 0-.11 0-.12-.06s0-.05.05-.09h.13c.09-.09.21 0 .3 0l.07-.08h-.24c.06-.07.06-.07.35-.08l-.35-.1a.12.12 0 0 1 0-.08.75.75 0 0 0 0-.21s0-.05.08-.06a.18.18 0 0 1 .1 0c.06.05.06.05.15 0s-.06-.05-.06-.07a.83.83 0 0 0 0-.22l-.17.11h-.05c.06-.11-.09-.21 0-.33s0-.15 0-.23l.17-.07c-.06 0-.12 0-.14-.07a.17.17 0 0 1 0-.1h-.12l.27-.1a.29.29 0 0 0 0 .14.64.64 0 0 0 .15.05v.16h.06a1.15 1.15 0 0 0 0-.26h-.05a.59.59 0 0 0-.14.07v-.1a.51.51 0 0 1 0-.09h-.12c-.07 0-.13 0-.11-.08a.13.13 0 0 0 0-.06v-.05h.09a.49.49 0 0 0 .14 0l-.09-.08h.13c-.09-.11-.09-.11-.3 0v-.15h.14c.08-.08 0-.13-.09-.16a.45.45 0 0 1 .06-.12.1.1 0 0 1 .07 0h.04V16h.17v-.18l-.2.06v-.06c0-.06.06-.11.19-.07h.11v-.15l.1.09c0-.07.17-.08.1-.17s0-.13 0-.2v-.07h-.07c.07.1-.1.15-.13.23s-.1.07-.16.11h-.14a.282.282 0 0 1-.05-.11c0-.04 0-.08.12-.07h.12c-.08 0-.22 0-.25-.07s.05-.13.23-.18l-.07.18a.69.69 0 0 0 .19 0c.08-.06 0-.12-.06-.17h-.28a.29.29 0 0 1 0-.13.14.14 0 0 1 .06-.07l-.22-.06.23-.11c.07-.13-.28-.27 0-.44-.18 0-.14-.11-.2-.16s.08 0 .13 0 .06-.06-.11-.09c0-.05.33-.08 0-.16l.13-.08c-.15-.06 0-.08.06-.13a.18.18 0 0 1-.05-.07v-.09l.05-.1h-.09a2 2 0 0 0 .1-.32c0-.09-.08-.2 0-.28h.25a.1.1 0 0 1 .08 0 .53.53 0 0 1 0 .12l.05-.17c.05 0 .07.11.16 0l.07.08c.14-.07.19-.06.27 0 .13-.07.14-.07.26.07a.106.106 0 0 1 .08-.1 2.16 2.16 0 0 1 .44 0h.26c.09 0 .11 0 .05.07s-.08.09 0 .15l.16-.11.09-.06.07.06h.33l-.11.13-.16.05c-.13.1-.05.19 0 .28a1 1 0 0 1 0 .25 2.82 2.82 0 0 0 0 .41.73.73 0 0 1-.07.35.531.531 0 0 1 .05.14c0 .04-.06.09-.1.14h.11a.17.17 0 0 1-.11.19L23 15v.27a1.1 1.1 0 0 1 0 .18.2.2 0 0 1 0 .13c-.05.07 0 .1.1.11a.21.21 0 0 0-.1.31v.16a.72.72 0 0 1 0 .29 1.42 1.42 0 0 0 0 .35 3.43 3.43 0 0 0 0 .56 1.26 1.26 0 0 1-.05.33v.19c0 .06-.06.06 0 .07s0 0 0 .06h-.15l.17.3h-.09v.18c.07 0 0 .08 0 .12h.1l-.19.06a.34.34 0 0 1 0 .1c0 .09-.08.18-.11.26s.05 0 0 .06a1.47 1.47 0 0 1-.06.14v.08l.16-.06-.09.14s.13.1 0 .18c.08 0 .1.06.09.13a1.22 1.22 0 0 0 0 .27 1.62 1.62 0 0 1 0 .22s-.06.05-.09.08-.05.05 0 .08a.58.58 0 0 0 0 .18l.06.12v.06l-.15.2c.13.08.14.12.05.22s-.06.06 0 .11a.158.158 0 0 1 0 .26l-.08-.06.07.11-.09.05.11.18a.1.1 0 0 1 0 .09.52.52 0 0 1-.13 0l.07.08-.06.09.22.06h-.14l.07.09h-.12c.09.09.08.14-.06.18h.18l-.14.05c.05.06.21.1 0 .17l.12.13h-.07c-.11 0-.11.06 0 .1s.11.07 0 .12 0 .11-.05.17a.12.12 0 0 0 0 .08c.08 0 .08 0 0 .08s.07 0 .06.05 0 .26 0 .39a2.249 2.249 0 0 1-.08.24.14.14 0 0 0 0 .12c.08.11 0 .22-.07.32A.407.407 0 1 1 23 25a.47.47 0 0 0-.06.19l.07.06-.07.18a.6.6 0 0 1 0 .14v.26h-.12l.07.18c-.1.06 0 .16 0 .25s.14.25 0 .38 0 .06 0 .08.06.14 0 .21a1.45 1.45 0 0 1-.09.22h-.24l.15.11-.15.06h.24l.11.15h-.12l.22.13c0 .08 0 .18-.23.23l.22.08c0 .06-.12.13-.09.17s0 .11-.07.17h-.01l.08.22h-.09l.11.27-.27.07h.09l.11-.07c.05.12-.12.12-.2.17v.08h.13a.88.88 0 0 1 0 .16v.3h.13v.15l-.15-.07c-.14.1.07.13.1.2l-.23.09.21.22h-.15l.12.1.09-.06c.07 0 .07 0 0 .15l-.17-.07.07.14H23l-.08.35.11.13h-.12L23 31l-.12.05h.02a.48.48 0 0 0 .12 0h.01a.112.112 0 0 1-.08.13 1.05 1.05 0 0 1-.18.08c.11 0 .18 0 .12.12s0 .1 0 .15a.61.61 0 0 0 0 .14l.11.18h-.18l.21.05-.05.07v.29a.21.21 0 0 0-.19.23H23V33l.07.16c-.09.08 0 .14 0 .22v.33a.25.25 0 0 0 0 .12h.05a1.36 1.36 0 0 0-.17.17.142.142 0 0 0 .06.11h-.09v.16a.05.05 0 0 1 0 .06.18.18 0 0 0-.22 0h-.07a.19.19 0 0 0-.09 0 .7.7 0 0 0-.25 0h-.12a.06.06 0 0 1 0-.05c0-.07 0-.1-.11-.13-.21-.07-.29.06-.44.09v-.08h-.04c-.02 0-.05.1-.07.15s-.16-.07-.08-.26h-.26l.11.09zM21 13h-.15c.04.09.15.12.15 0zm-.11.16c-.1-.09-.1-.09 0-.14l.01-.02h-.18c.12.09-.11.09-.1.16zm2 0h-.01zm-2.14.33l.18-.07v-.11h.19a1.82 1.82 0 0 0-.19-.1.7.7 0 0 0-.16 0h.12l-.15.06a.47.47 0 0 1 .06.09.26.26 0 0 1-.09.17zm.74.13zm.06.42l.06.05zm-.72-.1c.14 0 .15 0 .08-.11v-.16h-.05l-.11.12-.08-.09-.08.15h.2zm.91 0h.06v-.08h-.06zm-.43.14H21V14h-.24l.12.06-.1.09c.28.1.5.08.49.02zm-.58.3l.09-.19c-.16.1-.2.18-.13.28zm.16.08l.09-.1.1.06.1-.1a1.15 1.15 0 0 0-.29 0v.12zm0 .12h-.07l-.06.05zm.08.07zm-.31 0h.06v-.07h-.05zm.35.12c0-.09-.11-.1-.22-.09s-.01.26.21.23zm0 .21c-.09-.06-.09-.17-.22-.18v.17zm.06.06a.4.4 0 0 0 .13-.07v-.07a1.15 1.15 0 0 0-.2.28zm.18.06v-.09zm.31.1l-.05-.07zm-.46.45v-.07zm0 .57h-.19a.084.084 0 0 0 .08.08c.08.01.01.07.08.06zm.2 0v.08-.08zm-.43.12zm.17.13v-.09H21zm-.3.34l-.05-.07zm1.36.44s-.15 0-.17.05zm-1.39.75l.07-.08h-.14zm0 .43h-.21c.18.04.18.04.25-.03zm2.25.39l-.12-.09a.24.24 0 0 0 .06.08l.1-.02zm-1.63 2zm-.08.15l.12-.07h-.21zm1.13 0v-.11c-.16 0-.11.06-.09.1zm-.9.51l-.1-.06zm-.29.17h-.05s.06-.04.09-.03zm.42.27l.12.07h.05zm-.21 0v.07zm-.92-.15h-.23a.33.33 0 0 0 .27-.05zm.05.29l.07-.13-.17-.1.06.23zm.4 0l-.1-.2-.25.11zm2 0h-.16c.08.01.14.05.16-.06zm-2.12.18l-.08-.06zm-.26.08l.06-.1h-.19zm.47.39v-.27c-.14.02-.15.13-.02.23zm-.49 0l-.06-.06zm.24 0v-.07l-.05.07zm.08.42l.09-.12.12.05v-.11h-.27a.87.87 0 0 1 .06.14zm1.59 0zm.38.51l.08-.08-.12-.05zm-.11.15v-.17l-.13.1zm-2.37.11l.2-.09c-.19-.02-.21-.01-.2.08zm.41.16l.15-.06v-.06l-.07.07v-.11c-.22.1-.1.1-.08.15zm.56 0l-.04-.06zm.06.35c.14 0 .2-.09.15-.13a1.17 1.17 0 0 0-.29 0l.19.08zm-.65 0zm.77.42v.06h.05zm-.58-.07l.08.08h.05l-.1-.07zm-.31.09zm-.1.06l.09-.05h-.12zm2.21.17a.1.1 0 0 0 0 .07h.12zm-2 .11zm.71 0l.27-.1-.37-.1zm-.95.21l.17-.14h-.17v.16zm2.06.38v.06h.05v-.07zm-.85.16v-.16h-.2zm.08.46zm-.14.14h-.05s0 .07.02.07zm-.53.34v-.08H21zm-.55.27l-.13-.05zm.26.14h.05v-.11h-.08zm.6.26l.11.05v-.1zm-.26.12v-.09c-.14.12-.14.13-.03.16zm-.38.3zm.24.1l.13-.05h-.19zm.8.16l.05.09h.05l-.06-.09zm-.83.16a.175.175 0 0 1 .07-.12l-.2.07v-.07l-.05.12q.073.038.15.07zm.13.18l.06-.06h-.08zm-.41.64v-.09h-.08v.1zm0 .14l.05-.07h-.05l-.05.08zm.31.08c0-.1 0-.1-.06-.12zm0 .45zm.15.5zm1.46.13v.07-.06zm-.22.12l.1-.09h-.12zm-1.47.58v-.09h-.07a.29.29 0 0 0 0 .09zm.18.09c.05-.08.09-.16.13-.24h-.18c.06.07 0 .17-.13.22 0 .13.08.15.08.09zm0 .13h-.2c.02.12.1.12.1.07zm-.31.5v-.13l-.06.08v.07zm1 .51v.07h.05v-.07zm-.6-.11v-.1h-.06a.18.18 0 0 1-.1 0 .46.46 0 0 1-.07-.07v.12zm-.05.18v-.14h-.18zm-.43 0h.14v-.08zm2.19.68l.17-.05h-.16zm-2.24.06zm1.11.47V34l.21-.18zm-.09 0l-.13.08zm1 0l.15-.15h-.34zm-1.21.12l-.11-.09a.172.172 0 0 0-.07-.13h-.12l.1.1h-.15c-.01.14.1.28.22.2zm.16.06l.05.06h-.01zm-.31.14l.11-.1h-.25z" class="cls-1" data-name="Path 10209"/>
        <path id="Path_10216" d="M20.68 13.65v-.06z" class="cls-1" data-name="Path 10216"/>
        <path id="Path_10220" d="M21.27 31.86h.01z" class="cls-1" data-name="Path 10220"/>
        <path id="Path_10222" d="M21.27 27v-.06z" class="cls-1" data-name="Path 10222"/>
        <path id="Path_10223" d="M21.06 30H21z" class="cls-1" data-name="Path 10223"/>
        <path id="Path_10225" d="M20.55 18.82c0 .13 0 .14-.08.18l-.13-.1.22-.08z" class="cls-1" data-name="Path 10225"/>
        <path id="Path_10226" d="M20.32 33.51v.16h.05l-.06.08c-.05-.03-.07-.12.01-.24z" class="cls-1" data-name="Path 10226"/>
        <path id="Path_10227" d="M21.18 34.45c.12 0 .23 0 .21.09h-.2z" class="cls-1" data-name="Path 10227"/>
        <path id="Path_10228" d="M20.25 33.89c.21 0 0 .1.09.14-.2-.03-.09-.03-.09-.14z" class="cls-1" data-name="Path 10228"/>
        <path id="Path_10229" d="M20.58 34.53c-.16 0-.23 0-.19-.14s.08 0 .12 0h.13s-.19.04-.06.14z" class="cls-1" data-name="Path 10229"/>
        <path id="Path_10230" d="M20.2 29.86l.19.12h-.05l-.21-.11z" class="cls-1" data-name="Path 10230"/>
        <path id="Path_10231" d="M20.27 18.83l.07-.12h.08a.138.138 0 0 1-.15.12z" class="cls-1" data-name="Path 10231"/>
        <path id="Path_10232" d="M20.28 19.36c.06 0 0-.1.15-.06s0 0 0 .05h-.16z" class="cls-1" data-name="Path 10232"/>
        <path id="Path_10233" d="M20.32 13a.062.062 0 0 1 .06.07v.08h-.05a.22.22 0 0 1 0-.08V13z" class="cls-1" data-name="Path 10233"/>
        <path id="Path_10234" d="M20.42 32.31v.08h-.18z" class="cls-1" data-name="Path 10234"/>
        <path id="Path_10235" d="M20.28 18.14V18v.13z" class="cls-1" data-name="Path 10235"/>
        <path id="Path_10236" d="M20.38 21.06s.06 0 .05.05-.05 0-.08.06v-.1z" class="cls-1" data-name="Path 10236"/>
        <path id="Path_10237" d="M23 30h-.11v-.05z" class="cls-1" data-name="Path 10237"/>
        <path id="Path_10238" d="M20.55 17.53l.05.09h-.1v-.1z" class="cls-1" data-name="Path 10238"/>
        <path id="Path_10239" d="M20.56 18.67h-.17c.09-.09.09-.09.17 0z" class="cls-1" data-name="Path 10239"/>
        <path id="Path_10240" d="M20.27 31.27l-.08-.07h.06l.08.07z" class="cls-1" data-name="Path 10240"/>
        <path id="Path_10241" d="M20.27 21c0-.08 0-.08.09-.06z" class="cls-1" data-name="Path 10241"/>
        <path id="Path_10242" d="M20.26 30.84v.08h-.07l.05-.08z" class="cls-1" data-name="Path 10242"/>
        <path id="Path_10243" d="M20.36 31.81h-.11v-.1z" class="cls-1" data-name="Path 10243"/>
        <path id="Path_10244" d="M20.27 28.05V28l.09.05-.09.05z" class="cls-1" data-name="Path 10244"/>
        <path id="Path_10245" d="M20.37 20.21v-.07h.06v.07z" class="cls-1" data-name="Path 10245"/>
        <path id="Path_10246" d="M22.8 34.45h-.07a.09.09 0 0 1-.05 0h.05z" class="cls-1" data-name="Path 10246"/>
        <path id="Path_10247" d="M22.29 34.52v-.07h.05v.08z" class="cls-1" data-name="Path 10247"/>
        <path id="Path_10248" d="M20.46 20v.07a.64.64 0 0 0 0-.07z" class="cls-1" data-name="Path 10248"/>
        <path id="Path_10249" d="M20.41 21.34z" class="cls-1" data-name="Path 10249"/>
        <path id="Path_10250" d="M20.25 32.21h-.01z" class="cls-1" data-name="Path 10250"/>
        <path id="Path_10251" d="M20.23 24.11l.08-.06-.07.06z" class="cls-1" data-name="Path 10251"/>
        <path id="Path_10252" d="M20.29 27.83l-.06.06h-.05l.06-.06z" class="cls-1" data-name="Path 10252"/>
        <path id="Path_10253" d="M21.81 34.41z" class="cls-1" data-name="Path 10253"/>
        <path id="Path_10254" d="M20.19 28.84v-.08.07z" class="cls-1" data-name="Path 10254"/>
        <path id="Path_10255" d="M20.27 28.05h-.09z" class="cls-1" data-name="Path 10255"/>
        <path id="Path_10256" d="M20.31 29.77h.01z" class="cls-1" data-name="Path 10256"/>
        <path id="Path_10257" d="M15 20l-.09-.14h.11c.01 0-.06-.12-.09-.2v.12-.24l-.1-.11.23.19-.11-.15.1.07c-.15-.2-.11-.21 0-.15l-.16-.19.21.21c0-.07-.08-.12-.14-.16v-.06h.05c.11.12.14.13.15.09s0-.1.07-.07v-.06c0-.05-.08-.09-.12-.15s.15.11.11 0l.18.19v-.07l-.18-.12h.07a1.73 1.73 0 0 1-.14-.2v-.13l.25.22-.06-.08c.13 0 .12 0-.09-.22.1.09.14.11.12.05v.05l.12.16c.07 0 .08 0 0-.13h.11a1.66 1.66 0 0 1-.16-.21h.05l-.12-.19a1.88 1.88 0 0 1 .18.12c.08.08.13.1.14.09s-.09-.13-.08-.14.07 0 .11 0h.07l-.11-.09.11.05-.06-.08h.05l-.28-.25.15.09v-.1c.06.06.09.14.17.17s.09.07.15.1l-.08-.08v-.14l.16.2.11-.06-.16-.12c-.11 0-.08-.13-.18-.19h.06a1.75 1.75 0 0 0 .35.37 1.17 1.17 0 0 0-.27-.28c.1.06.18.12.08 0l-.09-.09a.08.08 0 0 1 .06 0c.11.06.12.06 0-.09h.08l-.09-.09.16.15v.1l.1.1-.08-.22.13.1c-.08-.09-.18-.18-.19-.24l.26.26.07.11v.07c0 .07.11 0 0-.09s0 0 0-.06-.18-.13-.29-.24v-.09l.08.13.16.08-.17-.17v-.13l.13.14h.07c.07 0 .06 0 .07-.08h.05l-.12-.11h.11c-.09-.09-.15-.18-.12-.21l.08.09h.07l-.13-.14v-.07l.1.07c-.11-.12-.06-.13.11 0-.08-.11 0-.24.08-.21a.09.09 0 0 0 0 .05l.06.06s-.06-.12 0-.14 0-.1.1 0 0 0 0-.05v-.06l.06.06h.09l-.04-.25.17.12v-.06l-.11-.08v-.05h.05c.12.13.12.1.07 0l.21.14-.12-.14c.06 0 .17 0 .06-.17s0 0 0-.06.08 0 .2.1l-.11-.19.07.1h.12l-.05-.14h-.06l.08-.07.1.11-.08-.09-.05-.07.09.09v-.05l.16.11-.13-.17.19.16-.13-.16.1.09v-.15h-.11c-.1-.15.09 0 .07-.07.11.13.22.19.24.16L18 16h.12l-.12-.07v-.07h.06L18 15.8h.06l.13.14a1.14 1.14 0 0 0-.1-.19c0-.07 0-.08.1 0h-.05l.11.06v-.07h.06l-.14-.15h.19l.09.1.12.1v-.07l.09.12v-.13l-.1-.11h.06l.09.06c-.07-.1-.05-.11.07 0l-.06-.06c-.05-.06-.08-.09 0-.06l.21.07-.11-.12h.15l-.07-.08h.11l.12.14-.05-.08h.06c-.15-.12-.06-.1-.09-.13l.11.07-.05-.07-.11-.24V15h.06l.14.23v-.16a.73.73 0 0 0 .08-.09c.19.1.21.08.08-.1l.12.09a.65.65 0 0 0 .15.11l-.17-.08h.06c0-.06-.19-.15-.18-.22h.07a.28.28 0 0 1-.06-.1h.06l-.1-.1a.7.7 0 0 1 .22.2h.07l-.17-.17c.07 0 .07 0 .28.23l-.22-.28a.12.12 0 0 0 .08 0h.07l.06.09s0 .06.11.09 0-.05 0-.06.05 0 .06-.07l-.15-.09s0-.13.11-.09 0-.06 0-.1l.14.1a1.231 1.231 0 0 1-.08-.12l-.08-.09.22.16v.06c0 .06.06.08.09.13l.09-.05-.13-.08-.09-.08c-.05 0-.08-.1-.05-.1l.07.07.08.11v-.09l.09.09c0-.1 0-.1-.21-.21V14l.09.1c.09 0 0 0 0-.11h.14a.76.76 0 0 1 .08.11l-.06-.06.13.12v-.09l-.08-.07c0-.08.07 0 .15.11l.08.08h.06l.05.1s.14.1.12 0 0 0 0-.08h-.06c0 .08-.11 0-.16 0a.75.75 0 0 1-.14-.08l-.11-.09v-.07c0-.01 0 0 .11.06l.09.08c0-.07-.16-.15-.15-.2s.07 0 .21.11h-.1l.15.13c.07 0 .05 0 0-.1l-.09-.08c-.05 0-.1-.1-.1-.13h.06l-.14-.17.2.13c.09 0-.12-.29.1-.17-.13-.13-.07-.13-.1-.2s.07.06.08.11.07 0 0-.1.25.2.06 0l.12.07c-.08-.13 0 0 .08 0v-.05H21l-.06-.07a.78.78 0 0 0 .16 0s0-.12.1-.08l.18.18a.17.17 0 0 1 0 .07v.06h.08a.133.133 0 0 0 .11.12v.08a.31.31 0 0 1 .18.2c.11.07.12.07.16.2s0 0 .09 0l.31.31.17.19c.1.1.07.09 0 .06s-.09 0-.05 0l.15.08h.07a.25.25 0 0 1 0 .07l.18.21h-.11v-.07c-.12-.06-.1 0-.1.06a.13.13 0 0 1-.07.09c0 .05-.12.05-.14.11s-.1 0-.16.06v.07h-.11l.09.06c-.05 0 0 .07-.13 0l.1.08h-.15v.06c0 .06 0 0-.05 0s0 0 0 .11-.09 0-.07.07 0 0 0 .06 0 .09-.08.1a.2.2 0 0 0-.13.08.62.62 0 0 0-.14.19c0 .05-.09.05-.14.07.06.1 0 .05-.05.07s-.06 0 0 0l-.11-.11.12.14-.14-.11v.21l-.07-.05v.07c0 .05 0 0-.05 0l.06.07-.2-.03h-.15v.05h-.08l.13.09h-.11s.06.13 0 .08c.06.06.06.09 0 .1a.31.31 0 0 0-.07.09s0 .05-.08.06h-.14a.19.19 0 0 0 0 .08v.08l-.17-.05c.07.12.06.14 0 .1s-.06 0 0 0 0 .14-.08.07v-.08.08l-.25.06v.13l-.1-.09v.07h-.08l.14.18-.11-.09v.08l-.08-.1c0 .1 0 .1-.1 0l.13.13-.11-.08c0 .05.12.18 0 .08v.12h-.05c-.09-.07-.1-.06-.05 0s.06.1 0 0a.09.09 0 0 0-.09 0c-.05-.08 0 .06 0 .06a.133.133 0 0 1-.1.13.59.59 0 0 1-.13 0s0 .09-.14.05 0 .15 0 .14a.15.15 0 0 0-.1 0v.07H19v.09l-.09.07-.07-.1v.11c-.1-.06-.05.05-.07.08s0 .18-.12.11v.1a.56.56 0 0 1-.13 0l-.16-.18.07.14-.13-.09.17.16v.13l-.08-.09.12.2s-.06.05-.23-.09l.13.17h-.22l.08.1-.1-.08v.12l-.17.21v.16l-.21-.17.05.07.1.06c0 .07-.12-.05-.2-.09l-.12-.1.19.2v.07s-.08 0 0 .1l.1.08v.06l-.09-.12c-.12-.07 0 .08 0 .12l-.19-.13.08.22-.11-.1.05.11h.09c0 .07 0 .07-.05.05l-.1-.14v.09l.12.12-.16.05v.12l-.13-.13v.06l.05.09-.11-.08-.08-.06a.61.61 0 0 0 .07.1l.09.09-.15-.12.14.14a.15.15 0 0 1-.09 0l-.15-.1c.07.08.11.13 0 .12s0 0 0 .05v.13l-.19-.01.14.16H17l-.06.11c-.12-.09-.18-.09-.21-.06l.08.08-.1.1a.38.38 0 0 1 0 .1c-.09 0 0 .06-.05.08l-.13.07c-.06 0-.12-.06-.17-.07s0 .05 0 .08l-.06-.06a.19.19 0 0 0 0 .08.06.06 0 0 1-.05 0 .31.31 0 0 0-.15-.15h-.06L16 21a1.41 1.41 0 0 0-.18-.17l-.08-.09s.06 0 0-.11a1.62 1.62 0 0 0-.34-.28v-.05l.13.1a.88.88 0 0 0-.15-.14h-.09c-.03 0-.09-.14 0-.14l-.1-.08-.09-.1.05.1zm6.37-6.49l-.11-.1c.06.01.09.06.14.06zm-.13 0v-.07h.06l-.12-.12c.05.11-.11 0-.13 0a1.62 1.62 0 0 1 .22.12zm1.4 1.4l.07.05h-.07zm-1.61-1.41l.14.09h.05a1.56 1.56 0 0 1 .13.13c0-.06-.06-.11-.1-.16a1.06 1.06 0 0 0-.1-.12l.09.09-.13-.09v.07zm.48.55l.09.09-.05-.14zm-.09.17v.06zm-.42-.6c.1.09.12.09.09 0h-.03v-.08h-.11l.16.13zm.63.66zm-.37-.28l-.17-.16v-.07l-.17-.16.06.1h-.1a2.887 2.887 0 0 0 .38.29zm-.5-.31h.12c-.09-.07-.14-.08-.12.01zm.09.13h.09L21 14h.09l-.21-.2h-.06zm0 .05v-.06h-.06zm0 .07l.08.08zm-.23-.19zm.2.28a.247.247 0 0 0-.12-.19c-.12-.08-.02.06.13.16zm-.08 0c-.05-.08 0-.11-.1-.21v.08zm0 .06l.11.07v-.06zm.1.15zm.19.25v-.05zm-.46-.19zm-.16.18l-.09-.11v.08a.35.35 0 0 0 .13.08zm.13.16zm-.33-.27l.15.13-.15-.14zm.07.16zm-.28-.06v-.05zm.83 1.1h.05a.847.847 0 0 0-.14-.1zm-1.13-.8h.07l-.08-.1zm-.1.16l-.16-.15c.1.12.1.12.17.15zm1.47 1.7l-.06-.1a.11.11 0 0 0 0 .07zm-1.75-.55l-.07-.08zm-.1 0l.1.06-.13-.14zm.79.81h.06c-.12-.11-.09-.05-.09 0zm-.79-.48l-.06-.09zm-.22-.17zm.22.38l.06.1zm-.22-.15zm-.6-.7l-.16-.17a.44.44 0 0 0 .2.17zm-.05.13h.08l-.09-.15v.1zm.27.29v-.14l-.21-.14zm1.39 1.38l-.11-.11c.1.07.1.12.15.11zm-1.56-1.45v-.07zm-.2-.16h.07l-.14-.13zm.21.45l.11-.05c-.11-.11-.15-.08-.07.05zm-.34-.35zm.16.18h.01zm-.07.18h.1l.07.1v-.05l-.28-.26.06.08a1.261 1.261 0 0 1 .09.13zm1.12 1.14l-.06-.06zm.12.42h.08l-.07-.1zm-.13 0l.05-.06-.12-.06zm-1.67-1.68l.17.12c-.13-.14-.15-.15-.17-.12zm.24.34l.12.09v-.05h-.07c-.12-.16-.05-.07-.05-.04zm.39.4v-.07zm-.06.16c.11.09.17.11.14.06a1.63 1.63 0 0 0-.19-.21l.11.15zm-.47-.46l-.1-.09zm.42.68v.05zm-.39-.42v.07-.09zm-.25-.2l.12.12zm-.09-.05l.08.05-.09-.08zM19 18.36v.05l.09.07zM17.49 17l-.15-.14zm.49.51l.22.17-.2-.37zm-.74-.6l.16.07-.1-.12h-.07zm1.34 1.57zm-.65-.56l.05-.05-.14-.14zm-.08.2l-.03-.12zm-.14-.12l.08.08a1.183 1.183 0 0 0-.11-.13c-.06-.06.02.05.03.05zm-.48-.27zm-.47-.3l-.07-.11zm.15.22l-.06-.06zm.34.51l.06.09zM17 18zm-.36-.18l-.07-.08zm.13.2l.12.08-.12-.1zm.52.61v.06-.07zm-.63-.53h.08l-.13-.1h-.06a1.17 1.17 0 0 0 .14.12zm0 .14h.06l-.07-.05zm-.49-.1h.05l-.05-.06zm-.06 0h.06v-.05h-.06zm.2.25c.06 0 .06 0 0-.08zm-.14.13l-.05-.08zm0 .25l-.09-.11zm1 1.07zm-.17-.06h.1l-.07-.1zm-1.22-.86h.06zm.1.15h.17l-.14-.07c0 .06-.06.05-.16 0a.26.26 0 0 0 .12.07zm-.06 0l-.14-.14c.06.07.08.14.13.15zm-.38-.07v-.05h-.07zm.55.86zm-.39-.45a.23.23 0 0 1-.07-.07.25.25 0 0 1 0-.07v.07zm-.09 0h.05l-.14-.11zm-.31-.3l.11.09zm1.34 1.75l.13.11-.13-.09zm-1.6-1.56l-.12-.13zm.64.93h-.05l.2.09c-.04.05-.08 0-.15-.06zm-.06-.07l-.12-.06zm.68.68l.16.06-.25-.23zm-.88-.81a.41.41 0 0 1-.06-.11v-.09l-.1-.07v.11l-.13-.1c.14.11.18.23.29.29zm.09.12a.14.14 0 0 0 0 .06zm-.26-.15h.1l-.17-.18z" class="cls-1" data-name="Path 10257"/>
        <path id="Path_10258" d="M17.83 16.68l-.06-.08z" class="cls-1" data-name="Path 10258"/>
        <path id="Path_10260" d="M16.65 20.36l-.06-.07z" class="cls-1" data-name="Path 10260"/>
        <path id="Path_10262" d="M20.81 14.07l.07.06z" class="cls-1" data-name="Path 10262"/>
        <path id="Path_10268" d="M15.89 19.38v.05z" class="cls-1" data-name="Path 10268"/>
        <path id="Path_10272" d="M16.79 18.11l.07.09z" class="cls-1" data-name="Path 10272"/>
        <path id="Path_10273" d="M19.34 14.92h-.11l-.06-.12.17.13z" class="cls-1" data-name="Path 10273"/>
        <path id="Path_10274" d="M14.71 19.21v.08h-.07c-.03-.06-.02-.1.07-.08z" class="cls-1" data-name="Path 10274"/>
        <path id="Path_10275" d="M15 20.11l.07.05v-.08c.09.09.17.16.12.18l-.19-.14z" class="cls-1" data-name="Path 10275"/>
        <path id="Path_10276" d="M14.55 19.27c.15.16 0 .05 0 .11-.12-.14-.01-.09 0-.11z" class="cls-1" data-name="Path 10276"/>
        <path id="Path_10277" d="M14.59 19.7c-.11-.11-.15-.17-.09-.18a.3.3 0 0 0 .07.11.76.76 0 0 0 .09.09s-.13-.14-.07-.02z" class="cls-1" data-name="Path 10277"/>
        <path id="Path_10278" d="M15.74 18l.1.18-.16-.18z" class="cls-1" data-name="Path 10278"/>
        <path id="Path_10279" d="M19.14 14.72h.08a.17.17 0 0 1 0 .07s.01.02-.08-.07z" class="cls-1" data-name="Path 10279"/>
        <path id="Path_10280" d="M19 14.89c.05 0 .05 0 .12.08l-.13-.1z" class="cls-1" data-name="Path 10280"/>
        <path id="Path_10281" d="M20.94 13z" class="cls-1" data-name="Path 10281"/>
        <path id="Path_10282" d="M15.15 18.91L15 18.8z" class="cls-1" data-name="Path 10282"/>
        <path id="Path_10284" d="M18.54 15.47v.06h-.08z" class="cls-1" data-name="Path 10284"/>
        <path id="Path_10285" d="M17.7 20.06l-.1-.06.09.09z" class="cls-1" data-name="Path 10285"/>
        <path id="Path_10286" d="M19.73 14.52v.06l-.07-.06z" class="cls-1" data-name="Path 10286"/>
        <path id="Path_10287" d="M19.39 14.88l-.12-.12c.09.03.09.03.12.12z" class="cls-1" data-name="Path 10287"/>
        <path id="Path_10288" d="M15.37 18.5v-.08h.05v.08z" class="cls-1" data-name="Path 10288"/>
        <path id="Path_10289" d="M18.47 15.38h.08z" class="cls-1" data-name="Path 10289"/>
        <path id="Path_10290" d="M15.49 18.36h-.05v-.05z" class="cls-1" data-name="Path 10290"/>
        <path id="Path_10291" d="M15.26 18.73l-.08-.08z" class="cls-1" data-name="Path 10291"/>
        <path id="Path_10292" d="M16.34 17.52l.05.09-.08-.06z" class="cls-1" data-name="Path 10292"/>
        <path id="Path_10294" d="M16.19 21.25h-.06a.09.09 0 0 1 0-.05z" class="cls-1" data-name="Path 10294"/>
        <path id="Path_10297" d="M18.48 15.58l-.08-.06.07.06z" class="cls-1" data-name="Path 10297"/>
        <path id="Path_10298" d="M15.06 18.77l.09.07z" class="cls-1" data-name="Path 10298"/>
        <path id="Path_10299" d="M17.51 16.3h.01z" class="cls-1" data-name="Path 10299"/>
        <path id="Path_10300" d="M16.42 17.47z" class="cls-1" data-name="Path 10300"/>
        <path id="Path_10301" d="M15.49 20.54l.1.08-.1-.09z" class="cls-1" data-name="Path 10301"/>
        <path id="Path_10303" d="M16.34 17.51l-.08-.05.08.08z" class="cls-1" data-name="Path 10303"/>
        <path id="Path_10304" d="M15.85 18.07l.06.06-.06-.05z" class="cls-1" data-name="Path 10304"/>
        <path id="Path_10305" d="M26.5 33.25l-.08.08-.09-.14h.11c.01 0-.06-.12-.09-.2v.12l-.16-.11v-.19l-.1-.11.23.19-.12-.15.11.07c-.15-.2-.11-.21 0-.15l-.17-.19.21.21c0-.07-.08-.12-.14-.16v-.06h.05c.11.12.14.14.15.09s0-.1.07-.07v-.06l-.12-.15c.07.05.14.11.11 0l.18.19v-.07l-.15-.09h.07a1.73 1.73 0 0 1-.14-.2v-.13l.25.22-.06-.08c.13 0 .12 0-.09-.22.09.09.14.11.12.05l.12.16c.07 0 .08 0 0-.13h.12a1.661 1.661 0 0 1-.16-.21H27l-.12-.19c.05 0 .12.07.18.12s.13.1.14.09-.09-.13-.08-.14.07 0 .1 0h.08l-.11-.09.1.05-.05-.08h.05l-.29-.13.15.09v-.1c.06.06.09.14.16.17a1 1 0 0 1 .15.1l-.08-.08v-.14l.16.2.11-.06-.17-.18c-.11 0-.08-.13-.18-.19h.06a1.75 1.75 0 0 0 .35.37 1.17 1.17 0 0 0-.27-.28c.1.06.18.12.08 0l-.1-.09a.11.11 0 0 1 .07 0c.11.06.12.06 0-.09l.08.05-.08-.16.16.15a.11.11 0 0 1 0 .05v.05a.84.84 0 0 0 .1.1l-.08-.22.13.1c-.08-.09-.18-.18-.19-.24l.26.26a.41.41 0 0 1 .06.11v.07c0 .07.11 0 0-.09s0 0 0-.06-.18-.13-.29-.24V31l.08.13.16.08-.12-.21v-.13l.13.14h.07c.07 0 .06 0 .07-.08l-.03-.16h.15c-.08-.09-.15-.18-.11-.21l.08.09h.07l-.19-.14v-.07l.09.07c-.1-.12-.05-.13.12 0-.08-.11 0-.24.08-.21a.09.09 0 0 0 0 .05.17.17 0 0 0 .06.06s-.06-.12 0-.14 0-.1.1 0 0 0 0-.05v-.06l.06.06h.09l-.12-.22.17.12v-.06l-.12-.06h.05c.05 0 .12.1.06 0l.22.14-.09-.14c.06 0 .17 0 .06-.17s0-.05 0-.06.08 0 .2.1l-.11-.19.07.1h.12v-.14h-.07l.08-.07.1.11-.08-.09-.05-.07.08.09v-.05l.16.11-.13-.17.19.16-.13-.16.1.09v-.15h-.11c-.1-.15.09 0 .07-.07.11.13.22.19.24.16l-.15-.14h.12l-.08-.07v-.07h.06l-.07-.1h.06l.13.14a1.14 1.14 0 0 0-.1-.19c0-.07 0-.08.1 0h-.05l.11.06a.27.27 0 0 0 0-.07h.06l-.14-.15h.19l.09.1.12.1V29l.09.12V29l-.1-.1h.06l.09.06c-.07-.1 0-.11.07 0l-.06-.06c-.06-.06-.08-.09 0-.06l.21.07-.11-.12h.15l-.07-.08h.11l.12.14-.05-.08h.06c-.15-.12-.06-.1-.09-.13l.11.07-.05-.07-.14-.14v-.15l.07.07h.06l.14.23v-.16a.73.73 0 0 0 .08-.09c.19.1.21.08.08-.1l.12.1.15.1-.15-.16H31c0-.06-.19-.15-.18-.22l.07.05-.07-.1h.07l-.1-.1a.7.7 0 0 1 .22.2h.07l-.17-.17c.07 0 .07 0 .28.23l-.19-.35a.1.1 0 0 0 .07 0h.08a.47.47 0 0 1 .06.09s0 .06.11.09a.21.21 0 0 1 0-.06s.05 0 .06-.07l-.15-.09c.08 0 0-.13.11-.09s0-.06 0-.1l.14.1a1.23 1.23 0 0 1-.08-.12l-.08-.09.22.16v.06c0 .06.06.08.09.13h-.05l.1-.05v-.05l-.13-.08h.05l-.09-.08c-.05 0-.08-.1-.05-.1l.06.07.09.11v-.09l.1.09c0-.1 0-.1-.21-.21v-.07l.09.1c.09 0 0 0 0-.11h.14a.76.76 0 0 1 .08.11l-.06-.06.12.12v-.09l-.16-.12c0-.08.07 0 .15.11l.08.08H32v.11s.14.09.12 0 0-.05 0-.08h-.06c0 .09-.11 0-.16 0a.41.41 0 0 1-.14-.08l-.11-.09v-.07c0-.01 0 0 .11.06l.09.08c-.05-.07-.16-.15-.15-.2s.07 0 .21.11h-.1l.15.13c.07 0 0 0 0-.1l.04-.28c0-.05-.1-.1-.1-.13s0 0 .05 0L32 27l-.14-.17.2.13c.09 0-.12-.29.1-.17-.13-.13-.07-.13-.1-.2s.07.06.08.11.06 0 0-.1.26.2.07 0l.12.07c-.08-.13 0 0 .08 0a.17.17 0 0 1 0-.05h.06l-.06-.07a.79.79 0 0 0 .17 0s0-.12.1-.08l.18.18a.17.17 0 0 1 0 .07v.06h.08a.133.133 0 0 0 .11.12v.08a.34.34 0 0 1 .18.2c.11.07.12.07.16.2s0 0 .09 0 .26.27.31.31l.17.19c.1.1.07.09 0 .06s-.09 0 0 0l.15.08h.07v.07l.18.21h-.11v-.07c-.12-.06-.1 0-.1.07a.14.14 0 0 1-.07.08c0 .05-.12.05-.14.11s-.1 0-.16.06v.07h-.11l.08.06s0 .07-.14 0l.09.08h-.14V28.93c0 .11-.09 0-.07.07s0 0 0 .06 0 .09-.08.1a.2.2 0 0 0-.13.08.62.62 0 0 0-.14.19c0 .05-.09.05-.14.07a.079.079 0 0 1-.05.07c-.05.02-.06 0 0 0l-.11-.11.11.14-.13-.11v.21l-.07-.05v.07c0 .05 0 0-.05 0l.06.07-.15-.11h-.31v.05h-.08l.12.09h-.1s.06.13 0 .08c.06.06.06.09 0 .1a.31.31 0 0 0-.07.09s0 .05-.08.06h-.14a.19.19 0 0 0 0 .08v.08l-.17-.05c.06.12.06.14 0 .1s-.06 0 0 0 0 .14-.08.07v-.08.08h-.08v.13l-.1-.09v.07h-.07l.14.18-.19.28v.08l-.08-.1c0 .1 0 .11-.1 0l.13.13-.1-.11c0 .05.12.18 0 .08v.12h-.05c-.09-.07-.1-.06 0 0s.06.1 0 .05-.06 0-.08 0c-.05-.07 0 .06 0 .06s-.05.11-.1.13a.59.59 0 0 1-.13 0v.05c0 .05-.05.09-.14 0s.05.15 0 .14a.15.15 0 0 0-.1 0v.07h-.11v.09l-.09.07-.07-.1V32c-.1-.06-.05.05-.07.08s0 .18-.12.11v.1a.56.56 0 0 1-.13 0l-.16-.18.07.14-.13-.09.17.16v.13l-.08-.09.12.2a.625.625 0 0 1-.23-.09l.13.17h-.22l.08.1-.1-.08v.12l-.07-.06v.16l-.21-.17.05.07.1.06c0 .07-.12 0-.2-.09l-.12-.1.19.2a.16.16 0 0 1 0 .07s-.07 0 0 .1l.1.08v.06l-.09-.12c-.12-.07 0 .08 0 .12l-.46-.07.08.22-.11-.1.05.11h.09c0 .07 0 .07-.05 0l-.1-.14v.09l.12.12-.16.05v.12l-.13-.13v.06l.05.09-.11-.08-.08-.06a.61.61 0 0 0 .07.1l.09.09-.14-.12.14.14a.15.15 0 0 1-.09 0l-.15-.1c.07.08.11.13.05.12v.18l-.13-.13.14.16h-.13l-.06.11c-.12-.09-.18-.09-.21-.06l.08.08-.1.1a.31.31 0 0 0 0 .1c-.09 0 0 .06-.05.08l-.13.07c-.06 0-.12-.06-.17-.07s0 0 0 .08l-.06-.06a.19.19 0 0 0 0 .08.31.31 0 0 0-.15-.15h-.06l-.05-.08a1.41 1.41 0 0 0-.18-.17l-.08-.09c.06 0 .06 0 0-.11a1.62 1.62 0 0 0-.34-.28l.13.1a.88.88 0 0 0-.15-.14h-.09c-.03 0-.09-.14 0-.14l-.1-.08-.09-.1.05.1zm6.37-6.49l-.11-.1c.03.05.06.1.11.1zm-.13 0v-.07h.06l-.12-.12c0 .11-.11 0-.13 0a1.62 1.62 0 0 1 .19.16zm1.4 1.4l.07.05h-.07zm-1.61-1.41l.14.09h.05l.13.13c0-.06-.06-.11-.1-.16a1.06 1.06 0 0 0-.1-.12l.09.09-.13-.09v.07zm.48.55l.09.09-.1-.12zm-.09.17v.06zm-.47-.53c.1.09.11.09.09 0h-.05v-.08h-.11l.16.13zm.63.66zm-.35-.27l-.17-.16v-.07l-.18-.16.07.1h-.1c.21.14.37.29.38.26zm-.5-.31h.12c-.09-.11-.14-.12-.12-.02zm.09.13h.08l.06.1h.1l-.21-.2h-.06zm0 .05v-.06h-.06zm0 .07l.08.08zm-.24-.19zm.21.28a.243.243 0 0 0-.13-.19c-.13-.08-.01.02.14.16zm-.08 0c0-.08 0-.11-.1-.21v.08zm0 .06a.26.26 0 0 0 .11.07v-.06zm.1.15zm.19.25v-.02zm-.46-.19zm-.16.18l-.09-.11a.12.12 0 0 0 0 .08zm.13.16zm-.33-.27l.15.13-.15-.14zm.07.16zm-.31-.11v-.05zm.83 1.1a.734.734 0 0 0-.13-.1zm-1.13-.8h.07l-.08-.1zm-.1.16l-.16-.15c.12.13.12.13.2.16zm1.47 1.7l-.06-.1a.2.2 0 0 0 0 .07zm-1.76-.55l-.09-.1zm-.1 0l.11.06-.14-.15zm.8.81h.06c-.12-.11-.1-.05-.1 0zm-.79-.48l-.06-.09zm-.27-.16zm.22.38l.06.1zm-.14-.15zm-.6-.7l-.16-.17a.44.44 0 0 0 .2.17zm-.05.13h.08l-.09-.15v.1zm.27.29v-.14l-.21-.14zm1.39 1.38l-.11-.11c.08.07.11.12.15.11zM30 29.41v-.07zm-.2-.16h.07l-.14-.13zm.21.45l.11-.05c-.19-.11-.23-.08-.12.05zm-.34-.35v-.05zm.16.18h.05zm-.07.18h.1l.07.1v-.05c-.11-.09-.19-.18-.28-.26l.06.08a.929.929 0 0 1 .01.13zm1.12 1.14l-.06-.06zm.11.42h.09L31 31.2zm-.12 0l.05-.06-.12-.06zm-1.71-1.65l.17.12c-.17-.17-.19-.18-.21-.15zm.24.34l.12.09V30h-.07c-.16-.19-.09-.1-.09-.07zm.39.4v-.06zm-.06.16c.11.09.17.11.14.06a1.63 1.63 0 0 0-.19-.21l.11.15zm-.51-.52l-.1-.09zm.42.68zm-.39-.43v.07-.09zm-.25-.2l.12.12zm-.09 0h.08L28.9 30zm1.52 1.62v.05l.08.07zM29 30.24l-.15-.14zm.48.51l.23.17-.23-.29zm-.73-.6l.16.07-.11-.12h-.06zm1.34 1.57v.05zm-.65-.56l.05-.05-.18-.11zm-.08.2l-.06-.08zm-.14-.06l.08.08-.11-.13s-.03.04-.01.05zm-.52-.3zm-.47-.3l-.08-.11zm.14.22l-.05-.06zm.35.51l.06.09zm-.22-.15c-.08-.07-.08-.07 0 .03zm-.36-.18l-.07-.08zm.13.2l.11.08-.15-.12zm.52.61V32v-.07zm-.63-.53h.08l-.16-.12H28a1.17 1.17 0 0 0 .16.15zm0 .14h.06l-.07-.05zm-.49-.1h.05l-.05-.06zm-.06 0h.06v-.05h-.06zm.2.25c.06 0 .06 0 0-.08zm-.15.13l-.05-.08zm0 .25l-.1-.11zm1 1.07zm-.19-.11h.1l-.08-.1zm-1.22-.86h.01zm.1.15h.17l-.13-.12c0 .06-.06.05-.16 0a.26.26 0 0 0 .11.18zm-.06 0l-.14-.14c.06.17.08.2.13.21zm-.37-.07h-.07a.29.29 0 0 0 .06.07zm.55.86zm-.39-.45l-.08-.09a.59.59 0 0 1 0-.08v.07zm-.09 0h.05l-.14-.11zm-.31-.3l.1.1v-.05zM28 34.18l.13.11-.13-.1zm-1.6-1.56l-.12-.13zm.64.93l-.04.05.2.09zm-.04-.07l-.12-.06zm.68.68l.15.07-.25-.23zm-.89-.81l-.05-.11v-.09l-.1-.07v.11l-.13-.1c.13.08.17.2.27.26zm.09.13v.05-.06zm-.26-.18l.11.05-.17-.18z" class="cls-1" data-name="Path 10305"/>
        <path id="Path_10306" d="M29.3 30l-.05-.08z" class="cls-1" data-name="Path 10306"/>
        <path id="Path_10308" d="M28.12 33.65l-.12-.08z" class="cls-1" data-name="Path 10308"/>
        <path id="Path_10310" d="M32.27 27.36l.07.06z" class="cls-1" data-name="Path 10310"/>
        <path id="Path_10311" d="M32.68 27.16v.05z" class="cls-1" data-name="Path 10311"/>
        <path id="Path_10313" d="M27.18 32.35h.05z" class="cls-1" data-name="Path 10313"/>
        <path id="Path_10314" d="M30.66 28.89v-.05z" class="cls-1" data-name="Path 10314"/>
        <path id="Path_10316" d="M27.36 32.67v.05z" class="cls-1" data-name="Path 10316"/>
        <path id="Path_10320" d="M28.26 31.4l.07.09z" class="cls-1" data-name="Path 10320"/>
        <path id="Path_10321" d="M30.81 28.21h-.12l-.06-.12.18.13z" class="cls-1" data-name="Path 10321"/>
        <path id="Path_10322" d="M26.18 32.5v.08h-.07c-.03-.06-.02-.1.07-.08z" class="cls-1" data-name="Path 10322"/>
        <path id="Path_10323" d="M26.51 33.4l.07.05v-.08c.09.09.17.16.12.18l-.14-.14z" class="cls-1" data-name="Path 10323"/>
        <path id="Path_10324" d="M26 32.56c.15.16 0 0 0 .11-.1-.14 0-.09 0-.11z" class="cls-1" data-name="Path 10324"/>
        <path id="Path_10325" d="M26.06 33c-.11-.11-.15-.17-.1-.17l.08.1a.76.76 0 0 0 .09.09s-.13-.15-.07-.02z" class="cls-1" data-name="Path 10325"/>
        <path id="Path_10326" d="M27.21 31.3l.1.18-.12-.18z" class="cls-1" data-name="Path 10326"/>
        <path id="Path_10327" d="M30.61 28h.08a.17.17 0 0 1 0 .07s.01.03-.08-.07z" class="cls-1" data-name="Path 10327"/>
        <path id="Path_10328" d="M30.45 28.18c.05 0 .05 0 .12.08l-.13-.1z" class="cls-1" data-name="Path 10328"/>
        <path id="Path_10329" d="M32.41 26.27v.06h-.06z" class="cls-1" data-name="Path 10329"/>
        <path id="Path_10330" d="M26.62 32.2l-.14-.13z" class="cls-1" data-name="Path 10330"/>
        <path id="Path_10331" d="M30.82 27.8v-.05z" class="cls-1" data-name="Path 10331"/>
        <path id="Path_10332" d="M30 28.76v.06a.1.1 0 0 1-.08-.05z" class="cls-1" data-name="Path 10332"/>
        <path id="Path_10333" d="M29.17 33.35l-.1-.08.1.09z" class="cls-1" data-name="Path 10333"/>
        <path id="Path_10334" d="M31.2 27.81v.06l-.07-.06z" class="cls-1" data-name="Path 10334"/>
        <path id="Path_10335" d="M30.86 28.17l-.12-.12c.09.03.09.03.12.12z" class="cls-1" data-name="Path 10335"/>
        <path id="Path_10336" d="M26.83 31.79v-.08h.05v.08z" class="cls-1" data-name="Path 10336"/>
        <path id="Path_10337" d="M29.93 28.67h.09z" class="cls-1" data-name="Path 10337"/>
        <path id="Path_10338" d="M27 31.65z" class="cls-1" data-name="Path 10338"/>
        <path id="Path_10339" d="M26.73 32l-.08-.08z" class="cls-1" data-name="Path 10339"/>
        <path id="Path_10340" d="M27.8 30.81l.05.09-.09-.06z" class="cls-1" data-name="Path 10340"/>
        <path id="Path_10342" d="M27.66 34.54h-.07z" class="cls-1" data-name="Path 10342"/>
        <path id="Path_10345" d="M29.94 28.87l-.07-.06z" class="cls-1" data-name="Path 10345"/>
        <path id="Path_10346" d="M26.53 32.06l.09.07z" class="cls-1" data-name="Path 10346"/>
        <path id="Path_10347" d="M29 29.59h.01z" class="cls-1" data-name="Path 10347"/>
        <path id="Path_10348" d="M27.89 30.76z" class="cls-1" data-name="Path 10348"/>
        <path id="Path_10349" d="M27 33.83l.1.08-.1-.09z" class="cls-1" data-name="Path 10349"/>
        <path id="Path_10351" d="M27.8 30.8l-.07-.05.07.08z" class="cls-1" data-name="Path 10351"/>
        <path id="Path_10352" d="M27.32 31.36l.06.06-.06-.05z" class="cls-1" data-name="Path 10352"/>
        <path id="Path_10353" d="M26.66 34.23v.26l-.17-.08c0-.08.09-.15.06-.21s-.12-.11-.2-.17l.06.24a.06.06 0 0 1 0 .07h-.08a.15.15 0 0 0 0-.07 2.1 2.1 0 0 1-.06-.24v-.23H26l.3-.07-.19-.06h.12c-.24-.08-.23-.17-.12-.23h-.25v-.16h.3c-.05-.1-.13-.06-.21 0l-.05-.09h.06c.16 0 .19 0 .17-.12s-.08-.14 0-.21h-.02a.61.61 0 0 1-.18 0c.08 0 .17-.06.08-.14h.27v-.19l-.17.09v-.14a1.44 1.44 0 0 1-.24-.09c-.06 0-.07-.1-.12-.17h.24c.12-.14.09-.16-.23-.21.13 0 .18-.05.12-.13H26l.2.07c.07-.1 0-.18-.08-.25a.65.65 0 0 0 .11-.12l-.23-.42.05-.07-.23-.09a.81.81 0 0 1 .21-.1c.12 0 .16 0 .17-.09s-.16-.07-.16-.1.05-.09.09-.14 0-.05.07-.08h-.14l.1-.08h-.09l.05-.05h-.37l.16-.09-.09-.1c.09 0 .17.07.24 0a.61.61 0 0 1 .18-.07h-.1l-.12-.19.25.07v-.3H26c-.1.13-.15-.08-.26 0v-.12a.84.84 0 0 0 .52 0c-.11-.1-.25 0-.4 0 .12 0 .21-.1.05-.16h-.13a.56.56 0 0 1 .05-.08c.13-.09.13-.09-.06-.15l.06-.05.07-.12-.14-.05h.22a.062.062 0 0 1 .06.05.264.264 0 0 1 0 .09h.14l-.18-.32h.16c-.12 0-.26 0-.31-.09h.38a.32.32 0 0 1 .12.08.107.107 0 0 0 .06.09c.06.03.11-.12-.05-.16s0-.07 0-.13-.22.09-.38.09l-.05-.15.14.08.17-.12H26l-.1-.19h.19a.56.56 0 0 1 0-.12c.07-.09 0-.18 0-.26v-.09a.34.34 0 0 0 0-.1h-.22l.13-.2c-.12 0-.23-.05-.23-.16h.12l.06-.1h-.19v-.12h.12c-.17 0-.14-.14.06-.25a.35.35 0 0 1-.1-.47v.06a.14.14 0 0 0 .09 0v-.05c0-.05-.13-.12-.12-.18s-.08-.16 0-.23 0-.08 0-.11a.15.15 0 0 0-.06-.05h.09v-.19h-.16l.2-.08-.05-.1-.13.06a.7.7 0 0 1 0-.14h.06c.17 0 .15 0 .05-.1l.26-.12h-.19c0-.12.12-.27-.08-.37a.38.38 0 0 1 0-.13c0-.08.05-.14.22-.15l-.21-.14h.13l.09-.16-.1-.22a.19.19 0 0 1-.08 0h-.05a1.965 1.965 0 0 0 0-.25h.11s-.05-.08 0-.1.11-.05.19-.09l-.21-.06.24-.06-.2-.05h.14L26 23l-.1.15c-.18-.08.06-.15 0-.22.17 0 .29-.05.28-.14h-.2l.1-.17h-.11l-.05-.11H26l-.13-.05v-.1h.19l-.2-.14c-.08-.06-.07-.11.06-.17v.08a.48.48 0 0 0 .11-.09l-.09-.04h-.15l.09-.2a1.13 1.13 0 0 1 0-.15h.13v.12h.16l-.06-.09.15.05-.08-.23h-.15v-.11l.11-.05c-.12-.05-.11-.08 0-.15h-.08c-.08 0-.12 0-.06-.06s.13-.15.2-.23h-.16l.08-.28h-.1l.06-.23h.1v-.17c-.19 0-.11-.06-.16-.08l.13-.05v-.05c0-.05-.05 0-.08 0H26l-.13-.19H26l.05-.1.26.15s0-.07-.06-.08-.09 0-.09-.1a2.43 2.43 0 0 0 0-.27c.2-.14.2-.22 0-.3h.15l.19-.08h-.23v-.11c-.07 0-.24.07-.28-.06h.08s-.1 0-.12-.06 0-.05.06-.09h-.15c.1-.09.21 0 .31 0l.06-.08H26c.06-.07.06-.07.35-.08L26 18a.75.75 0 0 0 0-.21.318.318 0 0 1 .08-.06.25.25 0 0 1 .11 0c.05.05.06.05.14 0s-.05-.05-.05-.07a.86.86 0 0 0 0-.22l-.16.11h-.05c.06-.11-.09-.21 0-.33s0-.15 0-.23l.17-.07c-.05 0-.12 0-.13-.07a.306.306 0 0 1 0-.1h-.12l.26-.1v.14a1 1 0 0 0 .16.05V17h.06v-.26h-.06l-.14.07a.44.44 0 0 0 0-.1.46.46 0 0 0 0-.09h-.12c-.07 0-.13 0-.12-.08s0 0 0-.06v-.05h.1a.42.42 0 0 0 .13 0l-.08-.08h.13c-.09-.11-.09-.11-.3 0v-.15h.13c.09-.08 0-.13-.08-.16l.05-.12a.15.15 0 0 1 .08 0h.05V16h.17l-.05-.18-.2.06v-.06c0-.06.06-.11.19-.07h.11v-.15l.11.09c0-.07.16-.08.09-.17s0-.13 0-.2v-.07h-.06c.01 0-.1.15-.14.23s-.1.07-.15.11h-.14a.282.282 0 0 1-.05-.11c0-.04 0-.08.13-.07h.12c-.09 0-.22 0-.25-.07s0-.13.22-.18l-.07.18a.88.88 0 0 0 .2 0c.07-.06 0-.12-.07-.17h-.27a.19.19 0 0 1 0-.13.22.22 0 0 1 .06-.07l-.21-.06.23-.11c.07-.13-.29-.27-.06-.44-.18 0-.13-.11-.2-.16s.08 0 .13 0 .06-.06-.1-.09c0-.05.32-.08 0-.16l.13-.08c-.14-.06 0-.08.06-.13a.1.1 0 0 1 0-.07.32.32 0 0 0 0-.09l.05-.1H26a1.92 1.92 0 0 0 .09-.32c0-.09-.07-.2 0-.28h.25a.1.1 0 0 1 .08 0 .53.53 0 0 1 0 .12l.05-.17a.1.1 0 0 0 .17 0l.07.08c.13-.07.19-.06.27 0 .13-.07.13-.07.25.07a.107.107 0 0 1 .09-.1 2.19 2.19 0 0 1 .44 0h.25c.14 0 .11 0 .06.07s-.08.09 0 .15l.17-.11.08-.06.07.06h.28l-.1.13-.07-.08c-.12.1-.05.19 0 .28a.71.71 0 0 1 0 .25 1.88 1.88 0 0 0 0 .41.89.89 0 0 1-.08.35s.06.1.05.14a.8.8 0 0 1-.09.14h.1a.168.168 0 0 1-.12.19h.13a.44.44 0 0 0 0 .1v.17a1.1 1.1 0 0 1 0 .18.2.2 0 0 1 0 .13c0 .07 0 .1.1.11a.2.2 0 0 0 0 .25v.16a.72.72 0 0 1 0 .29 1.08 1.08 0 0 0 0 .35 3.43 3.43 0 0 0 0 .56 1.24 1.24 0 0 1 0 .33v.19c0 .06-.07.06 0 .07s0 0 0 .06h-.15l.17.3h-.09v.18c.06 0 0 .08 0 .12h.1l-.19.06a.34.34 0 0 1 0 .1 2 2 0 0 1-.11.26v.06a.141.141 0 0 1-.06.14c-.06.05 0 0 0 .08l.15-.06-.08.14s.13.1 0 .18c.09 0 .1.06.09.13a2.44 2.44 0 0 0 0 .27.81.81 0 0 1 0 .22.572.572 0 0 0-.08.08c-.02.03-.05.05-.05.08a1.21 1.21 0 0 0 .05.18.67.67 0 0 0 .06.12v.06a2.08 2.08 0 0 1-.15.2c.13.08.14.12 0 .22s-.05.06 0 .11.13.17 0 .26l-.08-.06.07.11-.09.05h.05l.1.18v.09a.61.61 0 0 1-.14 0l.08.08-.06.09.22.06h-.15l.08.09h-.13c.1.09.08.14-.06.18h.19l-.13.05c0 .06.2.1 0 .17l.12.13h-.07c-.1 0-.11.06 0 .1s.11.07 0 .12-.05.11-.06.17a.2.2 0 0 0 0 .08c0 .03.09 0 0 .08l.06.05c-.06.14 0 .26 0 .39a2.25 2.25 0 0 1-.08.24.17.17 0 0 0 0 .12c.09.11 0 .22-.06.32a.17.17 0 0 1 .09.22.47.47 0 0 0-.06.19.1.1 0 0 1 .08.06l-.08.18a.6.6 0 0 1 .05.14 1.13 1.13 0 0 1 0 .26h-.12l.08.18c-.11.06 0 .16 0 .25s.15.25 0 .38 0 .06 0 .08a.714.714 0 0 1 .05.21.85.85 0 0 1-.09.22h-.24l.15.11-.16.06h.24l.11.15h-.12l.22.13c0 .08 0 .18-.22.23l.21.08c0 .06-.12.13-.08.17s0 .11-.08.17l.08.22h-.09l.1.27-.26.07h.08l.12-.07c0 .12-.12.12-.21.17v.08h.11a.9.9 0 0 1 0 .16v.3h.14v.15l-.15-.07c-.14.1.06.13.09.2l-.22.09.2.22h-.15l.12.1.09-.06c.07 0 .07 0 0 .15l-.16-.07.07.14h.17a1.807 1.807 0 0 1-.07.35l.11.13h-.13l.1.08-.13.05h.02a.57.57 0 0 0 .13 0h.01a.27.27 0 0 1-.07.13l-.19.08c.12 0 .18 0 .13.12s0 .1 0 .15a.61.61 0 0 0 0 .14l.11.18h-.18l.21.05v.36a.21.21 0 0 0-.19.23h.11V33a.77.77 0 0 0 .07.16v.22a.829.829 0 0 1-.05.33c-.05.11 0 .08 0 .12h.05a1.36 1.36 0 0 0-.17.17.142.142 0 0 0 .06.11h.3a1 1 0 0 0 .05.16.06.06 0 0 1-.05.06c0-.06-.16 0-.22 0h-.17a.65.65 0 0 0-.24 0h-.13a.17.17 0 0 1 0-.05c.05-.07 0-.1-.1-.13-.2-.07-.28.06-.44.09v-.08h.16a.6.6 0 0 0-.2 0c-.05 0 0 .1-.06.15s-.16-.07-.09-.26h-.27l.11.09zM26.57 13h-.14c.05.09.1.12.14 0zm-.11.16c-.1-.09-.1-.09 0-.14l.06-.07h-.17c.12.09-.11.09-.1.16zm2 0zm-2.13.33l.17-.07v-.11h.18a.87.87 0 0 0-.19-.1.68.68 0 0 0-.15 0h.13l-.16.06s.06.06.06.09-.06.13-.07.17zm.73.13H27zm.06.42l.07.05zm-.71-.1c.13 0 .15 0 .08-.11v-.16h-.06l-.11.12-.07-.09-.09.15h.21zm.91 0h.05v-.08h-.05zm-.44.14h-.23v-.14h-.24l.11.06-.1.09c.23.16.45.14.43.08zm-.57.3l.08-.19c-.15.1-.19.18-.11.28zm.16.08l.08-.1.11.06.09-.1a1.19 1.19 0 0 0-.29 0v.12zm0 .12h-.07l-.06.05zm.08.07zm-.3 0h.05v-.07h-.05zm.34.12c0-.09-.1-.1-.22-.09s-.01.26.2.23zm0 .21c-.09-.06-.09-.17-.22-.18v.17zm.07.06l.13-.07-.06-.07zm.18.06v-.09l-.05.09zm.31.1l-.05-.07zm-.46.45v-.07h-.05v.07zm0 .57h-.14a.081.081 0 0 0 .07.08c.07.01-.01.07.03.06zm.2 0v.08-.08zm-.42.12zm.16.13h.05v-.09zm-.3.34v-.07h-.05zm1.37.44s-.15 0-.17.05zm-1.4.75l.06-.08h-.13zm0 .43h-.22c.18.04.18.04.26-.03zm2.24.39l-.11-.09a.16.16 0 0 0 .06.08.412.412 0 0 1 .09-.02zm-1.63 2zm-.08.15l.12-.07h-.21zm1.14 0v-.11c-.15 0-.1.06-.08.1zm-.9.51l-.1-.06zm-.3.17h-.1a.42.42 0 0 1 .14-.03zm.42.27l.11.07h.05zm-.21 0v.07zm-.91-.15h-.24a.34.34 0 0 0 .28-.05zm.05.29l.06-.13-.16-.1.05.23zm.4 0l-.1-.2-.25.11zm2 0h-.16c.08.01.13.05.16-.06zm-2.13.18l-.07-.06zm-.25.08l.05-.1h-.18zm.46.39v-.27c-.14.02-.15.13 0 .23zm-.49 0v-.06h-.05zm.24 0v-.07l-.05.07zm.09.42l.08-.12.12.05v-.11h-.27s.02.11.07.14zm1.59 0zm.38.51l.08-.08-.12-.05zm-.12.15v-.17l-.12.1zm-2.37.11l.2-.09c-.19-.02-.21-.01-.2.08zm.41.16l.15-.05v-.06l-.07.07v-.11c-.21.09-.1.09-.08.14zm.56 0l-.04-.06zm.07.35c.14 0 .19-.09.14-.13a1 1 0 0 0-.28 0l.2.08zm-.66 0zm.78.42H27l.05.06h.05zm-.58-.07l.07.08h.05l-.09-.07zm-.31.09zm-.1.06l.09-.05h-.12zm2.21.17a.08.08 0 0 0 0 .07h.11zm-2 .11zm.7 0l.28-.1-.36-.1zm-.94.21l.16-.14h-.16v.16zm2.06.38v.06h.06v-.07zm-.86.16v-.16H27zm.08.46zm-.14.14h-.04s0 .07.01.07zm-.53.34h.05v-.08h-.06zm-.54.27l-.13-.01zm.26.14h.05v-.11h-.08zm.6.26l.11.05v-.1zm-.27.12v-.09c-.14.12-.14.13-.03.16zm-.37.3zm.23.1l.14-.05h-.19zm.8.16v.09h.05l-.06-.09zm-.83.16a.175.175 0 0 1 .07-.12l-.2.07v-.07.12q.049.037.1.07zm.14.18l.06-.06h-.08zm-.42.64v-.09h-.07v.1zm0 .14l.05-.07h-.05v.08zm.31.08c0-.1 0-.1-.05-.12zm0 .45zm.15.5zm1.46.13v.07-.06zm-.21.12l.09-.09h-.12zm-1.48.58v-.09h-.06v.09zm.18.09c.06-.08.09-.16.14-.24h-.18c.06.07 0 .17-.13.22a.12.12 0 0 0 .11.09zm0 .13h-.21c.04.12.08.12.12.07zm-.31.5v-.13l-.07.08v.07zm1 .51v.07zm-.59-.11a.38.38 0 0 0 0-.1h-.05a.18.18 0 0 1-.1 0l-.08-.07v.12zm-.05.18v-.14h-.18zm-.43 0h.14v-.08zm2.18.68l.17-.05h-.16zm-2.23.06zm1.11.47V34l.2-.18zm-.09 0l-.13.08zm1 0l.15-.15h-.33zm-1.2.12a.35.35 0 0 1-.11-.09.54.54 0 0 1-.07-.13h-.12l.1.1h-.16c-.01.14.1.28.22.2zm.15.06l.06.06h-.01zm-.31.14l.11-.1h-.25z" class="cls-1" data-name="Path 10353"/>
        <path id="Path_10360" d="M26.26 13.65v-.06z" class="cls-1" data-name="Path 10360"/>
        <path id="Path_10361" d="M26.5 31.62h.06z" class="cls-1" data-name="Path 10361"/>
        <path id="Path_10364" d="M26.86 31.86h.01z" class="cls-1" data-name="Path 10364"/>
        <path id="Path_10366" d="M26.85 27v-.06z" class="cls-1" data-name="Path 10366"/>
        <path id="Path_10369" d="M26.14 18.82c0 .13 0 .14-.09.18l-.13-.1z" class="cls-1" data-name="Path 10369"/>
        <path id="Path_10370" d="M25.9 33.51l.05.16-.06.08c-.04-.03-.06-.12.01-.24z" class="cls-1" data-name="Path 10370"/>
        <path id="Path_10371" d="M26.77 34.45h-.01c.13 0 .23 0 .21.09h-.19z" class="cls-1" data-name="Path 10371"/>
        <path id="Path_10372" d="M25.83 33.89c.22 0 0 .1.09.14-.2-.03-.08-.03-.09-.14z" class="cls-1" data-name="Path 10372"/>
        <path id="Path_10373" d="M26.16 34.53c-.16 0-.22 0-.19-.14s.08 0 .13 0h.12s-.22.04-.06.14z" class="cls-1" data-name="Path 10373"/>
        <path id="Path_10374" d="M25.78 29.86L26 30h-.05l-.21-.11z" class="cls-1" data-name="Path 10374"/>
        <path id="Path_10375" d="M25.86 18.83l.06-.12H26c.01 0 0 .12-.14.12z" class="cls-1" data-name="Path 10375"/>
        <path id="Path_10376" d="M25.86 19.36c.07 0 0-.1.15-.06s0 0 0 .05h-.16z" class="cls-1" data-name="Path 10376"/>
        <path id="Path_10377" d="M25.9 13a.069.069 0 0 1 .07.07v.08h-.05V13z" class="cls-1" data-name="Path 10377"/>
        <path id="Path_10378" d="M26 32.31v.08h-.2z" class="cls-1" data-name="Path 10378"/>
        <path id="Path_10379" d="M25.86 18.14V18h.06v.13z" class="cls-1" data-name="Path 10379"/>
        <path id="Path_10380" d="M26 21.06s.07 0 .06.05-.06 0-.09.06a.44.44 0 0 1 0-.1z" class="cls-1" data-name="Path 10380"/>
        <path id="Path_10381" d="M28.61 30h-.12v-.05h.13z" class="cls-1" data-name="Path 10381"/>
        <path id="Path_10382" d="M26.13 17.53a.41.41 0 0 1 .05.09h-.08v-.1z" class="cls-1" data-name="Path 10382"/>
        <path id="Path_10383" d="M26.15 18.67H26c.06-.09.06-.09.15 0z" class="cls-1" data-name="Path 10383"/>
        <path id="Path_10384" d="M25.86 31.27l-.09-.07h.06l.09.07z" class="cls-1" data-name="Path 10384"/>
        <path id="Path_10385" d="M25.85 21c0-.08 0-.08.1-.06z" class="cls-1" data-name="Path 10385"/>
        <path id="Path_10386" d="M25.85 30.84v.08h-.06v-.08z" class="cls-1" data-name="Path 10386"/>
        <path id="Path_10387" d="M26 31.81h-.11v-.1z" class="cls-1" data-name="Path 10387"/>
        <path id="Path_10388" d="M25.85 28.05V28H26l-.1.05z" class="cls-1" data-name="Path 10388"/>
        <path id="Path_10389" d="M26 20.21v-.07z" class="cls-1" data-name="Path 10389"/>
        <path id="Path_10390" d="M28.39 34.45h-.08z" class="cls-1" data-name="Path 10390"/>
        <path id="Path_10391" d="M27.87 34.52v-.07h.06v.08z" class="cls-1" data-name="Path 10391"/>
        <path id="Path_10392" d="M26 20v.07z" class="cls-1" data-name="Path 10392"/>
        <path id="Path_10393" d="M26 21.34h-.01z" class="cls-1" data-name="Path 10393"/>
        <path id="Path_10394" d="M25.84 32.21z" class="cls-1" data-name="Path 10394"/>
        <path id="Path_10395" d="M25.82 24.11l.07-.06-.06.06z" class="cls-1" data-name="Path 10395"/>
        <path id="Path_10396" d="M25.88 27.83l-.07.06.05-.06z" class="cls-1" data-name="Path 10396"/>
        <path id="Path_10397" d="M27.39 34.41z" class="cls-1" data-name="Path 10397"/>
        <path id="Path_10398" d="M25.78 28.84v-.08.07z" class="cls-1" data-name="Path 10398"/>
        <path id="Path_10399" d="M25.85 28.05h-.09z" class="cls-1" data-name="Path 10399"/>
        <path id="Path_10400" d="M25.9 29.77h.02z" class="cls-1" data-name="Path 10400"/>
    </g>
</svg>
