<svg xmlns="http://www.w3.org/2000/svg" width="28" height="29" viewBox="0 0 28 29">
    <defs>
        <style>
            .cls-1{fill:#05276c}
        </style>
    </defs>
    <g id="SEED-15" transform="translate(-12.18 -11.36)">
        <g id="OBJECTS" transform="translate(12.18 11.36)">
            <path id="Path_97" d="M28.2 17.447v.338l-.168-.068c0-.09.084-.192.053-.259s-.147-.124-.231-.18 0 0 0 .056l.095.271a.205.205 0 0 1 0 .079h-.084v-.068l-.095-.271a.41.41 0 0 1 0-.113l-.063-.135h-.242l.284-.147h-.21l.105-.09c-.263 0-.263-.113-.179-.2H27.2v-.147l.284-.135c-.084-.09-.158 0-.221.056l-.084-.068c.158-.079.179-.113.105-.2s-.126-.1-.095-.214v-.056h-.084l-.189.056c0-.079.116-.158 0-.18l.242-.158-.084-.147-.095.192-.105-.192a1.25 1.25 0 0 1-.242.079.609.609 0 0 1-.2 0l.221-.293h-.084c0-.2 0-.192-.316 0s.084-.192 0-.2 0 0 0-.056l.179-.124c0-.135-.126-.169-.252-.1v-.192l-.221.2v-.09l-.221.147a1 1 0 0 1 0-.248.267.267 0 0 0 0-.214c0-.023-.137.124-.158.1a.954.954 0 0 1-.105-.147v-.113.158l-.116-.034v-.068l-.105.406v-.2l-.116.056c0-.1.116-.158.063-.259a1.208 1.208 0 0 1 0-.214v.113l-.21.079.126-.259-.3-.1v.282c.105.135-.105.147-.053.282l-.105-.056a1.03 1.03 0 0 0 .095-.564c-.116.1-.063.271-.084.44 0-.147-.074-.248-.147-.068s0 0-.053 0v.147a.127.127 0 0 1-.074-.056c-.084-.158-.095-.158-.137.056l-.053-.056V14.2l-.053.158v-.248l.053-.068h.084a.712.712 0 0 0 0-.158l-.231.248v-.18a.7.7 0 0 1-.053.361 1.139 1.139 0 0 0-.053-.417.313.313 0 0 1 .074-.158.092.092 0 0 0 .084-.068c.021-.068-.147-.1-.168.079s-.074 0-.126.068.126.225.137.406l-.126.079.053-.169-.147-.169v.271l-.473.214v-.225a.285.285 0 0 1-.137 0 .237.237 0 0 0-.242.1h-.2l.084.158v.068h-.231c0 .135.063.248 0 .3v-.12h-.105l.095.192-.074.113-.105-.1c.063.18 0 .214-.231.1a.348.348 0 0 1-.263.395v-.08c0-.079 0-.068-.063-.068v.237c0 .045 0 .169-.179.147s0 .068 0 .113a.229.229 0 0 0 0 .079h-.074a.591.591 0 0 0-.147.135l.147.09h-.21v.124h.147v.124h-.063c-.011 0-.158 0-.084.068h-.484l.168.113c-.063.1-.21.225 0 .395a.483.483 0 0 1 0 .124c0 .079-.074.124-.252.1.063.079.137.135.189.192l-.126-.068-.126.158a1.231 1.231 0 0 0 .116.158h.147v.248h-.116s.053.09 0 .113a1.517 1.517 0 0 1-.189.1l.221.056-.252.09h.078l.147.18.084-.169c.2 0 0 .158 0 .225-.168 0-.284.113-.252.2l.2-.068-.053.192h.105a.623.623 0 0 0 .084.09l-.063.068h.137v.124l-.179.079h.252c.095 0 .105.056 0 .18v-.09a.778.778 0 0 0-.063.135h.084v.076l.21-.079v.225l.063.135-.126.079-.074-.1-.105.316h-.042l.21.158.126-.09.053.113-.053.124c.126 0 .147 0 .084.147l.063-.056c.063-.068.095-.09.095 0a1.993 1.993 0 0 0 0 .338l.116-.124.179.271.074-.079c.063.079.126.135.179.192l-.137.158.084-.068.147.113c.063-.214.116-.079.158-.124a1.038 1.038 0 0 0 0 .169c0-.056.053 0 .074-.068l.084-.2.21-.056v.1l.074.079-.242.214h.113c.021 0 .084-.068.137 0a.818.818 0 0 0 .263.079c.084.259.189.293.3 0a.978.978 0 0 0 0 .18.492.492 0 0 0 .053.214l.063-.237.116.056c0-.079 0-.271.095-.316v.09a.558.558 0 0 1 .074-.124c.021-.011.053 0 .084.068v-.169a.408.408 0 0 1 0 .349.756.756 0 0 0 .095.079v-.271c.074.056.074.056.095.383l.084-.395h.074a.335.335 0 0 0 .21 0 .08.08 0 0 1 .074.079.168.168 0 0 1 0 .124.205.205 0 0 0 .053.158.244.244 0 0 1 .063-.079.34.34 0 0 0 .221-.068l-.147-.147v-.056c0 .011.189-.158.326-.079s.147-.079.21-.135l.137.158a1.014 1.014 0 0 1 0-.18.115.115 0 0 0 .095-.056v-.124l.221.214a.124.124 0 0 0-.116.113 1.208 1.208 0 0 0 0 .18l-.158.068v.057a2.149 2.149 0 0 0 .284-.1v-.079l-.147-.1h.221l-.074-.1v-.169V21a.459.459 0 0 0 0 .147v-.127l.084.113c.053-.158 0-.147-.168-.282l.095-.124.063.135c.126 0 .116-.09.084-.192h.21a.607.607 0 0 1 .063.147l.179.079h-.063l.137.135a.933.933 0 0 0 .126-.18l-.2-.079h.063c.074-.147.137 0 .189.1l.084.09.147-.113v.158c.074 0 .189.068.21-.068s.084-.147.137-.214v-.09h-.084a2.71 2.71 0 0 0-.284.113c-.084.045-.126 0-.2 0l-.126-.09a.41.41 0 0 1 0-.135h.148a.225.225 0 0 0 .116.056c0-.09-.189-.135-.147-.237s.126-.079.3 0l-.179.1c.063 0 .137.113.179.113s.105-.1.074-.2l-.095-.09a.124.124 0 0 1-.116-.135c.011-.056.053-.079.084-.113a.157.157 0 0 1 .095 0l-.158-.192h.263c.147-.09-.126-.406.168-.451-.168-.09-.095-.169-.137-.248s.084 0 .116.1.074 0-.074-.135c0 0 .347 0 .074-.147h.158c-.137-.124 0-.09.095-.124h-.053a.229.229 0 0 1 0-.079.326.326 0 0 0 0-.1l.063-.1h-.084c0-.113.126-.2.137-.327s-.063-.225 0-.316h.337a.737.737 0 0 1 0 .147l.063-.2s.074.135.168 0l.074.113c.147-.1.2-.09.273 0 .147-.09.158-.09.273.124 0 0 0-.124.095-.147a2.189 2.189 0 0 1 .463 0 1.82 1.82 0 0 0 .263.056c.137 0 .105.068.053.135a.189.189 0 0 0 0 .271l.179-.192.095-.1.074.124.294.113c0 .068-.074.124-.137.237V18.4c-.158.169-.105.338-.105.53a1.693 1.693 0 0 1-.074.462c-.053.259-.189.473-.252.744a1.732 1.732 0 0 1-.326.575.926.926 0 0 1-.074.259 1.061 1.061 0 0 1-.21.169h.084c-.095.079-.116.259-.284.214v.068h.137l-.063.068-.116.124-.053.068c-.168 0-.168.124-.221.225l-.189.259a.66.66 0 0 1-.189.158c-.126 0-.137.113-.074.225a.6.6 0 0 0-.337.282c0 .09-.147.147-.231.214a2.338 2.338 0 0 1-.431.3c-.2.079-.389.158-.589.259a9.583 9.583 0 0 1-.925.395 2.138 2.138 0 0 1-.6.079h-.053a3.4 3.4 0 0 1-.347.068c-.116 0-.095-.068-.105 0H24.4v-.169l-.084.5-.084-.192a3.266 3.266 0 0 1-.526.18l-.053-.1h-.316a.253.253 0 0 1-.21-.068l-.063.113-.064-.233a.982.982 0 0 1-.179 0l-.421-.248h-.1l-.21-.147a.324.324 0 0 0-.137 0v.192l-.189-.169c-.084-.056-.221 0-.3-.124-.063.079-.147.056-.242 0l-.41-.248a1.415 1.415 0 0 1-.326-.248.258.258 0 0 0-.063-.169.568.568 0 0 0-.084-.135l-.239-.18-.2-.1h-.09q-.073-.194-.126-.395c-.189 0-.263-.056-.284-.271a.18.18 0 0 0-.116-.18.347.347 0 0 1-.242-.395h.126l-.158-.135v-.135a2.6 2.6 0 0 1-.252-.237.066.066 0 0 1-.063-.056.323.323 0 0 1-.074-.147.164.164 0 0 0 .126-.079l-.126-.079a1.027 1.027 0 0 1 0-.18h-.252l.105-.135-.168-.2h.137c-.158-.124-.179-.225-.053-.349h-.19l.126-.135c-.074-.079-.263-.124-.116-.282L18 19a.186.186 0 0 1 .063-.068c.105-.068.095-.124 0-.18s-.126-.113 0-.237a.881.881 0 0 0 0-.3.821.821 0 0 0 0-.158c-.095-.068-.095-.068 0-.158S18 17.83 18 17.807a2.52 2.52 0 0 0 0-.744c0-.248.116-.282.158-.428a.809.809 0 0 0 0-.225.666.666 0 0 1 .21-.564.418.418 0 0 1 0-.428 2.876 2.876 0 0 0 .189-.3v-.124l.221-.282a2.3 2.3 0 0 1 .074-.248 2.486 2.486 0 0 1 .263-.417l.063.158.116-.327c.158 0 .168-.237.273-.372s.2-.462.473-.5a.413.413 0 0 0 .095-.124.849.849 0 0 1 .252-.282 1.3 1.3 0 0 1 .368-.158l.095.248h.074l.063-.237.179.09-.137-.237.168-.248v.135a1.6 1.6 0 0 1 .095-.327.331.331 0 0 1 .463.056v-.282h.621v-.124a1.016 1.016 0 0 0 .105.113l.358-.18v.1l.442-.192c0 .079.095.18.147.293l.063-.1-.126-.124c.2-.068.21.124.3.214h.135v.18-.316a2.218 2.218 0 0 1 .273 0 .611.611 0 0 0 .4 0 .188.188 0 0 1 .126.056v-.147h.252l-.137.147c.137.18.221 0 .358 0l.105.282.421-.113v.171l.2-.068-.078-.132c.095-.056.095-.056.252.1l-.168.124h.252v-.18c.2.113.368.248.526.349h.263l-.105.192H27v.293a.765.765 0 0 0 .137-.068.294.294 0 0 0 .074-.113l-.063.225.116-.18a1.043 1.043 0 0 1 .137.214 1.063 1.063 0 0 1 0 .259c.084-.09.158-.124.231 0s.137.113.2.18l.189.169.3.18-.158.113.221-.09.053.147.337.406a.478.478 0 0 0 0 .5l.105-.056c.105.18.189.361.273.541.074.09.137.158.189.237 0 .169.116.237.147.372a4.8 4.8 0 0 1 .116.631l.063.237a2.453 2.453 0 0 0-.126.361.2.2 0 0 0 .095.192h-.095l.063.3a.156.156 0 0 1 0 .1.122.122 0 0 0-.221 0h-.074a.21.21 0 0 0-.095-.068.413.413 0 0 0-.263 0h-.137a.29.29 0 0 1 0-.09c0-.124 0-.18-.126-.2v.135c-.221-.09-.294.124-.452.169v-.113l.168-.068h-.221c-.032 0 0 .147-.053.225s-.158-.09-.116-.361l-.126.068h-.138l.126.1zm-.084.665h-.158c.055.045.108.101.16 0zm-.137.192c-.095-.124-.095-.124 0-.18l.074-.079h-.189c.126.113-.116.1-.116.18zm2.1.248zm-2.282.1h.189v-.112a.638.638 0 0 1 .189 0 .973.973 0 0 0-.168-.147.373.373 0 0 0-.168 0H27.8a.41.41 0 0 1 0 .124.641.641 0 0 1-.042.135zm.715.349zm-.105.586h-.047v.09zm-.663-.406c.126 0 .158 0 .116-.09l.084-.18H27.9l-.137.1v-.124a1.487 1.487 0 0 0-.126.135h.21zm.873.417h.053v-.113h-.053zm-.484 0l-.231-.09v-.168l-.242-.09.095.113-.137.068c.231.169.452.248.473.169zm-.694.068l.168-.169c-.147-.034-.242.023-.21.169zm.105.169l.126-.068.074.124.137-.068a1.54 1.54 0 0 0-.281-.123l-.095.1zm-.084.135v-.079h-.084zm0 .113l.084.09zm-.294-.113h.063v-.09zm.231.338c.063-.1 0-.169-.137-.225s-.063.09.137.2zm-.168.192a.516.516 0 0 0-.063-.316l-.074.18zm0 .1h.158v-.11zm.095.192l.105-.068-.105.056zm.137.3v-.113zm-.747.056l.116-.056-.053.068zm-.536.44v-.158.113c0 .045.011.011.042.045zm.074.214l.095-.056-.084.079zm-.337-.338l.137.18zm-.053.237zm-.473-.147l.053-.079zm-.032 1.646h.143s-.074-.158-.105-.169-.032.169-.032.176zm-.925-1.386l.105.068v-.152zm-.463 0v-.237c-.116.2-.116.2-.053.282zm-.789 2.457l.179-.1a.569.569 0 0 0-.147 0 .559.559 0 0 0-.084.147zm-2.03-2.919l.116-.1zm-.084-.192v.158l.179-.147zm-.862.879l.095.158c.116-.135 0-.158-.053-.192zm.21-1.274v.056h.126v-.068zm.126-.383a.181.181 0 0 0 0 .079h.06a.169.169 0 0 0 0-.068s-.011-.011-.053-.011zm-.557-.068h-.158v.068zm.21-.09l-.095-.09v.09zm.957-.372l.21-.124a.321.321 0 0 0-.21.124zm-.2-.248a.736.736 0 0 0 0 .158h.2a1.166 1.166 0 0 1-.158-.18zm-.379.192l.21.158.158-.259zm-1.83 1.026l.147-.1c-.147-.034-.231-.068-.189.1zm1.893-1.308zm.221-.192v.124a1.363 1.363 0 0 1 .158-.113zm-.61-.259a.585.585 0 0 0 .074.338c.105-.147.063-.271-.116-.338zm.5-.135zm-.252.056a.35.35 0 0 0 0 .1h.053a.314.314 0 0 1 0-.09zm-.189-.473l-.074.169h-.126a.712.712 0 0 0 .053.124l.379-.135h-.106zm-1.651.248v.079h.095zm-.473-.857l-.084.147.137.09zm.116-.271a2.934 2.934 0 0 0 0 .3 1.25 1.25 0 0 1 .137-.18zm2.5 0l-.21.079c.158 0 .179 0 .168-.113zm-.421-.214h-.158v.083l.074-.068v.124c.179-.056.053-.113.042-.169zm-.578-.1l.074.068zm0-.485c-.147 0-.221.09-.179.147a.66.66 0 0 0 .294.09l-.189-.135zm.684.135zm-.642-.766h.063v-.113h-.053zm.557.293v-.113h-.063zm.337 0l-.168-.056v.062zm.126 0h.011zm-2.1-1.184a.2.2 0 0 0 0-.135h-.116zm2 .823l.2.09zm-.663-.417h-.316l.3.282a1.971 1.971 0 0 0 .02-.276zm.989.271h-.221l.137.113a.646.646 0 0 1 .105-.135zM19.56 14.33l.084-.068zm.852.383l-.126.18.168.135a2.517 2.517 0 0 0-.042-.372zm.368-.564v.1zm.242 0a.33.33 0 0 0-.095-.079l.074.169c0-.113.032-.147.021-.169zm.684.18l-.074.068zm.557.338v.158zm0-.327h-.116l.053-.011zm0-.755v-.147l-.105.068zm.242.2l-.095.056c.105.011.105 0 .084-.135zm.463.282v.135zm0-.293l-.105-.124.095.2zm0-.924l.105-.09-.105.1zm.368.868a.266.266 0 0 1-.147-.056l.126.2h.053a.748.748 0 0 0-.011-.225zm.189-.192l-.074-.056v.079zm.736.44h-.095v.079h.095zm.147 0a.058.058 0 0 0-.063-.056l.084.068zm.126-.338c-.116-.068-.116-.056-.147 0zm.5.113l-.063.09zm.6 0l-.074.147zm.768-1.443l.105.056-.095-.056zm.084.3l-.084-.158-.105.09zm-.084 1.86l-.084-.135.063.09zm.189-.1a1.344 1.344 0 0 0-.147-.3l-.084.18c.105 0 .158.135.126.282a.142.142 0 0 0 .084-.192zm.105.135l-.147.169c.116-.056.147-.09.126-.169zm.179.676l-.116-.1a.447.447 0 0 0 0 .124.069.069 0 0 0 .053 0s.011 0 .042-.023zM28.084 15l.053.09V15zm-.6.259a.3.3 0 0 0-.074-.09h-.053c-.053 0 0 0 0 .068s-.053.068-.074.068h-.116l.105.09zm.074.225a.541.541 0 0 0-.084-.158l-.126.147zm-.379.282l.126-.113h-.074zm2.471-.192l.116-.124-.053-.056-.126.158zm-2.2 1l-.179.056zm1.283.237v.248h.067l.179-.3zm-.095 0H28.6a1.267 1.267 0 0 1-.105.147zm.989-.237l.095-.3-.337.135zm-1.209.44a.771.771 0 0 1-.137-.09.8.8 0 0 1-.105-.158l-.116.09.137.113-.158.09c.126-.1.263.056.379-.068zm.168.056l.063.068h.053l-.074-.068zm-.294.225l.095-.135h-.263z" class="cls-1" data-name="Path 97" transform="translate(-10.488 -11.36)"/>
            <path id="Path_98" d="M20.27 16.551l.023-.011.1.056-.034.023z" class="cls-1" data-name="Path 98" transform="translate(-10.771 -10.72)"/>
            <path id="Path_99" d="M21 14.52v.056z" class="cls-1" data-name="Path 99" transform="translate(-10.645 -10.958)"/>
            <path id="Path_100" d="M28 13.8v.045l-.113.011v-.045z" class="cls-1" data-name="Path 100" transform="translate(-9.443 -11.05)"/>
            <path id="Path_101" d="M28.359 13.58v.068h-.079a.49.49 0 0 1 .079-.068z" class="cls-1" data-name="Path 101" transform="translate(-9.376 -11.078)"/>
            <path id="Path_102" d="M26.88 19.363v-.023l.1.034v.034z" class="cls-1" data-name="Path 102" transform="translate(-9.62 -10.374)"/>
            <path id="Path_103" d="M27.54 18.45h.034l.045.079h-.056z" class="cls-1" data-name="Path 103" transform="translate(-9.505 -10.484)"/>
            <path id="Path_104" d="M27.214 17.948l-.034-.011.056-.056.045.023z" class="cls-1" data-name="Path 104" transform="translate(-9.567 -10.554)"/>
            <path id="Path_105" d="M26.3 14.318v-.068.056z" class="cls-1" data-name="Path 105" transform="translate(-9.723 -10.992)"/>
            <path id="Path_108" d="M26.758 14.236h-.068v-.056h.056a.2.2 0 0 0 .011.056z" class="cls-1" data-name="Path 108" transform="translate(-9.653 -11.001)"/>
            <path id="Path_109" d="M27.523 18.116l-.023-.034.068-.023.023.023z" class="cls-1" data-name="Path 109" transform="translate(-9.512 -10.532)"/>
            <path id="Path_110" d="M21.418 13.77l.011.011-.056.056-.023-.023z" class="cls-1" data-name="Path 110" transform="translate(-10.583 -11.054)"/>
            <path id="Path_111" d="M24.82 13.33v.07a.169.169 0 0 1 0-.07z" class="cls-1" data-name="Path 111" transform="translate(-9.981 -11.109)"/>
            <path id="Path_112" d="M22.891 13.375h-.011v-.135l.034.011z" class="cls-1" data-name="Path 112" transform="translate(-10.318 -11.121)"/>
            <path id="Path_113" d="M23.249 20.468c-.147 0-.147 0-.169-.124a.676.676 0 0 0 .135-.124v.248z" class="cls-1" data-name="Path 113" transform="translate(-10.28 -10.265)"/>
            <path id="Path_114" d="M26.823 16.18l.09.158v.1c-.102-.033-.147-.111-.09-.258z" class="cls-1" data-name="Path 114" transform="translate(-9.633 -10.747)"/>
            <path id="Path_115" d="M27.821 17.006h.09l-.1-.056c.135 0 .248 0 .237.113h-.214z" class="cls-1" data-name="Path 115" transform="translate(-9.454 -10.669)"/>
            <path id="Path_116" d="M26.832 16.53c.237 0 0 .1.124.124-.225.034-.113-.068-.124-.124z" class="cls-1" data-name="Path 116" transform="translate(-9.63 -10.721)"/>
            <path id="Path_117" d="M27.246 17.115c-.18 0-.259 0-.225-.135h.147a.541.541 0 0 0 .135 0s-.215.02-.057.135z" class="cls-1" data-name="Path 117" transform="translate(-9.591 -10.665)"/>
            <path id="Path_118" d="M24.46 14.162l.169-.192.023.068-.169.2z" class="cls-1" data-name="Path 118" transform="translate(-10.039 -11.028)"/>
            <path id="Path_119" d="M23.271 20.17l.113.09a.2.2 0 0 1-.056.079c-.057.011-.08-.034-.057-.169z" class="cls-1" data-name="Path 119" transform="translate(-10.249 -10.271)"/>
            <path id="Path_120" d="M22.818 20.05c0 .079.079.068 0 .192h-.068v-.192z" class="cls-1" data-name="Path 120" transform="translate(-10.339 -10.286)"/>
            <path id="Path_121" d="M27.005 17.26a.066.066 0 0 1 .068.068c0 .068 0 .056-.056.079h-.057v-.147z" class="cls-1" data-name="Path 121" transform="translate(-9.605 -10.631)"/>
            <path id="Path_122" d="M26.419 15.15s.056.079 0 .079a.935.935 0 0 1-.169.124z" class="cls-1" data-name="Path 122" transform="translate(-9.727 -10.878)"/>
            <path id="Path_123" d="M23.89 20.213l.135-.023.011.056-.135.011z" class="cls-1" data-name="Path 123" transform="translate(-10.139 -10.269)"/>
            <path id="Path_124" d="M21.47 19.321h-.09a.53.53 0 0 1 0-.1v.09z" class="cls-1" data-name="Path 124" transform="translate(-10.578 -10.389)"/>
            <path id="Path_125" d="M25.309 11.43l.023.147-.1.011v-.147z" class="cls-1" data-name="Path 125" transform="translate(-9.907 -11.351)"/>
            <path id="Path_126" d="M24.5 20.423v.011l-.09.068-.023-.1.124.023z" class="cls-1" data-name="Path 126" transform="translate(-10.053 -10.243)"/>
            <path id="Path_127" d="M23.38 20.5v-.2c.101.113.101.113 0 .2z" class="cls-1" data-name="Path 127" transform="translate(-10.23 -10.255)"/>
            <path id="Path_128" d="M25.633 14.588h-.113v-.068h.113z" class="cls-1" data-name="Path 128" transform="translate(-9.856 -10.958)"/>
            <path id="Path_129" d="M21.56 19.25c.056 0 .056 0 0 .124z" class="cls-1" data-name="Path 129" transform="translate(-10.547 -10.385)"/>
            <path id="Path_130" d="M25.305 14.38l.045.079-.045.056-.045-.079z" class="cls-1" data-name="Path 130" transform="translate(-9.902 -10.976)"/>
            <path id="Path_131" d="M26.077 14.83l-.068.113-.079-.079z" class="cls-1" data-name="Path 131" transform="translate(-9.784 -10.919)"/>
            <path id="Path_132" d="M22.881 14.144h-.1v-.124l.09.079z" class="cls-1" data-name="Path 132" transform="translate(-10.334 -11.022)"/>
            <path id="Path_133" d="M22.073 19.8l.068.034-.034.056-.056-.056z" class="cls-1" data-name="Path 133" transform="translate(-10.461 -10.317)"/>
            <path id="Path_134" d="M29.457 17s-.056.056-.079.056-.056 0-.068-.068 0 0 .056 0 .046.012.091.012z" class="cls-1" data-name="Path 134" transform="translate(-9.195 -10.668)"/>
            <path id="Path_135" d="M28.934 17.105l-.034-.124.068-.011.011.135z" class="cls-1" data-name="Path 135" transform="translate(-9.268 -10.667)"/>
            <path id="Path_136" d="M22.208 20z" class="cls-1" data-name="Path 136" transform="translate(-10.446 -10.292)"/>
            <path id="Path_137" d="M21.26 19.14l.068-.09-.056.09z" class="cls-1" data-name="Path 137" transform="translate(-10.599 -10.41)"/>
            <path id="Path_138" d="M26.22 15.191l.079-.1.045.011-.09.1z" class="cls-1" data-name="Path 138" transform="translate(-9.734 -10.886)"/>
            <path id="Path_139" d="M20.765 16.714l-.09.045-.045-.023.09-.056z" class="cls-1" data-name="Path 139" transform="translate(-10.708 -10.703)"/>
            <path id="Path_140" d="M22.68 14.18l.079.045v.056l-.079-.045z" class="cls-1" data-name="Path 140" transform="translate(-10.352 -11.001)"/>
            <path id="Path_141" d="M28.44 16.954l.147-.034.011.034-.147.034z" class="cls-1" data-name="Path 141" transform="translate(-9.346 -10.673)"/>
            <path id="Path_142" d="M23.579 14.086l-.079-.011v-.045h.079z" class="cls-1" data-name="Path 142" transform="translate(-10.209 -11.02)"/>
            <path id="Path_143" d="M22.87 14.133l.056.09v-.113z" class="cls-1" data-name="Path 143" transform="translate(-10.319 -11.01)"/>
            <path id="Path_144" d="M24.4 14.021l.023-.1h.023v.09z" class="cls-1" data-name="Path 144" transform="translate(-10.053 -11.034)"/>
            <path id="Path_145" d="M27.006 24.531h-.8l.247-.18a4.065 4.065 0 0 0 .67.1 3.058 3.058 0 0 0 .54-.18.362.362 0 0 0-.117-.056h-.764a.5.5 0 0 1-.223 0v-.09h.975c.258 0 .223.056.329.068h.423l.083-.193.176.361.211-.18a1.137 1.137 0 0 1 .141.169.532.532 0 0 1 .74 0 2 2 0 0 1 .188-.248h-.082l.493.124-.07.327c.329.056.258-.079.188-.192h.294a.217.217 0 0 1 0 .079c-.059.18 0 .225.305.3a1.2 1.2 0 0 1 .658.259l.082.079.082.113a.428.428 0 0 0 .129 0 .893.893 0 0 1 .235-.124.353.353 0 0 0 .376.282l-.188.248a6.191 6.191 0 0 1 .552.282l-.141-.3.376.259a1.366 1.366 0 0 1 .423-.068 1.584 1.584 0 0 1 .529.169l-.106.395.282-.079c.282.372.364.395.728.2v.056a.408.408 0 0 0 .235.383.215.215 0 0 1 .094.124s0 .056-.059 0a.564.564 0 0 0-.117-.09h-.305a1.023 1.023 0 0 0 .658.44l.188.338h.388l.117.2.458.1c0 .124.07.293 0 .383a.284.284 0 0 0 0 .349c.129 0 .258 0 .317.124a1.838 1.838 0 0 1 .211.428 1.28 1.28 0 0 1 .07.225h.059l.082-.169a2.162 2.162 0 0 1 0 .293h.134v.158c.106-.09.188-.18.317-.3v.349l.258.225c-.082 0-.294-.1-.223.158a.671.671 0 0 1 0 .3h.082l.082-.079c.141.135.247.282.411.473l-.376-.068c.141.293.258.575.388.834l.27-.1c-.082-.428.27.158.294-.079l.094.361c-.247-.09-.446-.09-.587.135.223.237.305 0 .47-.079-.07.214-.117.383.129.507 0 0 0 .113.082.147h.141a.844.844 0 0 1 0 .237c-.059.327-.059.338.2.451v.169a1.343 1.343 0 0 1 0 .18l.2.124a1.309 1.309 0 0 1-.223.169.618.618 0 0 1-.106-.158 1.185 1.185 0 0 0-.117-.248c-.047-.068-.07 0-.153 0 .164.248.294.44.423.654l-.153.158a.364.364 0 0 1 .4.225 2.051 2.051 0 0 1-.435.068s-.129-.135-.188-.214a1.269 1.269 0 0 0-.117-.259c0 .192-.059.395.153.485a1.537 1.537 0 0 1 .117.451c.2.2.188-.44.376-.406s.094.372.176.7l-.223-.395a3.8 3.8 0 0 1-.129.564h.294a8.882 8.882 0 0 1 .153 1l-.235-.2a4.392 4.392 0 0 1 0 .575 4.984 4.984 0 0 0 0 1.184 2.449 2.449 0 0 1-.411 0h-.517l.247.158.07.068a6.058 6.058 0 0 1-1.116-.068c0 .135-.153.259-.764.259v.135l-.54-.068v.221h-.458l-.106-.124c-.129.18-.423.147-.74-.068a2.271 2.271 0 0 1-1.375.1.558.558 0 0 0 .211-.056.306.306 0 0 0-.153 0 2.3 2.3 0 0 1-.517.124 1.793 1.793 0 0 1-.693 0 .869.869 0 0 0-.317 0 .9.9 0 0 0-.153.068v-.192h-.623v.192h-.07l-.223-.225H31.2l.164.147h-.388s-.129 0-.117-.068c0-.192-.094-.169-.294-.056l-.364-.282-.082.2a1.623 1.623 0 0 0-1.1.1h-.364c-.235 0-.411-.056-.446-.237l-.411.237h-.082l.106-.135-.482-.113-.376.237a.394.394 0 0 1 .106.09v.061h-.858v-.225H26.1l-.082.079v.113h-.07v-.135a1.053 1.053 0 0 1-.305 0c-.106 0-.153-.135-.247-.225l-.2.248a2.175 2.175 0 0 0-.176-.271l-.176.271h-.07l-.059-.147-.564.124.423.113c-.211.2-.435-.068-.646 0 .059-.18-.141-.327-.4-.316v.225l-.482-.1v.1l-.317.056-.07-.056-.141.135h-.294v-.214l-.411.225a.4.4 0 0 1-.493-.147h.235a1.7 1.7 0 0 0-.247-.135.729.729 0 0 0-.164.079h-.164l-.129-.068-.094.237-.611-.113a.22.22 0 0 1-.106 0h-.446l.07-.147h.352l-.094-.18-.27.068a.964.964 0 0 1 .164-.169l-.693.09v.158h-.329l-.141-.124c-.153.135-.247.124-.446 0a.4.4 0 0 0 0 .1c0 .079 0 .124-.188.056s-.423-.135-.67-.214l-.059.18-.834-.1v.113h-.693l.094-.214h-.082a.835.835 0 0 1-.164.113h-.8c.141.225-.352.135-.458.18a1.815 1.815 0 0 0-.2-.147.4.4 0 0 0-.2 0 .409.409 0 0 0-.2.079 1.043 1.043 0 0 0-.141.214h-1.021l.07-.1h-.211v-.2a.4.4 0 0 0 .106.113h.244l.435-.113a1.677 1.677 0 0 0-.4 0c-.247.158-.235-.068-.223-.293v-1.129c.235-.733.258-1 0-1.409a.776.776 0 0 0 .2-.135 1.912 1.912 0 0 1 .27-.259l-.247-.124.094-.338c0-.1-.329.158-.27-.248l.106-.056a.681.681 0 0 1-.082-.214.812.812 0 0 1 .141-.259l-.164-.068c.188-.237.27-.056.376 0l.129-.225-.27-.079c.129-.192.129-.18.47-.113l-.282-.428a.324.324 0 0 1 .094-.214 5.606 5.606 0 0 0 .258-.609.3.3 0 0 1 .164-.135.458.458 0 0 1 .059.158c0 .056 0 .158.2 0a.584.584 0 0 1 0-.214c.082-.18.188-.361.282-.6l-.329.2v-.1c.211-.282.223-.654.529-.9a2.627 2.627 0 0 0 .364-.654L15 29.9a.552.552 0 0 1 0-.237 1.79 1.79 0 0 1 .2-.282l-.082-.113.446-.068a2.236 2.236 0 0 0-.223.361.476.476 0 0 0 0 .248l-.294.361.517-.609v-.113l-.282.079.211-.225.211-.214h-.141c-.082 0 0-.192.07-.282a.456.456 0 0 0 .117-.135l.106-.158a.584.584 0 0 1 0 .124.217.217 0 0 0 0 .158.256.256 0 0 1 .106-.237l.129.068c.164-.327.164-.327-.247-.237l.282-.361.07.147a.486.486 0 0 0 .317-.428 2.074 2.074 0 0 1 .329-.192H17a.971.971 0 0 1 0 .192h-.059v-.09l-.176.158.188.09c.153-.147.294-.3.411-.428h-.305v-.079s.117 0 .153-.079c.317-.3.329-.158.317 0s0 .056.082.09l.411-.259-.153.248c.188-.09.317 0 .493-.214a1.849 1.849 0 0 1 .47-.349l.164-.124h-.141c-.235.214-.47.169-.7.282a.979.979 0 0 1-.364 0v.068l-.176-.079c.094-.09.164-.18.258-.259s.235-.124.27 0 .094 0 .164 0-.211-.147 0-.349a.557.557 0 0 1 .67-.338l-.529.225c.082 0 .141.113.247.1a.5.5 0 0 0 .4-.316v-.124c0-.023-.117-.124 0-.214a1.865 1.865 0 0 1 .364-.2.845.845 0 0 1 .247 0v-.293l.446.09c.411-.124.681-.665 1.292-.586 0-.2.27-.259.423-.395.07.079.07.079-.094.192.235 0 .235 0 .258-.2s.352.282.517-.1l.282.079c.176-.2.282 0 .435 0a.614.614 0 0 1 .2-.079 1.42 1.42 0 0 0 .294-.079h.341v-.1h1.057a2.741 2.741 0 0 1 .9 0 1.287 1.287 0 0 1 0 .293.212.212 0 0 1-.141.09l-.376.056h.529c0 .056-.341.1 0 .192l-.258.09c.223.147.2.2-.07.316.211.124.2.135-.211.293.094 0 .247 0 .294.079a1.753 1.753 0 0 1 0 .5c0 .068-.07.2-.07.293s-.082.124-.188.079a.414.414 0 0 0-.423 0l.329.169.153.079-.153.09s-.07 0 0 .056l-.094.327-.329-.1.2-.079c-.258-.147-.482 0-.717 0a2.172 2.172 0 0 0-.623.124 10.242 10.242 0 0 0-1.034.225 3.643 3.643 0 0 1-.881.225h-.07a1.778 1.778 0 0 1-.305.2 1.763 1.763 0 0 1-.364 0l.153.068h-.088c-.164 0-.329.192-.493.09l-.094.068.141.09-.117.056-.223.09h-.106a.465.465 0 0 0-.388.2l-.352.282a1.074 1.074 0 0 1-.282.18c-.188.056-.211.147-.153.259a1.009 1.009 0 0 0-.458.395c-.059.113-.2.192-.282.3a4.348 4.348 0 0 1-.493.53 4.487 4.487 0 0 0-.587.654 8.217 8.217 0 0 0-.811 1.319 4.849 4.849 0 0 1-.411.71V33a2.669 2.669 0 0 1-.153.451c-.07.147-.117.1 0 .158a.465.465 0 0 1 0 .158h-.164l.164.135h-.235v.766h-.129a2.872 2.872 0 0 0-.059.428.224.224 0 0 1 0 .225h-.07a1.759 1.759 0 0 0-.141.192.191.191 0 0 1-.082.147l.164-.18a.206.206 0 0 0 0 .1s.153-.147.117 0c.059-.09.082-.113.094-.1h.834c.07 0 .141.068.223.1a1.04 1.04 0 0 0 .258 0 4.186 4.186 0 0 0 .529 0l.352-.068h.164l.576.169h.082a.558.558 0 0 1 .634-.056.4.4 0 0 0 .341 0 .878.878 0 0 1 .752 0l-.188.09.341-.079.153.1.517-.124h.141a.93.93 0 0 1 .247 0v.158l.211-.09.258.079.176-.259.129.169.258-.09-.059.147c.27-.1.423-.09.552.068l.059-.214h.059l.141.158c.153-.056.282-.237.482 0l.388-.135.07.079q.106.186.282 0a.266.266 0 0 1 .376 0 1.4 1.4 0 0 0 .47.056.906.906 0 0 0 .247 0c.106-.1.106-.1.247 0s.117-.068.153-.068a9.794 9.794 0 0 0 1.175 0c.235 0 .458.079.7.1a.8.8 0 0 0 .329 0 1.686 1.686 0 0 1 .952.068.962.962 0 0 1 .658-.1 3.08 3.08 0 0 0 .564.068.182.182 0 0 0 .153-.09l.552.09a3.429 3.429 0 0 1 .4 0h.775l-.129.135.529-.09c.2.124.47 0 .752 0a2.6 2.6 0 0 1 1.1 0 .477.477 0 0 0 .247 0 1.221 1.221 0 0 1 .6-.056 5.334 5.334 0 0 1 .658.1l-.106.271h.117l.305-.18a.236.236 0 0 1 .117.18v-.271a.4.4 0 0 0 0-.124v.129a.66.66 0 0 0 0-.248l.305.248a1.88 1.88 0 0 0-.188-.237s.153.068.106 0 0 0 .094 0l-.153-.068h.164a.828.828 0 0 0-.117-.147h.106l-.082-.1-.106-.316.258-.248-.129-.09-.07.2c-.141-.271 0-.316.117-.462l-.082-.192.164-.1v-.068h-.329a3.762 3.762 0 0 0-.153-.383 1.106 1.106 0 0 0-.247-.53v-.18l-.117.1a2.227 2.227 0 0 0-.176-.316l.235.079c0-.271-.211-.259-.317-.395l.129-.327a4.506 4.506 0 0 0-.493-.383l.129-.124-.258-.113v.18c-.129 0-.129 0-.2-.316h.247l-.258-.259-.153.124-.47-.744a2.04 2.04 0 0 0-.317-.158l.176-.147H34.3l-.211-.068V29.8a.453.453 0 0 0-.176 0s-.07.056-.106.09h-.057l.094-.214-.164.158a1.771 1.771 0 0 1-.176-.271.812.812 0 0 1 0-.293c-.106.079-.2.1-.317-.09s-.2-.158-.305-.225l-.305-.2-.493-.237.153-.147v-.056l-.247.135-.141-.147-.634-.316c0-.2-.2-.338-.446-.451l-.07.113a4.884 4.884 0 0 0-.764-.3l-.411-.056h-.059c-.153-.169-.364-.056-.529-.124a6.612 6.612 0 0 0-.811-.225 3.038 3.038 0 0 0-.317 0V27a2.187 2.187 0 0 0-.423-.259H27.1v-.1h-.435a.2.2 0 0 1-.141-.056c.141 0 .117-.18 0-.237a.247.247 0 0 1-.059-.09.522.522 0 0 0 .117-.1.3.3 0 0 0 0-.282v-.135h.153a.294.294 0 0 0 .376-.1h-.258c.211-.225-.153-.327-.223-.507h.235l.094.18h.07c0-.079.07-.2 0-.225a1.618 1.618 0 0 0-.446-.1c0-.147.223-.169.775-.056l-.094-.147h-.07v-.147l-.282.1zm-1.621-.1l-.082-.169c-.07.068-.188.135.082.169zm-.54-.1c.27-.135.282-.135.435-.068l.247.056v-.2c-.294.147-.305-.1-.54-.09zm.2 2.254l.094.09h.061l-.082-.1zm-1.269-2.254l.27.158h.317c.059 0 0 .124 0 .2a3.728 3.728 0 0 0 .294-.248v-.18h-.094v.147l-.2-.147a2.6 2.6 0 0 1-.294.113 1.463 1.463 0 0 1-.27-.09zm-.223.868v.147h.117v-.214zm-1.175.372h-.07l-.117.113zm.07-.857c0 .147.141.135.341 0l.517-.079v-.068h-.4l.247-.147h-.47l.176.192zm.129 1.026v.056l.211-.079v-.056zm-.552-.338l-.117-.271a4.074 4.074 0 0 1 .4-.18l-.117-.248-.117.18h-.329c-.023.327.117.541.27.473zm-1.1-.3l.611-.113c-.094-.158-.352-.124-.623.068zm-.164.259h.317c0 .056-.07.1-.106.169h.352c-.07-.113-.094-.225-.188-.271a.393.393 0 0 0-.364.09zm-.352.18h.082l.082-.124h-.153a.371.371 0 0 0-.024.079zm-.129.169h-.082v.147h.094zm-.317-.237l.188-.113zm-.164.507c.258-.135.235-.237.141-.338-.329.079-.329.124-.153.293zm-.564.293c.094-.18.388-.349.341-.5l-.423.3zm-.117.158a1.9 1.9 0 0 0 .258 0s.07-.068.164-.169zm-.059.259l.27-.1-.27.09zm0 .451l.141-.147h-.059q-.085.047-.164.1zm-1.41.395l.153-.147-.153.147zM16.4 28.725v-.2h-.082c0 .079-.106.169-.094.214s.059-.056.117-.056zm.106.225l.176-.192-.153.192zm-.611-.056l.235.079.059-.068-.247-.079zm-.106.44l.164-.225zm-.916.631a1.391 1.391 0 0 1 .07-.2h-.07a.922.922 0 0 0-.059.158zm.7 1.894a.53.53 0 0 0 .082-.079.443.443 0 0 0 0-.1h-.247c-.047 0 .106.113.106.135zm-2.115.857l.164-.214-.106-.158zm-.358 1.216h-.247c.067.214.067.214.247 0zm2.35 1.477s-.07-.113-.106-.18v.135zm2.079 2.119h-.094l-.07.158h.117zm.423.09l-.153-.192-.106.237zm.094-1.274h-.329c0 .18.176.124.305.1zm1.516 1.014h-.082l-.153.113h.094zm.505.327h-.211a.146.146 0 0 0 .106 0 .541.541 0 0 0 .106-.056zm.787-.473h.082l.188-.135-.082-.056zm-.07.237h.012zm-.446 1.037h-.094l-.094.169a.214.214 0 0 0 .143-.075.2.2 0 0 0 .045-.15zm.858-.068l-.388-.068-.282.192.658-.068zm0-.44l-.587.113.352.282zm0-2.254v.192c.188-.113.282-.18.023-.214zm.552 2.4l-.176.09zm.223.293l-.282-.068.082.2zm1.175-.53h-.8a.631.631 0 0 0 .8-.023zm-.07.552l-.164.068zm.082-.271h-.228v.056h.211zm1.234-.09l-.364-.1.153-.135h-.317a1.7 1.7 0 0 0 .117.417.119.119 0 0 1 .082-.113 2.025 2.025 0 0 1 .329-.09zm.094-1.792h-.106v.114h.07zm1.539-.451l-.235-.1-.153.147zm.435.124h-.56l.294.147zm.27 2.694l-.247-.225c-.064.227-.029.227.241.227zm.47-.462l-.129-.169h-.188l.2.068h-.305c.176.237.27.1.423.079zm.059-.631l-.141.09zm1.034-.079a.3.3 0 0 0-.364-.158c-.106.068-.07.214-.094.316h.082l.223-.214zm.082.744v.147zm1.234-.879v.068l.2-.056zm-.176.665l.223-.09h-.082l-.2.1zm.258.349v-.19h-.117zm.176.113l-.164-.1.082.135zm.493-2.5a.391.391 0 0 0 .211 0v-.135zm.317 2.254h-.106v.225h.153zm.094-.789l-.294-.3h-.094l-.294.406zm.623 1.06l-.411-.18-.082.18h.47zm1.175-2.322h.176v-.056h-.188zm.458.969h-.47v.225zm1.351-.09h-.106l-.059.113h.082zm.423.158v-.124h-.07l-.117.18c.035-.011.141-.023.141-.045zm1.01.6h-.247v.068zm.775.62H36.5l-.153.147h.07zm.646-.293h-.493v.09zm.74-.688l.07-.124h-.294zm.646.259h-.352c.27.147.305.147.305.011zm.94-.349v.169l.129.18v-.18zm-.27-.575l-.153.124v.1h.211zm-.963-.89a1.883 1.883 0 0 0-.082-.237 1.3 1.3 0 0 1 .082.225zm.94-.361a2.066 2.066 0 0 0 0 .451 1.415 1.415 0 0 0 .223-.248v.327-.485c0-.158-.211-.079-.27-.034zm-.317-.631v.248l.07-.147zm0-2.006l.07.271h.082a2.728 2.728 0 0 0-.082-.293zm-.129-.406a.671.671 0 0 0 0 .214.871.871 0 0 0 .094.079v-.271zm-.435-.113c.07.3.07.3.2.327zm-.611-1.24v.079l.153.068v-.09zm-.94-1.127v.068H37V30zm-1.621.665l-.117-.147.082.147zm0-.406c0 .124 0 .18.059.248h.153zm.211-2.4a1.773 1.773 0 0 1 .188.225h.07a1.664 1.664 0 0 0-.188-.214zm-.341 0c.129.2.294.383.423.62l.117-.192a.879.879 0 0 1-.4-.564c-.211-.079-.294-.056-.2.1zm-.282-.293l.188-.158c-.305-.034-.329-.034-.247.124zm-1.01-1.217l.352.225h.082c-.059-.068-.117-.147-.188-.214a.415.415 0 0 0-.176-.1s-.106-.011-.129.056zm-1.938.2l-.2-.079.188.09zm.623-.451l.247.147a.428.428 0 0 0 .129 0v-.2h.235l-.341-.147zm-.576-.327l.4.2v-.237zm.176-.462v.169l.247.079zm-2.8 1.578l.059.214h.106l-.082-.225zm.576-2.469h.106l.094-.18h-.106zm-1.692.913l-.505-.068h-.059l.482.3zm0-.1h.07l-.235-.18zm-.176 1.127l.364.225v-.383zm-.117-1.4a1.42 1.42 0 0 1 .294-.079h.423l-.129-.158-.341.068-.129-.2c.164.1-.27.169-.07.327zm-.2.147H27.5v.068h.176zm-.376-.395l.282.158a1.039 1.039 0 0 1 .082-.271c.023-.09-.176.011-.317.068z" class="cls-1" data-name="Path 145" transform="translate(-12.146 -9.847)"/>
            <path id="Path_146" d="M25.4 36.59l.034.023-.1.1-.056-.034z" class="cls-1" data-name="Path 146" transform="translate(-9.897 -8.244)"/>
            <path id="Path_147" d="M30.457 36.32h-.09a.079.079 0 0 1-.056 0h.068z" class="cls-1" data-name="Path 147" transform="translate(-9.021 -8.278)"/>
            <path id="Path_148" d="M29.1 27.29l-.034-.045.124-.045.045.056z" class="cls-1" data-name="Path 148" transform="translate(-9.236 -9.402)"/>
            <path id="Path_149" d="M28.838 27.618h-.068v-.068h.079s0 .056-.011.068z" class="cls-1" data-name="Path 149" transform="translate(-9.291 -9.359)"/>
            <path id="Path_150" d="M18.48 25.845l.056-.045.1.045-.056.056z" class="cls-1" data-name="Path 150" transform="translate(-11.082 -9.575)"/>
            <path id="Path_151" d="M20.964 24.95l.045.023-.113.09-.056-.034z" class="cls-1" data-name="Path 151" transform="translate(-10.671 -9.681)"/>
            <path id="Path_152" d="M21.79 24.264l.023-.034.18.011-.023.045z" class="cls-1" data-name="Path 152" transform="translate(-10.504 -9.769)"/>
            <path id="Path_153" d="M31.248 26.86v.079a.079.079 0 0 1-.068 0v-.079z" class="cls-1" data-name="Path 153" transform="translate(-8.872 -9.444)"/>
            <path id="Path_155" d="M35.05 34.09a.879.879 0 0 1 0 .158z" class="cls-1" data-name="Path 155" transform="translate(-8.155 -8.562)"/>
            <path id="Path_156" d="M30.52 26.76h.09v.079h-.079s-.022-.079-.011-.079z" class="cls-1" data-name="Path 156" transform="translate(-8.986 -9.457)"/>
            <path id="Path_157" d="M21.66 24.645l.045-.045.1.045-.034.034z" class="cls-1" data-name="Path 157" transform="translate(-10.528 -9.724)"/>
            <path id="Path_158" d="M32.288 36.05v.023l-.158.023v-.046z" class="cls-1" data-name="Path 158" transform="translate(-8.526 -8.312)"/>
            <path id="Path_159" d="M33.851 30.25h-.068c-.068 0 0-.056 0-.079s0 0 .079 0 0 .068-.011.079z" class="cls-1" data-name="Path 159" transform="translate(-8.32 -9.036)"/>
            <path id="Path_160" d="M35.215 34.867l-.011.056-.124-.123.011-.079z" class="cls-1" data-name="Path 160" transform="translate(-8.151 -8.482)"/>
            <path id="Path_161" d="M12.563 34c-.079.631 0 .642-.18.857a2.045 2.045 0 0 0-.113-.473 4.339 4.339 0 0 1 .293-.384z" class="cls-1" data-name="Path 161" transform="translate(-12.169 -8.573)"/>
            <path id="Path_162" d="M26.986 24.017h-.518l-.248-.117a.972.972 0 0 1 .766.117z" class="cls-1" data-name="Path 162" transform="translate(-9.718 -9.815)"/>
            <path id="Path_163" d="M24.268 24.55l.068.1.124-.1c0 .147.056.259-.259.225v-.225z" class="cls-1" data-name="Path 163" transform="translate(-10.083 -9.73)"/>
            <path id="Path_164" d="M25.912 23.76c-.09.237-.338 0-.462 0 .05-.181.271-.023.462 0z" class="cls-1" data-name="Path 164" transform="translate(-9.86 -9.838)"/>
            <path id="Path_165" d="M24.06 23.965c0-.18.124-.259.417-.2-.068 0-.135.09-.158.135s0 .09 0 .135.023-.205-.259-.07z" class="cls-1" data-name="Path 165" transform="translate(-10.104 -9.83)"/>
            <path id="Path_166" d="M34.841 30.271l-.361-.248v-.113l.361.214z" class="cls-1" data-name="Path 166" transform="translate(-8.227 -9.068)"/>
            <path id="Path_167" d="M12.25 34.058l.09-.327.056-.192a.4.4 0 0 1 .068.158c-.011.238-.079.361-.214.361z" class="cls-1" data-name="Path 167" transform="translate(-12.171 -8.632)"/>
            <path id="Path_168" d="M12.191 36.47c.079-.1 0-.519.158-.428a.676.676 0 0 1 0 .2l-.169.361z" class="cls-1" data-name="Path 168" transform="translate(-12.18 -8.315)"/>
            <path id="Path_169" d="M23.632 23.69c-.068 0-.124.09-.192.09a1.127 1.127 0 0 1-.271 0h.451z" class="cls-1" data-name="Path 169" transform="translate(-10.259 -9.836)"/>
            <path id="Path_170" d="M30.024 25.417a1.5 1.5 0 0 1-.214-.147.541.541 0 0 1 .09-.18h.079a.768.768 0 0 1 .045.327z" class="cls-1" data-name="Path 170" transform="translate(-9.106 -9.664)"/>
            <path id="Path_171" d="M12.69 32.016l.124-.406.068.011-.147.406z" class="cls-1" data-name="Path 171" transform="translate(-12.115 -8.858)"/>
            <path id="Path_172" d="M17.5 36.948a.654.654 0 0 1 .169-.068.676.676 0 0 1 .147.1h-.271z" class="cls-1" data-name="Path 172" transform="translate(-11.251 -8.207)"/>
            <path id="Path_173" d="M32.14 31.225l.068-.135.09.1-.1.113z" class="cls-1" data-name="Path 173" transform="translate(-8.525 -8.922)"/>
            <path id="Path_174" d="M13.6 30.5l-.079.293h-.09l.169-.271z" class="cls-1" data-name="Path 174" transform="translate(-12.021 -8.995)"/>
            <path id="Path_175" d="M12.642 33.5h-.192c.135-.278.135-.267.192 0z" class="cls-1" data-name="Path 175" transform="translate(-12.146 -8.663)"/>
            <path id="Path_176" d="M32.4 27l.225.09a1.128 1.128 0 0 1 0 .124 1.363 1.363 0 0 0-.225-.1z" class="cls-1" data-name="Path 176" transform="translate(-8.492 -9.427)"/>
            <path id="Path_177" d="M17.462 37.061c-.214 0-.214 0-.18-.1z" class="cls-1" data-name="Path 177" transform="translate(-11.293 -8.197)"/>
            <path id="Path_178" d="M33.235 27.947l-.135-.225.079-.011.135.225z" class="cls-1" data-name="Path 178" transform="translate(-8.403 -9.34)"/>
            <path id="Path_179" d="M31.17 26.125v-.135l.271.2z" class="cls-1" data-name="Path 179" transform="translate(-8.867 -9.552)"/>
            <path id="Path_180" d="M35.951 36.11v.53l-.1-.338.113-.192z" class="cls-1" data-name="Path 180" transform="translate(-8.053 -8.305)"/>
            <path id="Path_181" d="M15.413 36.956h-.2V36.9l.2.011z" class="cls-1" data-name="Path 181" transform="translate(-11.795 -8.204)"/>
            <path id="Path_182" d="M24.239 26.181s-.09-.068-.079-.09 0 0 .09 0 .056 0 .056.056-.033 0-.067.034z" class="cls-1" data-name="Path 182" transform="translate(-10.092 -9.541)"/>
            <path id="Path_183" d="M24.07 25.641l.2-.011.011.068h-.2z" class="cls-1" data-name="Path 183" transform="translate(-10.107 -9.596)"/>
            <path id="Path_184" d="M14.59 36.86z" class="cls-1" data-name="Path 184" transform="translate(-11.874 -8.209)"/>
            <path id="Path_185" d="M18.229 36.9l.068.124h-.068a.688.688 0 0 1-.079-.113z" class="cls-1" data-name="Path 185" transform="translate(-11.14 -8.204)"/>
            <path id="Path_186" d="M30.31 25.383l.023.169-.1-.034-.011-.158z" class="cls-1" data-name="Path 186" transform="translate(-9.037 -9.63)"/>
            <path id="Path_187" d="M25.168 37.094l-.158-.079.045-.045.18.079z" class="cls-1" data-name="Path 187" transform="translate(-9.942 -8.195)"/>
            <path id="Path_188" d="M35.73 36.9h.248v.113h-.338z" class="cls-1" data-name="Path 188" transform="translate(-8.08 -8.204)"/>
            <path id="Path_189" d="M24.349 25.18l.045.147-.068.011-.056-.147z" class="cls-1" data-name="Path 189" transform="translate(-10.074 -9.652)"/>
            <path id="Path_190" d="M35.776 33a1.828 1.828 0 0 1 0 .225L35.72 33z" class="cls-1" data-name="Path 190" transform="translate(-8.069 -8.7)"/>
            <path id="Path_191" d="M35.94 36.134l.09-.124.011.214-.1-.1z" class="cls-1" data-name="Path 191" transform="translate(-8.041 -8.318)"/>
            <path id="Path_192" d="M34.82 30.525h-.09v-.135z" class="cls-1" data-name="Path 192" transform="translate(-8.195 -9.008)"/>
        </g>
    </g>
</svg>
